<?xml version="1.0" standalone="no"?>
 <!DOCTYPE svg PUBLIC "-//W3C//DTD SVG 1.1//EN" 
 "http://www.w3.org/Graphics/SVG/1.1/DTD/svg11.dtd"> 
<svg xmlns="http://www.w3.org/2000/svg" version="1.1" 
    width="29.7002cm" height="21.0007cm" viewBox="0 0 116930 82680 ">
<title>SVG Picture created as canduino-drl_map.svg date 2015/09/01 18:37:56 </title>
  <desc>Picture generated by PCBNEW </desc>
<g style="fill:#000000; fill-opacity:1;stroke:#000000; stroke-opacity:1;
stroke-linecap:round; stroke-linejoin:round; "
 transform="translate(0 0) scale(1 1)">
</g>
<g style="fill:#000000; fill-opacity:0.0; 
stroke:#000000; stroke-width:39.3701; stroke-opacity:1; 
stroke-linecap:round; stroke-linejoin:round;">
<path d="M45450 31250
L45450 31300
" />
<path d="M45850 30850
L45450 31250
" />
<path d="M70950 30850
L45850 30850
" />
<path d="M71450 31350
L70950 30850
" />
<path d="M71450 35850
L71450 31350
" />
<path d="M72450 36850
L71450 35850
" />
<path d="M72450 49850
L72450 36850
" />
<path d="M71450 50850
L72450 49850
" />
<path d="M71450 51350
L71450 50850
" />
<path d="M70950 51850
L71450 51350
" />
<path d="M45900 51850
L70950 51850
" />
<path d="M45450 51400
L45900 51850
" />
<path d="M45450 31300
L45450 51400
" />
</g>
<g style="fill:#000000; fill-opacity:0.0; 
stroke:#000000; stroke-width:78.7402; stroke-opacity:1; 
stroke-linecap:round; stroke-linejoin:round;">
<path d="M49585 43135
L49715 43265
" />
<path d="M49715 43135
L49585 43265
" />
<path d="M49689 39180
L49819 39310
" />
<path d="M49819 39180
L49689 39310
" />
<path d="M50385 36435
L50515 36565
" />
<path d="M50515 36435
L50385 36565
" />
<path d="M50535 37435
L50665 37565
" />
<path d="M50665 37435
L50535 37565
" />
<path d="M50585 49185
L50715 49315
" />
<path d="M50715 49185
L50585 49315
" />
<path d="M50635 34285
L50765 34415
" />
<path d="M50765 34285
L50635 34415
" />
<path d="M50735 35035
L50865 35165
" />
<path d="M50865 35035
L50735 35165
" />
<path d="M50785 35435
L50915 35565
" />
<path d="M50915 35435
L50785 35565
" />
<path d="M50785 35985
L50915 36115
" />
<path d="M50915 35985
L50785 36115
" />
<path d="M51835 41135
L51965 41265
" />
<path d="M51965 41135
L51835 41265
" />
<path d="M52135 36835
L52265 36965
" />
<path d="M52265 36835
L52135 36965
" />
<path d="M52485 35885
L52615 36015
" />
<path d="M52615 35885
L52485 36015
" />
<path d="M52535 38085
L52665 38215
" />
<path d="M52665 38085
L52535 38215
" />
<path d="M52535 38635
L52665 38765
" />
<path d="M52665 38635
L52535 38765
" />
<path d="M52535 39185
L52665 39315
" />
<path d="M52665 39185
L52535 39315
" />
<path d="M52585 37035
L52715 37165
" />
<path d="M52715 37035
L52585 37165
" />
<path d="M52835 35335
L52965 35465
" />
<path d="M52965 35335
L52835 35465
" />
<path d="M52835 46585
L52965 46715
" />
<path d="M52965 46585
L52835 46715
" />
<path d="M52985 43435
L53115 43565
" />
<path d="M53115 43435
L52985 43565
" />
<path d="M53185 42435
L53315 42565
" />
<path d="M53315 42435
L53185 42565
" />
<path d="M53235 32885
L53365 33015
" />
<path d="M53365 32885
L53235 33015
" />
<path d="M53235 38285
L53365 38415
" />
<path d="M53365 38285
L53235 38415
" />
<path d="M53385 38785
L53515 38915
" />
<path d="M53515 38785
L53385 38915
" />
<path d="M53585 41185
L53715 41315
" />
<path d="M53715 41185
L53585 41315
" />
<path d="M53635 37785
L53765 37915
" />
<path d="M53765 37785
L53635 37915
" />
<path d="M54085 41685
L54215 41815
" />
<path d="M54215 41685
L54085 41815
" />
<path d="M54285 47985
L54415 48115
" />
<path d="M54415 47985
L54285 48115
" />
<path d="M54485 41135
L54615 41265
" />
<path d="M54615 41135
L54485 41265
" />
<path d="M54535 41585
L54665 41715
" />
<path d="M54665 41585
L54535 41715
" />
<path d="M54885 32985
L55015 33115
" />
<path d="M55015 32985
L54885 33115
" />
<path d="M54985 41485
L55115 41615
" />
<path d="M55115 41485
L54985 41615
" />
<path d="M55035 38585
L55165 38715
" />
<path d="M55165 38585
L55035 38715
" />
<path d="M55085 35985
L55215 36115
" />
<path d="M55215 35985
L55085 36115
" />
<path d="M55085 38885
L55215 39015
" />
<path d="M55215 38885
L55085 39015
" />
<path d="M55085 43935
L55215 44065
" />
<path d="M55215 43935
L55085 44065
" />
<path d="M55235 39135
L55365 39265
" />
<path d="M55365 39135
L55235 39265
" />
<path d="M55235 40135
L55365 40265
" />
<path d="M55365 40135
L55235 40265
" />
<path d="M55235 44735
L55365 44865
" />
<path d="M55365 44735
L55235 44865
" />
<path d="M55235 47585
L55365 47715
" />
<path d="M55365 47585
L55235 47715
" />
<path d="M55585 39485
L55715 39615
" />
<path d="M55715 39485
L55585 39615
" />
<path d="M55585 43585
L55715 43715
" />
<path d="M55715 43585
L55585 43715
" />
<path d="M55735 37935
L55865 38065
" />
<path d="M55865 37935
L55735 38065
" />
<path d="M55835 49235
L55965 49365
" />
<path d="M55965 49235
L55835 49365
" />
<path d="M56035 37035
L56165 37165
" />
<path d="M56165 37035
L56035 37165
" />
<path d="M56185 45685
L56315 45815
" />
<path d="M56315 45685
L56185 45815
" />
<path d="M56185 48035
L56315 48165
" />
<path d="M56315 48035
L56185 48165
" />
<path d="M56335 38135
L56465 38265
" />
<path d="M56465 38135
L56335 38265
" />
<path d="M56435 45085
L56565 45215
" />
<path d="M56565 45085
L56435 45215
" />
<path d="M56485 44185
L56615 44315
" />
<path d="M56615 44185
L56485 44315
" />
<path d="M56485 44585
L56615 44715
" />
<path d="M56615 44585
L56485 44715
" />
<path d="M57035 39785
L57165 39915
" />
<path d="M57165 39785
L57035 39915
" />
<path d="M57085 44835
L57215 44965
" />
<path d="M57215 44835
L57085 44965
" />
<path d="M57335 39035
L57465 39165
" />
<path d="M57465 39035
L57335 39165
" />
<path d="M57385 36285
L57515 36415
" />
<path d="M57515 36285
L57385 36415
" />
<path d="M57435 45235
L57565 45365
" />
<path d="M57565 45235
L57435 45365
" />
<path d="M57735 32735
L57865 32865
" />
<path d="M57865 32735
L57735 32865
" />
<path d="M57735 40985
L57865 41115
" />
<path d="M57865 40985
L57735 41115
" />
<path d="M57735 42985
L57865 43115
" />
<path d="M57865 42985
L57735 43115
" />
<path d="M57735 44835
L57865 44965
" />
<path d="M57865 44835
L57735 44965
" />
<path d="M58085 45235
L58215 45365
" />
<path d="M58215 45235
L58085 45365
" />
<path d="M58085 47485
L58215 47615
" />
<path d="M58215 47485
L58085 47615
" />
<path d="M58185 32785
L58315 32915
" />
<path d="M58315 32785
L58185 32915
" />
<path d="M58385 44885
L58515 45015
" />
<path d="M58515 44885
L58385 45015
" />
<path d="M58685 45235
L58815 45365
" />
<path d="M58815 45235
L58685 45365
" />
<path d="M58685 48285
L58815 48415
" />
<path d="M58815 48285
L58685 48415
" />
<path d="M58735 39585
L58865 39715
" />
<path d="M58865 39585
L58735 39715
" />
<path d="M58785 33085
L58915 33215
" />
<path d="M58915 33085
L58785 33215
" />
<path d="M59035 44885
L59165 45015
" />
<path d="M59165 44885
L59035 45015
" />
<path d="M59235 33585
L59365 33715
" />
<path d="M59365 33585
L59235 33715
" />
<path d="M59335 45235
L59465 45365
" />
<path d="M59465 45235
L59335 45365
" />
<path d="M59485 33035
L59615 33165
" />
<path d="M59615 33035
L59485 33165
" />
<path d="M59635 44885
L59765 45015
" />
<path d="M59765 44885
L59635 45015
" />
<path d="M59635 49385
L59765 49515
" />
<path d="M59765 49385
L59635 49515
" />
<path d="M59685 48785
L59815 48915
" />
<path d="M59815 48785
L59685 48915
" />
<path d="M59935 45235
L60065 45365
" />
<path d="M60065 45235
L59935 45365
" />
<path d="M60135 34835
L60265 34965
" />
<path d="M60265 34835
L60135 34965
" />
<path d="M60285 44885
L60415 45015
" />
<path d="M60415 44885
L60285 45015
" />
<path d="M60435 42985
L60565 43115
" />
<path d="M60565 42985
L60435 43115
" />
<path d="M60685 34485
L60815 34615
" />
<path d="M60815 34485
L60685 34615
" />
<path d="M60735 33585
L60865 33715
" />
<path d="M60865 33585
L60735 33715
" />
<path d="M60835 45235
L60965 45365
" />
<path d="M60965 45235
L60835 45365
" />
<path d="M60885 48285
L61015 48415
" />
<path d="M61015 48285
L60885 48415
" />
<path d="M60935 44835
L61065 44965
" />
<path d="M61065 44835
L60935 44965
" />
<path d="M61035 39435
L61165 39565
" />
<path d="M61165 39435
L61035 39565
" />
<path d="M61135 41085
L61265 41215
" />
<path d="M61265 41085
L61135 41215
" />
<path d="M61260 33585
L61390 33715
" />
<path d="M61390 33585
L61260 33715
" />
<path d="M61335 43385
L61465 43515
" />
<path d="M61465 43385
L61335 43515
" />
<path d="M61741 43435
L61871 43565
" />
<path d="M61871 43435
L61741 43565
" />
<path d="M61885 44735
L62015 44865
" />
<path d="M62015 44735
L61885 44865
" />
<path d="M61985 37135
L62115 37265
" />
<path d="M62115 37135
L61985 37265
" />
<path d="M61985 42885
L62115 43015
" />
<path d="M62115 42885
L61985 43015
" />
<path d="M62035 34235
L62165 34365
" />
<path d="M62165 34235
L62035 34365
" />
<path d="M62185 45035
L62315 45165
" />
<path d="M62315 45035
L62185 45165
" />
<path d="M62335 33685
L62465 33815
" />
<path d="M62465 33685
L62335 33815
" />
<path d="M62335 35885
L62465 36015
" />
<path d="M62465 35885
L62335 36015
" />
<path d="M62335 44385
L62465 44515
" />
<path d="M62465 44385
L62335 44515
" />
<path d="M62535 47685
L62665 47815
" />
<path d="M62665 47685
L62535 47815
" />
<path d="M62635 44285
L62765 44415
" />
<path d="M62765 44285
L62635 44415
" />
<path d="M62785 38335
L62915 38465
" />
<path d="M62915 38335
L62785 38465
" />
<path d="M62885 49085
L63015 49215
" />
<path d="M63015 49085
L62885 49215
" />
<path d="M62985 33385
L63115 33515
" />
<path d="M63115 33385
L62985 33515
" />
<path d="M62985 44385
L63115 44515
" />
<path d="M63115 44385
L62985 44515
" />
<path d="M63035 43935
L63165 44065
" />
<path d="M63165 43935
L63035 44065
" />
<path d="M63085 43085
L63215 43215
" />
<path d="M63215 43085
L63085 43215
" />
<path d="M63085 43485
L63215 43615
" />
<path d="M63215 43485
L63085 43615
" />
<path d="M63285 35535
L63415 35665
" />
<path d="M63415 35535
L63285 35665
" />
<path d="M63385 48335
L63515 48465
" />
<path d="M63515 48335
L63385 48465
" />
<path d="M63885 34935
L64015 35065
" />
<path d="M64015 34935
L63885 35065
" />
<circle cx="51550" cy="40450" r="157.5" /> 
<circle cx="53550" cy="40450" r="157.5" /> 
<path d="M52865 31643
L52865 32036
" />
<path d="M52668 31840
L53061 31840
" />
<path d="M53865 31643
L53865 32036
" />
<path d="M53668 31840
L54061 31840
" />
<path d="M54866 31643
L54866 32036
" />
<path d="M54669 31840
L55062 31840
" />
<path d="M55865 31643
L55865 32036
" />
<path d="M55668 31840
L56061 31840
" />
<path d="M56865 31643
L56865 32036
" />
<path d="M56668 31840
L57061 31840
" />
<path d="M57865 31643
L57865 32036
" />
<path d="M57668 31840
L58061 31840
" />
<path d="M58865 31643
L58865 32036
" />
<path d="M58668 31840
L59061 31840
" />
<path d="M59865 31643
L59865 32036
" />
<path d="M59668 31840
L60061 31840
" />
<path d="M60865 31643
L60865 32036
" />
<path d="M60668 31840
L61061 31840
" />
<path d="M61865 31643
L61865 32036
" />
<path d="M61668 31840
L62061 31840
" />
<path d="M63465 31643
L63465 32036
" />
<path d="M63268 31840
L63661 31840
" />
<path d="M64465 31643
L64465 32036
" />
<path d="M64268 31840
L64661 31840
" />
<path d="M65465 31643
L65465 32036
" />
<path d="M65268 31840
L65661 31840
" />
<path d="M66465 31643
L66465 32036
" />
<path d="M66268 31840
L66661 31840
" />
<path d="M67465 31643
L67465 32036
" />
<path d="M67268 31840
L67661 31840
" />
<path d="M68465 31643
L68465 32036
" />
<path d="M68268 31840
L68661 31840
" />
<path d="M69465 31643
L69465 32036
" />
<path d="M69268 31840
L69661 31840
" />
<path d="M70465 31643
L70465 32036
" />
<path d="M70268 31840
L70661 31840
" />
<polyline fill="none;"
points="47387,48989
47387,48710
47108,48710
47108,48989
47387,48989
" /> 
<path d="M47090 48456
L47090 49243
" />
<path d="M47405 48456
L47405 49243
" />
<path d="M47090.4 49243.5 A157.63 157.63 0.0 0 0 47405.6 49243.5 " />
<path d="M47405.6 48456.5 A157.63 157.63 0.0 0 0 47090.4 48456.5 " />
<polyline fill="none;"
points="47989,40189
47989,39910
47710,39910
47710,40189
47989,40189
" /> 
<polyline fill="none;"
points="48667,51076
48667,50797
48388,50797
48388,51076
48667,51076
" /> 
<path d="M48921 50779
L48134 50779
" />
<path d="M48921 51094
L48134 51094
" />
<path d="M48134.5 50779.4 A157.63 157.63 0.0 0 0 48134.5 51094.6 " />
<path d="M48921.5 51094.6 A157.63 157.63 0.0 0 0 48921.5 50779.4 " />
<polyline fill="none;"
points="48989,40189
48989,39910
48710,39910
48710,40189
48989,40189
" /> 
<polyline fill="none;"
points="49750,48989
49750,48710
49471,48710
49471,48989
49750,48989
" /> 
<path d="M49453 48358
L49453 49342
" />
<path d="M49768 48358
L49768 49342
" />
<path d="M49453.4 49342 A157.63 157.63 0.0 0 0 49768.6 49342 " />
<path d="M49768.6 48358 A157.63 157.63 0.0 0 0 49453.4 48358 " />
<polyline fill="none;"
points="56604,50979
56604,50700
56325,50700
56325,50979
56604,50979
" /> 
<polyline fill="none;"
points="57604,50979
57604,50700
57325,50700
57325,50979
57604,50979
" /> 
<polyline fill="none;"
points="58604,50979
58604,50700
58325,50700
58325,50979
58604,50979
" /> 
<polyline fill="none;"
points="59604,50979
59604,50700
59325,50700
59325,50979
59604,50979
" /> 
<polyline fill="none;"
points="60604,50979
60604,50700
60325,50700
60325,50979
60604,50979
" /> 
<polyline fill="none;"
points="61604,50979
61604,50700
61325,50700
61325,50979
61604,50979
" /> 
<polyline fill="none;"
points="62604,50979
62604,50700
62325,50700
62325,50979
62604,50979
" /> 
<polyline fill="none;"
points="63604,50979
63604,50700
63325,50700
63325,50979
63604,50979
" /> 
<polyline fill="none;"
points="65589,33989
65589,33710
65310,33710
65310,33989
65589,33989
" /> 
<polyline fill="none;"
points="65589,34989
65589,34710
65310,34710
65310,34989
65589,34989
" /> 
<polyline fill="none;"
points="65589,35989
65589,35710
65310,35710
65310,35989
65589,35989
" /> 
<polyline fill="none;"
points="65589,36989
65589,36710
65310,36710
65310,36989
65589,36989
" /> 
<polyline fill="none;"
points="65589,37989
65589,37710
65310,37710
65310,37989
65589,37989
" /> 
<polyline fill="none;"
points="65589,38989
65589,38710
65310,38710
65310,38989
65589,38989
" /> 
<polyline fill="none;"
points="65589,39989
65589,39710
65310,39710
65310,39989
65589,39989
" /> 
<polyline fill="none;"
points="65589,40989
65589,40710
65310,40710
65310,40989
65589,40989
" /> 
<polyline fill="none;"
points="65589,41989
65589,41710
65310,41710
65310,41989
65589,41989
" /> 
<polyline fill="none;"
points="65589,42989
65589,42710
65310,42710
65310,42989
65589,42989
" /> 
<polyline fill="none;"
points="65589,43989
65589,43710
65310,43710
65310,43989
65589,43989
" /> 
<polyline fill="none;"
points="65589,44989
65589,44710
65310,44710
65310,44989
65589,44989
" /> 
<polyline fill="none;"
points="65589,45989
65589,45710
65310,45710
65310,45989
65589,45989
" /> 
<polyline fill="none;"
points="65589,46989
65589,46710
65310,46710
65310,46989
65589,46989
" /> 
<polyline fill="none;"
points="65589,47989
65589,47710
65310,47710
65310,47989
65589,47989
" /> 
<polyline fill="none;"
points="65589,48989
65589,48710
65310,48710
65310,48989
65589,48989
" /> 
<polyline fill="none;"
points="65604,50979
65604,50700
65325,50700
65325,50979
65604,50979
" /> 
<polyline fill="none;"
points="66589,33989
66589,33710
66310,33710
66310,33989
66589,33989
" /> 
<polyline fill="none;"
points="66589,34989
66589,34710
66310,34710
66310,34989
66589,34989
" /> 
<polyline fill="none;"
points="66589,36014
66589,35735
66310,35735
66310,36014
66589,36014
" /> 
<polyline fill="none;"
points="66589,36989
66589,36710
66310,36710
66310,36989
66589,36989
" /> 
<polyline fill="none;"
points="66589,37989
66589,37710
66310,37710
66310,37989
66589,37989
" /> 
<polyline fill="none;"
points="66589,38989
66589,38710
66310,38710
66310,38989
66589,38989
" /> 
<polyline fill="none;"
points="66589,39989
66589,39710
66310,39710
66310,39989
66589,39989
" /> 
<polyline fill="none;"
points="66589,40989
66589,40710
66310,40710
66310,40989
66589,40989
" /> 
<polyline fill="none;"
points="66589,41989
66589,41710
66310,41710
66310,41989
66589,41989
" /> 
<polyline fill="none;"
points="66589,42989
66589,42710
66310,42710
66310,42989
66589,42989
" /> 
<polyline fill="none;"
points="66589,43989
66589,43710
66310,43710
66310,43989
66589,43989
" /> 
<polyline fill="none;"
points="66589,44989
66589,44710
66310,44710
66310,44989
66589,44989
" /> 
<polyline fill="none;"
points="66589,45989
66589,45710
66310,45710
66310,45989
66589,45989
" /> 
<polyline fill="none;"
points="66589,46989
66589,46710
66310,46710
66310,46989
66589,46989
" /> 
<polyline fill="none;"
points="66589,47989
66589,47710
66310,47710
66310,47989
66589,47989
" /> 
<polyline fill="none;"
points="66589,48989
66589,48710
66310,48710
66310,48989
66589,48989
" /> 
<polyline fill="none;"
points="66604,50979
66604,50700
66325,50700
66325,50979
66604,50979
" /> 
<polyline fill="none;"
points="67589,33989
67589,33710
67310,33710
67310,33989
67589,33989
" /> 
<polyline fill="none;"
points="67589,34989
67589,34710
67310,34710
67310,34989
67589,34989
" /> 
<polyline fill="none;"
points="67589,36014
67589,35735
67310,35735
67310,36014
67589,36014
" /> 
<polyline fill="none;"
points="67589,36989
67589,36710
67310,36710
67310,36989
67589,36989
" /> 
<polyline fill="none;"
points="67589,37989
67589,37710
67310,37710
67310,37989
67589,37989
" /> 
<polyline fill="none;"
points="67589,38989
67589,38710
67310,38710
67310,38989
67589,38989
" /> 
<polyline fill="none;"
points="67589,39989
67589,39710
67310,39710
67310,39989
67589,39989
" /> 
<polyline fill="none;"
points="67589,40989
67589,40710
67310,40710
67310,40989
67589,40989
" /> 
<polyline fill="none;"
points="67589,41989
67589,41710
67310,41710
67310,41989
67589,41989
" /> 
<polyline fill="none;"
points="67589,42989
67589,42710
67310,42710
67310,42989
67589,42989
" /> 
<polyline fill="none;"
points="67589,43989
67589,43710
67310,43710
67310,43989
67589,43989
" /> 
<polyline fill="none;"
points="67589,44989
67589,44710
67310,44710
67310,44989
67589,44989
" /> 
<polyline fill="none;"
points="67589,45989
67589,45710
67310,45710
67310,45989
67589,45989
" /> 
<polyline fill="none;"
points="67589,46989
67589,46710
67310,46710
67310,46989
67589,46989
" /> 
<polyline fill="none;"
points="67589,47989
67589,47710
67310,47710
67310,47989
67589,47989
" /> 
<polyline fill="none;"
points="67589,48989
67589,48710
67310,48710
67310,48989
67589,48989
" /> 
<polyline fill="none;"
points="67604,50979
67604,50700
67325,50700
67325,50979
67604,50979
" /> 
<polyline fill="none;"
points="68589,33989
68589,33710
68310,33710
68310,33989
68589,33989
" /> 
<polyline fill="none;"
points="68589,34989
68589,34710
68310,34710
68310,34989
68589,34989
" /> 
<polyline fill="none;"
points="68589,35989
68589,35710
68310,35710
68310,35989
68589,35989
" /> 
<polyline fill="none;"
points="68589,36989
68589,36710
68310,36710
68310,36989
68589,36989
" /> 
<polyline fill="none;"
points="68589,37989
68589,37710
68310,37710
68310,37989
68589,37989
" /> 
<polyline fill="none;"
points="68589,38989
68589,38710
68310,38710
68310,38989
68589,38989
" /> 
<polyline fill="none;"
points="68589,39989
68589,39710
68310,39710
68310,39989
68589,39989
" /> 
<polyline fill="none;"
points="68589,40989
68589,40710
68310,40710
68310,40989
68589,40989
" /> 
<polyline fill="none;"
points="68589,41989
68589,41710
68310,41710
68310,41989
68589,41989
" /> 
<polyline fill="none;"
points="68589,42989
68589,42710
68310,42710
68310,42989
68589,42989
" /> 
<polyline fill="none;"
points="68589,43989
68589,43710
68310,43710
68310,43989
68589,43989
" /> 
<polyline fill="none;"
points="68589,44989
68589,44710
68310,44710
68310,44989
68589,44989
" /> 
<polyline fill="none;"
points="68589,45989
68589,45710
68310,45710
68310,45989
68589,45989
" /> 
<polyline fill="none;"
points="68589,46989
68589,46710
68310,46710
68310,46989
68589,46989
" /> 
<polyline fill="none;"
points="68589,47989
68589,47710
68310,47710
68310,47989
68589,47989
" /> 
<polyline fill="none;"
points="68589,48989
68589,48710
68310,48710
68310,48989
68589,48989
" /> 
<polyline fill="none;"
points="68604,50979
68604,50700
68325,50700
68325,50979
68604,50979
" /> 
<polyline fill="none;"
points="69589,43989
69589,43710
69310,43710
69310,43989
69589,43989
" /> 
<polyline fill="none;"
points="69589,44989
69589,44710
69310,44710
69310,44989
69589,44989
" /> 
<polyline fill="none;"
points="69589,45989
69589,45710
69310,45710
69310,45989
69589,45989
" /> 
<polyline fill="none;"
points="69589,46989
69589,46710
69310,46710
69310,46989
69589,46989
" /> 
<polyline fill="none;"
points="69604,50979
69604,50700
69325,50700
69325,50979
69604,50979
" /> 
<polyline fill="none;"
points="70589,43989
70589,43710
70310,43710
70310,43989
70589,43989
" /> 
<polyline fill="none;"
points="70589,44989
70589,44710
70310,44710
70310,44989
70589,44989
" /> 
<polyline fill="none;"
points="70589,45989
70589,45710
70310,45710
70310,45989
70589,45989
" /> 
<polyline fill="none;"
points="70589,46989
70589,46710
70310,46710
70310,46989
70589,46989
" /> 
<polyline fill="none;"
points="70604,50979
70604,50700
70325,50700
70325,50979
70604,50979
" /> 
<polyline fill="none;"
points="70739,39989
70739,39710
70460,39710
70460,39989
70739,39989
" /> 
<polyline fill="none;"
points="70739,40989
70739,40710
70460,40710
70460,40989
70739,40989
" /> 
<polyline fill="none;"
points="70739,41989
70739,41710
70460,41710
70460,41989
70739,41989
" /> 
<polyline fill="none;"
points="71589,43989
71589,43710
71310,43710
71310,43989
71589,43989
" /> 
<polyline fill="none;"
points="71589,44989
71589,44710
71310,44710
71310,44989
71589,44989
" /> 
<polyline fill="none;"
points="71589,45989
71589,45710
71310,45710
71310,45989
71589,45989
" /> 
<polyline fill="none;"
points="71589,46989
71589,46710
71310,46710
71310,46989
71589,46989
" /> 
<polyline fill="none;"
points="71739,39989
71739,39710
71460,39710
71460,39989
71739,39989
" /> 
<polyline fill="none;"
points="71739,40989
71739,40710
71460,40710
71460,40989
71739,40989
" /> 
<polyline fill="none;"
points="71739,41989
71739,41710
71460,41710
71460,41989
71739,41989
" /> 
<polyline fill="none;"
points="47300,42087
47555,41831
47300,41575
47044,41831
47300,42087
" /> 
<polyline fill="none;"
points="47300,44055
47555,43800
47300,43544
47044,43800
47300,44055
" /> 
<polyline fill="none;"
points="47300,46024
47555,45768
47300,45512
47044,45768
47300,46024
" /> 
</g>
<g style="fill:#000000; fill-opacity:0.0; 
stroke:#000000; stroke-width:118.11; stroke-opacity:1; 
stroke-linecap:round; stroke-linejoin:round;">
<path d="M46498 53703
L46498 52522
L46780 52522
L46948 52578
L47061 52690
L47117 52803
L47173 53028
L47173 53197
L47117 53421
L47061 53534
L46948 53646
L46780 53703
L46498 53703
" />
<path d="M47680 53703
L47680 52915
" />
<path d="M47680 53140
L47736 53028
L47792 52972
L47905 52915
L48017 52915
" />
<path d="M48411 53703
L48411 52915
" />
<path d="M48411 52522
L48354 52578
L48411 52634
L48467 52578
L48411 52522
L48411 52634
" />
<path d="M49142 53703
L49029 53646
L48973 53534
L48973 52522
" />
<path d="M49761 53703
L49648 53646
L49592 53534
L49592 52522
" />
<path d="M51110 53703
L51110 52522
L51504 53365
L51898 52522
L51898 53703
" />
<path d="M52966 53703
L52966 53084
L52910 52972
L52798 52915
L52573 52915
L52460 52972
" />
<path d="M52966 53646
L52854 53703
L52573 53703
L52460 53646
L52404 53534
L52404 53421
L52460 53309
L52573 53253
L52854 53253
L52966 53197
" />
<path d="M53529 52915
L53529 54096
" />
<path d="M53529 52972
L53641 52915
L53866 52915
L53979 52972
L54035 53028
L54091 53140
L54091 53478
L54035 53590
L53979 53646
L53866 53703
L53641 53703
L53529 53646
" />
<path d="M54597 53590
L54654 53646
L54597 53703
L54541 53646
L54597 53590
L54597 53703
" />
<path d="M54597 52972
L54654 53028
L54597 53084
L54541 53028
L54597 52972
L54597 53084
" />
<path d="M45300 55584
L45430 55714
" />
<path d="M45430 55584
L45300 55714
" />
<path d="M46723 55002
L46836 55002
L46948 55058
L47005 55114
L47061 55227
L47117 55452
L47117 55733
L47061 55958
L47005 56071
L46948 56127
L46836 56183
L46723 56183
L46611 56127
L46555 56071
L46498 55958
L46442 55733
L46442 55452
L46498 55227
L46555 55114
L46611 55058
L46723 55002
" />
<path d="M47623 56071
L47680 56127
L47623 56183
L47567 56127
L47623 56071
L47623 56183
" />
<path d="M48073 55002
L48804 55002
L48411 55452
L48579 55452
L48692 55508
L48748 55564
L48804 55677
L48804 55958
L48748 56071
L48692 56127
L48579 56183
L48242 56183
L48129 56127
L48073 56071
" />
<path d="M49198 55002
L49929 55002
L49536 55452
L49704 55452
L49817 55508
L49873 55564
L49929 55677
L49929 55958
L49873 56071
L49817 56127
L49704 56183
L49367 56183
L49254 56127
L49198 56071
" />
<path d="M50435 56183
L50435 55396
" />
<path d="M50435 55508
L50492 55452
L50604 55396
L50773 55396
L50885 55452
L50942 55564
L50942 56183
" />
<path d="M50942 55564
L50998 55452
L51110 55396
L51279 55396
L51392 55452
L51448 55564
L51448 56183
" />
<path d="M52010 56183
L52010 55396
" />
<path d="M52010 55508
L52066 55452
L52179 55396
L52348 55396
L52460 55452
L52516 55564
L52516 56183
" />
<path d="M52516 55564
L52573 55452
L52685 55396
L52854 55396
L52966 55452
L53023 55564
L53023 56183
" />
<path d="M55329 54946
L54316 56464
" />
<path d="M56847 55002
L56960 55002
L57072 55058
L57128 55114
L57185 55227
L57241 55452
L57241 55733
L57185 55958
L57128 56071
L57072 56127
L56960 56183
L56847 56183
L56735 56127
L56678 56071
L56622 55958
L56566 55733
L56566 55452
L56622 55227
L56678 55114
L56735 55058
L56847 55002
" />
<path d="M57747 56071
L57803 56127
L57747 56183
L57691 56127
L57747 56071
L57747 56183
" />
<path d="M58534 55002
L58647 55002
L58759 55058
L58816 55114
L58872 55227
L58928 55452
L58928 55733
L58872 55958
L58816 56071
L58759 56127
L58647 56183
L58534 56183
L58422 56127
L58366 56071
L58309 55958
L58253 55733
L58253 55452
L58309 55227
L58366 55114
L58422 55058
L58534 55002
" />
<path d="M60053 56183
L59378 56183
" />
<path d="M59716 56183
L59716 55002
L59603 55171
L59491 55283
L59378 55339
" />
<path d="M60447 55002
L61178 55002
L60784 55452
L60953 55452
L61065 55508
L61122 55564
L61178 55677
L61178 55958
L61122 56071
L61065 56127
L60953 56183
L60615 56183
L60503 56127
L60447 56071
" />
<path d="M61628 55002
L61628 55227
" />
<path d="M62078 55002
L62078 55227
" />
<path d="M63821 56633
L63765 56577
L63653 56408
L63596 56296
L63540 56127
L63484 55846
L63484 55621
L63540 55339
L63596 55171
L63653 55058
L63765 54889
L63821 54833
" />
<path d="M64890 56183
L64215 56183
" />
<path d="M64552 56183
L64552 55002
L64440 55171
L64327 55283
L64215 55339
" />
<path d="M65621 55002
L65734 55002
L65846 55058
L65902 55114
L65958 55227
L66015 55452
L66015 55733
L65958 55958
L65902 56071
L65846 56127
L65734 56183
L65621 56183
L65509 56127
L65452 56071
L65396 55958
L65340 55733
L65340 55452
L65396 55227
L65452 55114
L65509 55058
L65621 55002
" />
<path d="M66690 55508
L66577 55452
L66521 55396
L66465 55283
L66465 55227
L66521 55114
L66577 55058
L66690 55002
L66915 55002
L67027 55058
L67083 55114
L67140 55227
L67140 55283
L67083 55396
L67027 55452
L66915 55508
L66690 55508
L66577 55564
L66521 55621
L66465 55733
L66465 55958
L66521 56071
L66577 56127
L66690 56183
L66915 56183
L67027 56127
L67083 56071
L67140 55958
L67140 55733
L67083 55621
L67027 55564
L66915 55508
" />
<path d="M68546 56183
L68546 55002
" />
<path d="M69052 56183
L69052 55564
L68996 55452
L68883 55396
L68714 55396
L68602 55452
L68546 55508
" />
<path d="M69783 56183
L69671 56127
L69614 56071
L69558 55958
L69558 55621
L69614 55508
L69671 55452
L69783 55396
L69952 55396
L70064 55452
L70120 55508
L70177 55621
L70177 55958
L70120 56071
L70064 56127
L69952 56183
L69783 56183
" />
<path d="M70852 56183
L70739 56127
L70683 56014
L70683 55002
" />
<path d="M71752 56127
L71639 56183
L71414 56183
L71302 56127
L71245 56014
L71245 55564
L71302 55452
L71414 55396
L71639 55396
L71752 55452
L71808 55564
L71808 55677
L71245 55789
" />
<path d="M72258 56127
L72370 56183
L72595 56183
L72708 56127
L72764 56014
L72764 55958
L72708 55846
L72595 55789
L72426 55789
L72314 55733
L72258 55621
L72258 55564
L72314 55452
L72426 55396
L72595 55396
L72708 55452
" />
<path d="M73158 56633
L73214 56577
L73326 56408
L73383 56296
L73439 56127
L73495 55846
L73495 55621
L73439 55339
L73383 55171
L73326 55058
L73214 54889
L73158 54833
" />
<circle cx="45272.8" cy="57208.3" r="157.5" /> 
<path d="M46723 56561
L46836 56561
L46948 56617
L47005 56673
L47061 56786
L47117 57011
L47117 57292
L47061 57517
L47005 57630
L46948 57686
L46836 57742
L46723 57742
L46611 57686
L46555 57630
L46498 57517
L46442 57292
L46442 57011
L46498 56786
L46555 56673
L46611 56617
L46723 56561
" />
<path d="M47623 57630
L47680 57686
L47623 57742
L47567 57686
L47623 57630
L47623 57742
" />
<path d="M48354 57067
L48242 57011
L48186 56955
L48129 56842
L48129 56786
L48186 56673
L48242 56617
L48354 56561
L48579 56561
L48692 56617
L48748 56673
L48804 56786
L48804 56842
L48748 56955
L48692 57011
L48579 57067
L48354 57067
L48242 57123
L48186 57180
L48129 57292
L48129 57517
L48186 57630
L48242 57686
L48354 57742
L48579 57742
L48692 57686
L48748 57630
L48804 57517
L48804 57292
L48748 57180
L48692 57123
L48579 57067
" />
<path d="M49536 56561
L49648 56561
L49761 56617
L49817 56673
L49873 56786
L49929 57011
L49929 57292
L49873 57517
L49817 57630
L49761 57686
L49648 57742
L49536 57742
L49423 57686
L49367 57630
L49311 57517
L49254 57292
L49254 57011
L49311 56786
L49367 56673
L49423 56617
L49536 56561
" />
<path d="M50435 57742
L50435 56955
" />
<path d="M50435 57067
L50492 57011
L50604 56955
L50773 56955
L50885 57011
L50942 57123
L50942 57742
" />
<path d="M50942 57123
L50998 57011
L51110 56955
L51279 56955
L51392 57011
L51448 57123
L51448 57742
" />
<path d="M52010 57742
L52010 56955
" />
<path d="M52010 57067
L52066 57011
L52179 56955
L52348 56955
L52460 57011
L52516 57123
L52516 57742
" />
<path d="M52516 57123
L52573 57011
L52685 56955
L52854 56955
L52966 57011
L53023 57123
L53023 57742
" />
<path d="M55329 56505
L54316 58023
" />
<path d="M56847 56561
L56960 56561
L57072 56617
L57128 56673
L57185 56786
L57241 57011
L57241 57292
L57185 57517
L57128 57630
L57072 57686
L56960 57742
L56847 57742
L56735 57686
L56678 57630
L56622 57517
L56566 57292
L56566 57011
L56622 56786
L56678 56673
L56735 56617
L56847 56561
" />
<path d="M57747 57630
L57803 57686
L57747 57742
L57691 57686
L57747 57630
L57747 57742
" />
<path d="M58534 56561
L58647 56561
L58759 56617
L58816 56673
L58872 56786
L58928 57011
L58928 57292
L58872 57517
L58816 57630
L58759 57686
L58647 57742
L58534 57742
L58422 57686
L58366 57630
L58309 57517
L58253 57292
L58253 57011
L58309 56786
L58366 56673
L58422 56617
L58534 56561
" />
<path d="M59322 56561
L60053 56561
L59659 57011
L59828 57011
L59941 57067
L59997 57123
L60053 57236
L60053 57517
L59997 57630
L59941 57686
L59828 57742
L59491 57742
L59378 57686
L59322 57630
" />
<path d="M60503 56673
L60559 56617
L60672 56561
L60953 56561
L61065 56617
L61122 56673
L61178 56786
L61178 56898
L61122 57067
L60447 57742
L61178 57742
" />
<path d="M61628 56561
L61628 56786
" />
<path d="M62078 56561
L62078 56786
" />
<path d="M63821 58192
L63765 58136
L63653 57967
L63596 57855
L63540 57686
L63484 57405
L63484 57180
L63540 56898
L63596 56730
L63653 56617
L63765 56448
L63821 56392
" />
<path d="M64215 56673
L64271 56617
L64384 56561
L64665 56561
L64777 56617
L64834 56673
L64890 56786
L64890 56898
L64834 57067
L64159 57742
L64890 57742
" />
<path d="M66296 57742
L66296 56561
" />
<path d="M66802 57742
L66802 57123
L66746 57011
L66633 56955
L66465 56955
L66352 57011
L66296 57067
" />
<path d="M67533 57742
L67421 57686
L67365 57630
L67308 57517
L67308 57180
L67365 57067
L67421 57011
L67533 56955
L67702 56955
L67815 57011
L67871 57067
L67927 57180
L67927 57517
L67871 57630
L67815 57686
L67702 57742
L67533 57742
" />
<path d="M68602 57742
L68489 57686
L68433 57573
L68433 56561
" />
<path d="M69502 57686
L69389 57742
L69164 57742
L69052 57686
L68996 57573
L68996 57123
L69052 57011
L69164 56955
L69389 56955
L69502 57011
L69558 57123
L69558 57236
L68996 57348
" />
<path d="M70008 57686
L70120 57742
L70345 57742
L70458 57686
L70514 57573
L70514 57517
L70458 57405
L70345 57348
L70177 57348
L70064 57292
L70008 57180
L70008 57123
L70064 57011
L70177 56955
L70345 56955
L70458 57011
" />
<path d="M70908 58192
L70964 58136
L71077 57967
L71133 57855
L71189 57686
L71245 57405
L71245 57180
L71189 56898
L71133 56730
L71077 56617
L70964 56448
L70908 56392
" />
<path d="M45233 58570
L45233 58963
" />
<path d="M45037 58767
L45430 58767
" />
<path d="M47117 59301
L46442 59301
" />
<path d="M46780 59301
L46780 58120
L46667 58289
L46555 58401
L46442 58457
" />
<path d="M47623 59189
L47680 59245
L47623 59301
L47567 59245
L47623 59189
L47623 59301
" />
<path d="M48411 58120
L48523 58120
L48636 58176
L48692 58233
L48748 58345
L48804 58570
L48804 58851
L48748 59076
L48692 59189
L48636 59245
L48523 59301
L48411 59301
L48298 59245
L48242 59189
L48186 59076
L48129 58851
L48129 58570
L48186 58345
L48242 58233
L48298 58176
L48411 58120
" />
<path d="M49536 58120
L49648 58120
L49761 58176
L49817 58233
L49873 58345
L49929 58570
L49929 58851
L49873 59076
L49817 59189
L49761 59245
L49648 59301
L49536 59301
L49423 59245
L49367 59189
L49311 59076
L49254 58851
L49254 58570
L49311 58345
L49367 58233
L49423 58176
L49536 58120
" />
<path d="M50435 59301
L50435 58514
" />
<path d="M50435 58626
L50492 58570
L50604 58514
L50773 58514
L50885 58570
L50942 58682
L50942 59301
" />
<path d="M50942 58682
L50998 58570
L51110 58514
L51279 58514
L51392 58570
L51448 58682
L51448 59301
" />
<path d="M52010 59301
L52010 58514
" />
<path d="M52010 58626
L52066 58570
L52179 58514
L52348 58514
L52460 58570
L52516 58682
L52516 59301
" />
<path d="M52516 58682
L52573 58570
L52685 58514
L52854 58514
L52966 58570
L53023 58682
L53023 59301
" />
<path d="M55329 58064
L54316 59582
" />
<path d="M56847 58120
L56960 58120
L57072 58176
L57128 58233
L57185 58345
L57241 58570
L57241 58851
L57185 59076
L57128 59189
L57072 59245
L56960 59301
L56847 59301
L56735 59245
L56678 59189
L56622 59076
L56566 58851
L56566 58570
L56622 58345
L56678 58233
L56735 58176
L56847 58120
" />
<path d="M57747 59189
L57803 59245
L57747 59301
L57691 59245
L57747 59189
L57747 59301
" />
<path d="M58534 58120
L58647 58120
L58759 58176
L58816 58233
L58872 58345
L58928 58570
L58928 58851
L58872 59076
L58816 59189
L58759 59245
L58647 59301
L58534 59301
L58422 59245
L58366 59189
L58309 59076
L58253 58851
L58253 58570
L58309 58345
L58366 58233
L58422 58176
L58534 58120
" />
<path d="M59322 58120
L60053 58120
L59659 58570
L59828 58570
L59941 58626
L59997 58682
L60053 58795
L60053 59076
L59997 59189
L59941 59245
L59828 59301
L59491 59301
L59378 59245
L59322 59189
" />
<path d="M60615 59301
L60840 59301
L60953 59245
L61009 59189
L61122 59020
L61178 58795
L61178 58345
L61122 58233
L61065 58176
L60953 58120
L60728 58120
L60615 58176
L60559 58233
L60503 58345
L60503 58626
L60559 58739
L60615 58795
L60728 58851
L60953 58851
L61065 58795
L61122 58739
L61178 58626
" />
<path d="M61628 58120
L61628 58345
" />
<path d="M62078 58120
L62078 58345
" />
<path d="M63821 59751
L63765 59695
L63653 59526
L63596 59414
L63540 59245
L63484 58964
L63484 58739
L63540 58457
L63596 58289
L63653 58176
L63765 58008
L63821 57951
" />
<path d="M64890 59301
L64215 59301
" />
<path d="M64552 59301
L64552 58120
L64440 58289
L64327 58401
L64215 58457
" />
<path d="M65565 58626
L65452 58570
L65396 58514
L65340 58401
L65340 58345
L65396 58233
L65452 58176
L65565 58120
L65790 58120
L65902 58176
L65958 58233
L66015 58345
L66015 58401
L65958 58514
L65902 58570
L65790 58626
L65565 58626
L65452 58682
L65396 58739
L65340 58851
L65340 59076
L65396 59189
L65452 59245
L65565 59301
L65790 59301
L65902 59245
L65958 59189
L66015 59076
L66015 58851
L65958 58739
L65902 58682
L65790 58626
" />
<path d="M67421 59301
L67421 58120
" />
<path d="M67927 59301
L67927 58682
L67871 58570
L67758 58514
L67590 58514
L67477 58570
L67421 58626
" />
<path d="M68658 59301
L68546 59245
L68489 59189
L68433 59076
L68433 58739
L68489 58626
L68546 58570
L68658 58514
L68827 58514
L68939 58570
L68996 58626
L69052 58739
L69052 59076
L68996 59189
L68939 59245
L68827 59301
L68658 59301
" />
<path d="M69727 59301
L69614 59245
L69558 59132
L69558 58120
" />
<path d="M70627 59245
L70514 59301
L70289 59301
L70177 59245
L70120 59132
L70120 58682
L70177 58570
L70289 58514
L70514 58514
L70627 58570
L70683 58682
L70683 58795
L70120 58907
" />
<path d="M71133 59245
L71245 59301
L71470 59301
L71583 59245
L71639 59132
L71639 59076
L71583 58964
L71470 58907
L71302 58907
L71189 58851
L71133 58739
L71133 58682
L71189 58570
L71302 58514
L71470 58514
L71583 58570
" />
<path d="M72033 59751
L72089 59695
L72201 59526
L72258 59414
L72314 59245
L72370 58964
L72370 58739
L72314 58457
L72258 58289
L72201 58176
L72089 58008
L72033 57951
" />
<polyline fill="none;"
points="45372,60465
45372,60187
45094,60187
45094,60465
45372,60465
" /> 
<path d="M47117 60860
L46442 60860
" />
<path d="M46780 60860
L46780 59679
L46667 59848
L46555 59960
L46442 60017
" />
<path d="M47623 60748
L47680 60804
L47623 60860
L47567 60804
L47623 60748
L47623 60860
" />
<path d="M48411 59679
L48523 59679
L48636 59735
L48692 59792
L48748 59904
L48804 60129
L48804 60410
L48748 60635
L48692 60748
L48636 60804
L48523 60860
L48411 60860
L48298 60804
L48242 60748
L48186 60635
L48129 60410
L48129 60129
L48186 59904
L48242 59792
L48298 59735
L48411 59679
" />
<path d="M49536 59679
L49648 59679
L49761 59735
L49817 59792
L49873 59904
L49929 60129
L49929 60410
L49873 60635
L49817 60748
L49761 60804
L49648 60860
L49536 60860
L49423 60804
L49367 60748
L49311 60635
L49254 60410
L49254 60129
L49311 59904
L49367 59792
L49423 59735
L49536 59679
" />
<path d="M50435 60860
L50435 60073
" />
<path d="M50435 60185
L50492 60129
L50604 60073
L50773 60073
L50885 60129
L50942 60242
L50942 60860
" />
<path d="M50942 60242
L50998 60129
L51110 60073
L51279 60073
L51392 60129
L51448 60242
L51448 60860
" />
<path d="M52010 60860
L52010 60073
" />
<path d="M52010 60185
L52066 60129
L52179 60073
L52348 60073
L52460 60129
L52516 60242
L52516 60860
" />
<path d="M52516 60242
L52573 60129
L52685 60073
L52854 60073
L52966 60129
L53023 60242
L53023 60860
" />
<path d="M55329 59623
L54316 61141
" />
<path d="M56847 59679
L56960 59679
L57072 59735
L57128 59792
L57185 59904
L57241 60129
L57241 60410
L57185 60635
L57128 60748
L57072 60804
L56960 60860
L56847 60860
L56735 60804
L56678 60748
L56622 60635
L56566 60410
L56566 60129
L56622 59904
L56678 59792
L56735 59735
L56847 59679
" />
<path d="M57747 60748
L57803 60804
L57747 60860
L57691 60804
L57747 60748
L57747 60860
" />
<path d="M58534 59679
L58647 59679
L58759 59735
L58816 59792
L58872 59904
L58928 60129
L58928 60410
L58872 60635
L58816 60748
L58759 60804
L58647 60860
L58534 60860
L58422 60804
L58366 60748
L58309 60635
L58253 60410
L58253 60129
L58309 59904
L58366 59792
L58422 59735
L58534 59679
" />
<path d="M59322 59679
L60053 59679
L59659 60129
L59828 60129
L59941 60185
L59997 60242
L60053 60354
L60053 60635
L59997 60748
L59941 60804
L59828 60860
L59491 60860
L59378 60804
L59322 60748
" />
<path d="M60615 60860
L60840 60860
L60953 60804
L61009 60748
L61122 60579
L61178 60354
L61178 59904
L61122 59792
L61065 59735
L60953 59679
L60728 59679
L60615 59735
L60559 59792
L60503 59904
L60503 60185
L60559 60298
L60615 60354
L60728 60410
L60953 60410
L61065 60354
L61122 60298
L61178 60185
" />
<path d="M61628 59679
L61628 59904
" />
<path d="M62078 59679
L62078 59904
" />
<path d="M63821 61310
L63765 61254
L63653 61085
L63596 60973
L63540 60804
L63484 60523
L63484 60298
L63540 60017
L63596 59848
L63653 59735
L63765 59567
L63821 59510
" />
<path d="M64327 60860
L64552 60860
L64665 60804
L64721 60748
L64834 60579
L64890 60354
L64890 59904
L64834 59792
L64777 59735
L64665 59679
L64440 59679
L64327 59735
L64271 59792
L64215 59904
L64215 60185
L64271 60298
L64327 60354
L64440 60410
L64665 60410
L64777 60354
L64834 60298
L64890 60185
" />
<path d="M65565 60185
L65452 60129
L65396 60073
L65340 59960
L65340 59904
L65396 59792
L65452 59735
L65565 59679
L65790 59679
L65902 59735
L65958 59792
L66015 59904
L66015 59960
L65958 60073
L65902 60129
L65790 60185
L65565 60185
L65452 60242
L65396 60298
L65340 60410
L65340 60635
L65396 60748
L65452 60804
L65565 60860
L65790 60860
L65902 60804
L65958 60748
L66015 60635
L66015 60410
L65958 60298
L65902 60242
L65790 60185
" />
<path d="M67421 60860
L67421 59679
" />
<path d="M67927 60860
L67927 60242
L67871 60129
L67758 60073
L67590 60073
L67477 60129
L67421 60185
" />
<path d="M68658 60860
L68546 60804
L68489 60748
L68433 60635
L68433 60298
L68489 60185
L68546 60129
L68658 60073
L68827 60073
L68939 60129
L68996 60185
L69052 60298
L69052 60635
L68996 60748
L68939 60804
L68827 60860
L68658 60860
" />
<path d="M69727 60860
L69614 60804
L69558 60691
L69558 59679
" />
<path d="M70627 60804
L70514 60860
L70289 60860
L70177 60804
L70120 60691
L70120 60242
L70177 60129
L70289 60073
L70514 60073
L70627 60129
L70683 60242
L70683 60354
L70120 60466
" />
<path d="M71133 60804
L71245 60860
L71470 60860
L71583 60804
L71639 60691
L71639 60635
L71583 60523
L71470 60466
L71302 60466
L71189 60410
L71133 60298
L71133 60242
L71189 60129
L71302 60073
L71470 60073
L71583 60129
" />
<path d="M73045 60410
L73945 60410
" />
<path d="M73495 60860
L73495 59960
" />
<path d="M75295 59679
L76026 59679
L75632 60129
L75801 60129
L75914 60185
L75970 60242
L76026 60354
L76026 60635
L75970 60748
L75914 60804
L75801 60860
L75464 60860
L75351 60804
L75295 60748
" />
<path d="M77376 60804
L77488 60860
L77713 60860
L77826 60804
L77882 60691
L77882 60635
L77826 60523
L77713 60466
L77545 60466
L77432 60410
L77376 60298
L77376 60242
L77432 60129
L77545 60073
L77713 60073
L77826 60129
" />
<path d="M78557 60860
L78444 60804
L78388 60691
L78388 59679
" />
<path d="M79176 60860
L79063 60804
L79007 60748
L78951 60635
L78951 60298
L79007 60185
L79063 60129
L79176 60073
L79344 60073
L79457 60129
L79513 60185
L79569 60298
L79569 60635
L79513 60748
L79457 60804
L79344 60860
L79176 60860
" />
<path d="M79907 60073
L80357 60073
" />
<path d="M80075 59679
L80075 60691
L80132 60804
L80244 60860
L80357 60860
" />
<path d="M80694 60804
L80807 60860
L81032 60860
L81144 60804
L81200 60691
L81200 60635
L81144 60523
L81032 60466
L80863 60466
L80750 60410
L80694 60298
L80694 60242
L80750 60129
L80863 60073
L81032 60073
L81144 60129
" />
<path d="M81594 61310
L81650 61254
L81763 61085
L81819 60973
L81875 60804
L81932 60523
L81932 60298
L81875 60017
L81819 59848
L81763 59735
L81650 59567
L81594 59510
" />
<polyline fill="none;"
points="45174,62141
45430,61885
45174,61629
44918,61885
45174,62141
" /> 
<path d="M47117 62419
L46442 62419
" />
<path d="M46780 62419
L46780 61238
L46667 61407
L46555 61519
L46442 61576
" />
<path d="M47623 62307
L47680 62363
L47623 62419
L47567 62363
L47623 62307
L47623 62419
" />
<path d="M48073 61238
L48804 61238
L48411 61688
L48579 61688
L48692 61744
L48748 61801
L48804 61913
L48804 62194
L48748 62307
L48692 62363
L48579 62419
L48242 62419
L48129 62363
L48073 62307
" />
<path d="M49536 61238
L49648 61238
L49761 61294
L49817 61351
L49873 61463
L49929 61688
L49929 61969
L49873 62194
L49817 62307
L49761 62363
L49648 62419
L49536 62419
L49423 62363
L49367 62307
L49311 62194
L49254 61969
L49254 61688
L49311 61463
L49367 61351
L49423 61294
L49536 61238
" />
<path d="M50435 62419
L50435 61632
" />
<path d="M50435 61744
L50492 61688
L50604 61632
L50773 61632
L50885 61688
L50942 61801
L50942 62419
" />
<path d="M50942 61801
L50998 61688
L51110 61632
L51279 61632
L51392 61688
L51448 61801
L51448 62419
" />
<path d="M52010 62419
L52010 61632
" />
<path d="M52010 61744
L52066 61688
L52179 61632
L52348 61632
L52460 61688
L52516 61801
L52516 62419
" />
<path d="M52516 61801
L52573 61688
L52685 61632
L52854 61632
L52966 61688
L53023 61801
L53023 62419
" />
<path d="M55329 61182
L54316 62700
" />
<path d="M56847 61238
L56960 61238
L57072 61294
L57128 61351
L57185 61463
L57241 61688
L57241 61969
L57185 62194
L57128 62307
L57072 62363
L56960 62419
L56847 62419
L56735 62363
L56678 62307
L56622 62194
L56566 61969
L56566 61688
L56622 61463
L56678 61351
L56735 61294
L56847 61238
" />
<path d="M57747 62307
L57803 62363
L57747 62419
L57691 62363
L57747 62307
L57747 62419
" />
<path d="M58534 61238
L58647 61238
L58759 61294
L58816 61351
L58872 61463
L58928 61688
L58928 61969
L58872 62194
L58816 62307
L58759 62363
L58647 62419
L58534 62419
L58422 62363
L58366 62307
L58309 62194
L58253 61969
L58253 61688
L58309 61463
L58366 61351
L58422 61294
L58534 61238
" />
<path d="M59997 61238
L59434 61238
L59378 61801
L59434 61744
L59547 61688
L59828 61688
L59941 61744
L59997 61801
L60053 61913
L60053 62194
L59997 62307
L59941 62363
L59828 62419
L59547 62419
L59434 62363
L59378 62307
" />
<path d="M61178 62419
L60503 62419
" />
<path d="M60840 62419
L60840 61238
L60728 61407
L60615 61519
L60503 61576
" />
<path d="M61628 61238
L61628 61463
" />
<path d="M62078 61238
L62078 61463
" />
<path d="M63821 62869
L63765 62813
L63653 62644
L63596 62532
L63540 62363
L63484 62082
L63484 61857
L63540 61576
L63596 61407
L63653 61294
L63765 61126
L63821 61069
" />
<path d="M64159 61238
L64890 61238
L64496 61688
L64665 61688
L64777 61744
L64834 61801
L64890 61913
L64890 62194
L64834 62307
L64777 62363
L64665 62419
L64327 62419
L64215 62363
L64159 62307
" />
<path d="M66296 62419
L66296 61238
" />
<path d="M66802 62419
L66802 61801
L66746 61688
L66633 61632
L66465 61632
L66352 61688
L66296 61744
" />
<path d="M67533 62419
L67421 62363
L67365 62307
L67308 62194
L67308 61857
L67365 61744
L67421 61688
L67533 61632
L67702 61632
L67815 61688
L67871 61744
L67927 61857
L67927 62194
L67871 62307
L67815 62363
L67702 62419
L67533 62419
" />
<path d="M68602 62419
L68489 62363
L68433 62251
L68433 61238
" />
<path d="M69502 62363
L69389 62419
L69164 62419
L69052 62363
L68996 62251
L68996 61801
L69052 61688
L69164 61632
L69389 61632
L69502 61688
L69558 61801
L69558 61913
L68996 62026
" />
<path d="M70008 62363
L70120 62419
L70345 62419
L70458 62363
L70514 62251
L70514 62194
L70458 62082
L70345 62026
L70177 62026
L70064 61969
L70008 61857
L70008 61801
L70064 61688
L70177 61632
L70345 61632
L70458 61688
" />
<path d="M70908 62869
L70964 62813
L71077 62644
L71133 62532
L71189 62363
L71245 62082
L71245 61857
L71189 61576
L71133 61407
L71077 61294
L70964 61126
L70908 61069
" />
</g> 
</svg>
