G04 CAM350 V9.5.1 (Build 211) Date:  Tue May 10 22:49:43 2016 *
G04 Database: (Untitled) *
G04 Layer 1: canduino-B_Cu.g *
%FSLAX46Y46*%
%MOMM*%
%SFA1.000B1.000*%

%MIA0B0*%
%IPPOS*%
%ADD10C,0.25400*%
%ADD11O,1.52400X2.19964*%
%ADD12O,1.52400X2.19710*%
%ADD13O,4.00050X1.99898*%
%ADD14O,1.99898X4.00050*%
%ADD15O,1.99898X4.50088*%
%ADD16R,1.99898X1.52400*%
%ADD17O,1.99898X1.52400*%
%ADD18C,1.99898*%
%ADD19C,2.50000*%
%ADD20C,1.52400*%
%ADD21R,1.52400X2.19964*%
%ADD22C,0.68080*%
%ADD23C,0.20320*%
%ADD24C,0.50800*%
%ADD25C,0.38100*%
%LNcanduino-B_Cu.g*%
%LPD*%
G36*
X179929190Y-131014000D02*
G01X130729538Y-131013898D01*
X131343782Y-130400714*
X131684620Y-129579946*
X131684630Y-129579896*
X131685416Y-128691242*
X131685406Y-128691194*
X131346058Y-127869896*
X131346030Y-127869854*
X130718214Y-127240918*
X129897446Y-126900080*
X129897396Y-126900070*
X129008696Y-126899296*
X129008648Y-126899306*
X128187316Y-127238694*
X128187274Y-127238722*
X127558336Y-127866606*
X127217570Y-128687302*
X127217560Y-128687352*
X127216798Y-129576004*
X127216808Y-129576052*
X127556194Y-130397384*
X127556222Y-130397426*
X128171564Y-131014000*
X124390998Y-131013874*
X125004658Y-130841464*
X125004704Y-130841440*
X125507388Y-130445972*
X125820536Y-129888168*
X125851472Y-129760408*
X125851464Y-129760324*
X125732186Y-129507102*
X125732152Y-129507058*
X125732104Y-129507018*
X125732022Y-129506988*
X123388322Y-129507008*
X123388256Y-129507026*
X123388200Y-129507060*
X123388146Y-129507124*
X123388128Y-129507170*
X123388120Y-129507216*
X123388080Y-129526924*
X123388036Y-129526970*
X123387994Y-129526980*
X123134210Y-129526950*
X123134152Y-129526924*
X123134092Y-129507182*
X123134074Y-129507116*
X123134040Y-129507060*
X123133976Y-129507006*
X123133930Y-129506988*
X123133884Y-129506980*
X120790222Y-129506996*
X120790150Y-129507018*
X120790072Y-129507072*
X120790028Y-129507124*
X120670776Y-129760344*
X120670768Y-129760428*
X120701712Y-129888186*
X121014870Y-130445990*
X121517552Y-130841448*
X121517598Y-130841472*
X122131226Y-131014000*
X116869784Y-131013986*
X116869740Y-131013968*
X116128030Y-130272278*
X116128000Y-128999626*
Y-91616690*
X116128014Y-79658784*
X116128032Y-79658740*
X116742736Y-79044024*
X129391774Y-79044102*
X128828336Y-79606606*
X128487570Y-80427302*
X128487560Y-80427352*
X128486798Y-81316004*
X128486808Y-81316052*
X128826194Y-82137384*
X128826222Y-82137426*
X129454106Y-82766364*
X130274802Y-83107130*
X130274852Y-83107140*
X131163458Y-83107914*
X131163506Y-83107904*
X131984804Y-82768558*
X131984846Y-82768530*
X132613782Y-82140714*
X132914508Y-81417060*
X132986456Y-81778726*
X132986476Y-81778774*
X133227182Y-82139106*
X130797128Y-84569174*
X130637478Y-84808128*
X130637458Y-84808176*
X130581400Y-85090042*
X130581220Y-88391504*
X129718142Y-87528372*
X129753208Y-87443910*
X129753218Y-87443860*
X129753568Y-87055882*
X129753558Y-87055834*
X129605406Y-86697264*
X129605378Y-86697222*
X129331284Y-86422626*
X128972910Y-86273792*
X128972860Y-86273782*
X128584834Y-86273444*
X128584786Y-86273454*
X128226184Y-86421646*
X128226142Y-86421674*
X127951542Y-86695836*
X127802780Y-87054138*
X127802770Y-87054188*
X127802446Y-87442166*
X127802456Y-87442214*
X127950646Y-87800816*
X127950674Y-87800858*
X128170288Y-88020868*
X128257182Y-88150884*
X128456484Y-88350290*
X128387252Y-88419340*
X128115110Y-88473486*
X128115062Y-88473506*
X127876116Y-88633180*
X126987128Y-89522174*
X126827478Y-89761128*
X126827458Y-89761176*
X126771400Y-90043042*
X126771406Y-93980042*
X126827486Y-94261890*
X126827506Y-94261938*
X126987182Y-94500884*
X127548756Y-95062498*
X127548764Y-95062540*
X127548446Y-95443166*
X127548456Y-95443214*
X127696646Y-95801816*
X127696674Y-95801858*
X127970838Y-96076458*
X128329138Y-96225220*
X128329188Y-96225230*
X128717118Y-96225566*
X128717166Y-96225556*
X129075736Y-96077406*
X129075778Y-96077378*
X129350374Y-95803282*
X129499208Y-95444910*
X129499218Y-95444860*
X129499568Y-95056882*
X129499558Y-95056834*
X129351406Y-94698264*
X129351378Y-94698222*
X129077282Y-94423626*
X128933734Y-94363988*
X128255364Y-93685498*
X128336118Y-93685566*
X128336166Y-93685556*
X128694736Y-93537406*
X128694778Y-93537378*
X128969374Y-93263282*
X129118208Y-92904910*
X129118218Y-92904860*
X129118438Y-92783836*
X130689412Y-94354636*
X130977808Y-94547320*
X130977856Y-94547340*
X131318042Y-94615000*
X131698944Y-94615040*
X131698990Y-94615084*
X131699000Y-94615126*
X131698980Y-96659768*
X131698950Y-96659814*
X127641364Y-100717412*
X127448680Y-101005808*
X127448660Y-101005856*
X127381000Y-101346042*
X127381006Y-106680042*
X127448688Y-107020212*
X127448708Y-107020260*
X127641418Y-107308648*
X134873992Y-114541260*
X134874000Y-114541302*
X134874006Y-119761042*
X134941688Y-120101212*
X134941708Y-120101260*
X135134418Y-120389648*
X137135764Y-122391030*
X137221646Y-122598816*
X137221674Y-122598858*
X137495838Y-122873458*
X137854138Y-123022220*
X137854188Y-123022230*
X138242118Y-123022566*
X138242166Y-123022556*
X138600736Y-122874406*
X138600778Y-122874378*
X138875374Y-122600282*
X139024208Y-122241910*
X139024218Y-122241860*
X139024568Y-121853882*
X139024558Y-121853834*
X138876406Y-121495264*
X138876378Y-121495222*
X138602284Y-121220626*
X138392940Y-121133668*
X136652024Y-119392764*
X136652000Y-114173030*
X136584334Y-113832840*
X136584314Y-113832792*
X136391630Y-113544406*
X129159024Y-106311764*
X129159000Y-103066694*
X129159014Y-101714284*
X129159032Y-101714240*
X133216588Y-97656642*
X133409302Y-97368244*
X133409322Y-97368196*
X133476994Y-97028030*
X133477006Y-94128560*
X133549216Y-93954662*
X133549294Y-93954610*
X133679894Y-93954620*
X133679940Y-93954650*
X133883392Y-94158134*
X133883400Y-94158176*
X133883406Y-96647042*
X133939486Y-96928890*
X133939506Y-96928938*
X134099182Y-97167884*
X134406534Y-97475276*
X134406542Y-97475318*
X134406446Y-97602166*
X134406456Y-97602214*
X134554646Y-97960816*
X134554674Y-97960858*
X134828838Y-98235458*
X134881860Y-98257540*
X134787780Y-98484138*
X134787770Y-98484188*
X134787446Y-98872166*
X134787456Y-98872214*
X134935646Y-99230816*
X134935674Y-99230858*
X135026392Y-99321766*
X135026400Y-99321808*
X135026406Y-99949042*
X135082486Y-100230890*
X135082506Y-100230938*
X135242182Y-100469884*
X135880524Y-101108390*
X135693308Y-101108240*
X135693260Y-101108250*
X135092328Y-101356570*
X135092286Y-101356598*
X134632118Y-101816004*
X134382804Y-102416460*
X134382794Y-102416510*
X134382240Y-103066692*
X134382250Y-103066740*
X134630570Y-103667672*
X134630598Y-103667714*
X135090006Y-104127882*
X135690462Y-104377196*
X135690512Y-104377206*
X136340644Y-104377772*
X136340692Y-104377762*
X136804400Y-104186426*
X136804380Y-105402098*
X136804350Y-105402142*
X136714542Y-105491836*
X136565780Y-105850138*
X136565770Y-105850188*
X136565446Y-106238166*
X136565456Y-106238214*
X136713646Y-106596816*
X136713674Y-106596858*
X136987838Y-106871458*
X137346138Y-107020220*
X137346188Y-107020230*
X137734118Y-107020566*
X137734166Y-107020556*
X138092736Y-106872406*
X138092778Y-106872378*
X138284312Y-106681260*
X138489138Y-106766220*
X138489188Y-106766230*
X138877118Y-106766566*
X138877166Y-106766556*
X139235736Y-106618406*
X139235778Y-106618378*
X139427312Y-106427260*
X139632138Y-106512220*
X139632188Y-106512230*
X140020118Y-106512566*
X140020166Y-106512556*
X140378736Y-106364406*
X140378778Y-106364378*
X140653374Y-106090282*
X140802208Y-105731910*
X140802218Y-105731860*
X140802568Y-105343882*
X140802558Y-105343834*
X140654406Y-104985264*
X140654378Y-104985222*
X140563624Y-104894256*
X140563600Y-101600030*
X140507534Y-101318160*
X140507514Y-101318112*
X140347868Y-101079168*
X138531624Y-99262890*
X138531600Y-96139030*
X138475534Y-95857160*
X138475514Y-95857112*
X138315868Y-95618168*
X136753624Y-94055890*
X136753600Y-93726030*
X136697534Y-93444160*
X136697514Y-93444112*
X136537868Y-93205168*
X135140880Y-91808174*
X134901924Y-91648498*
X134901876Y-91648478*
X134620030Y-91592406*
X133782158Y-91592386*
X133782114Y-91592368*
X132816624Y-90626890*
X132816614Y-85776158*
X132816632Y-85776114*
X136147870Y-82444912*
X136282506Y-82534764*
X136282554Y-82534784*
X136817112Y-82641106*
X137351664Y-82534776*
X137351712Y-82534756*
X137804874Y-82231976*
X138088472Y-81807890*
X138371878Y-82231988*
X138825046Y-82534764*
X138825094Y-82534784*
X139359652Y-82641106*
X139684294Y-82576558*
X139684366Y-82576586*
X140686666Y-83578872*
X140925620Y-83738522*
X140925668Y-83738542*
X141207538Y-83794600*
X143204894Y-83794620*
X143204940Y-83794650*
X146291176Y-86880872*
X146530130Y-87040522*
X146530178Y-87040542*
X146812042Y-87096600*
X151586894Y-87096620*
X151586940Y-87096650*
X153403176Y-88912872*
X153642130Y-89072522*
X153642178Y-89072542*
X153924042Y-89128600*
X161365894Y-89128620*
X161365940Y-89128650*
X161546856Y-89309594*
X161605646Y-89451816*
X161605674Y-89451858*
X161879838Y-89726458*
X162238138Y-89875220*
X162238188Y-89875230*
X162458344Y-89875462*
X162458390Y-89875506*
X162458400Y-89875548*
X162458380Y-90626894*
X162458350Y-90626940*
X156451128Y-96634174*
X156291478Y-96873128*
X156291458Y-96873176*
X156235400Y-97155042*
X156235380Y-106628894*
X156235350Y-106628940*
X155435128Y-107429174*
X155275478Y-107668128*
X155275458Y-107668176*
X155219400Y-107950042*
X155219380Y-109720098*
X155219350Y-109720142*
X155129542Y-109809836*
X154980780Y-110168138*
X154980770Y-110168188*
X154980446Y-110556166*
X154980456Y-110556214*
X155128646Y-110914816*
X155128674Y-110914858*
X155402838Y-111189458*
X155761138Y-111338220*
X155761188Y-111338230*
X156149118Y-111338566*
X156149166Y-111338556*
X156366532Y-111248874*
X156436208Y-111318628*
X156794508Y-111467390*
X156794558Y-111467400*
X157182488Y-111467738*
X157182536Y-111467728*
X157541106Y-111319576*
X157541148Y-111319548*
X157815744Y-111045454*
X157964578Y-110687080*
X157964588Y-110687030*
X157964938Y-110299052*
X157964928Y-110299004*
X157859642Y-110043996*
X158158736Y-109920406*
X158158778Y-109920378*
X158433374Y-109646282*
X158582208Y-109287910*
X158582218Y-109287860*
X158582356Y-109159416*
X158582374Y-109159372*
X159016826Y-108724878*
X159176502Y-108485922*
X159176522Y-108485874*
X159232594Y-108204030*
X159232614Y-97714158*
X159232632Y-97714114*
X159664400Y-97282616*
X159664380Y-108958098*
X159664350Y-108958142*
X159574542Y-109047836*
X159425780Y-109406138*
X159425770Y-109406188*
X159425446Y-109794166*
X159425456Y-109794214*
X159555634Y-110109328*
X159555628Y-110109394*
X159425780Y-110422138*
X159425770Y-110422188*
X159425446Y-110810166*
X159425456Y-110810214*
X159547866Y-111106584*
X159547850Y-111106660*
X159447542Y-111206836*
X159298780Y-111565138*
X159298770Y-111565188*
X159298446Y-111953166*
X159298456Y-111953214*
X159446646Y-112311816*
X159446674Y-112311858*
X159720838Y-112586458*
X160079138Y-112735220*
X160079188Y-112735230*
X160467118Y-112735566*
X160467166Y-112735556*
X160595696Y-112682592*
X160222866Y-113055392*
X160222824Y-113055400*
X157995954Y-113055386*
X157995910Y-113055368*
X157906284Y-112965626*
X157547910Y-112816792*
X157547860Y-112816782*
X157159834Y-112816444*
X157159786Y-112816454*
X156801184Y-112964646*
X156801142Y-112964674*
X156526542Y-113238836*
X156377780Y-113597138*
X156377770Y-113597188*
X156377402Y-113813068*
X156089496Y-113525174*
X155850540Y-113365498*
X155850492Y-113365478*
X155586496Y-113312946*
X155493284Y-113219626*
X155134910Y-113070792*
X155134860Y-113070782*
X154746834Y-113070444*
X154746786Y-113070454*
X154388184Y-113218646*
X154388142Y-113218674*
X154113542Y-113492836*
X154076624Y-113581362*
X153842284Y-113346626*
X153483910Y-113197792*
X153483860Y-113197782*
X153095834Y-113197444*
X153095786Y-113197454*
X152737184Y-113345646*
X152737142Y-113345674*
X152463276Y-113618978*
X152191284Y-113346626*
X151832910Y-113197792*
X151832860Y-113197782*
X151444834Y-113197444*
X151444786Y-113197454*
X151086184Y-113345646*
X151086142Y-113345674*
X150875886Y-113555478*
X150667284Y-113346626*
X150308910Y-113197792*
X150308860Y-113197782*
X149920834Y-113197444*
X149920786Y-113197454*
X149562184Y-113345646*
X149562142Y-113345674*
X149288276Y-113618978*
X149016284Y-113346626*
X148657910Y-113197792*
X148657860Y-113197782*
X148269834Y-113197444*
X148269786Y-113197454*
X147911184Y-113345646*
X147911142Y-113345674*
X147675308Y-113580976*
X147639406Y-113494264*
X147639378Y-113494222*
X147365284Y-113219626*
X147006910Y-113070792*
X147006860Y-113070782*
X146618834Y-113070444*
X146618786Y-113070454*
X146260184Y-113218646*
X146260142Y-113218674*
X145986276Y-113491978*
X145714284Y-113219626*
X145355910Y-113070792*
X145355860Y-113070782*
X144967834Y-113070444*
X144967786Y-113070454*
X144609184Y-113218646*
X144609142Y-113218674*
X144334542Y-113492836*
X144185780Y-113851138*
X144185770Y-113851188*
X144185446Y-114239166*
X144185456Y-114239214*
X144333646Y-114597816*
X144333674Y-114597858*
X144424392Y-114688766*
X144424400Y-114688808*
X144424406Y-116713042*
X144480486Y-116994890*
X144480506Y-116994938*
X144640182Y-117233884*
X149593176Y-122186872*
X149832130Y-122346522*
X149832178Y-122346542*
X150114042Y-122402600*
X156158894Y-122402620*
X156158940Y-122402650*
X157708134Y-123952000*
X153403284Y-123951986*
X153403240Y-123951968*
X152901642Y-123450412*
X152613244Y-123257698*
X152613196Y-123257678*
X152273030Y-123190006*
X152167560Y-123189994*
X151959910Y-123103792*
X151959860Y-123103782*
X151571834Y-123103444*
X151571786Y-123103454*
X151213184Y-123251646*
X151213142Y-123251674*
X150938542Y-123525836*
X150789780Y-123884138*
X150789770Y-123884188*
X150789446Y-124272166*
X150789456Y-124272214*
X150937646Y-124630816*
X150937674Y-124630858*
X151084138Y-124777674*
X150941912Y-124919568*
X143764024Y-117741764*
X143764006Y-116607560*
X143850208Y-116399910*
X143850218Y-116399860*
X143850568Y-116011882*
X143850558Y-116011834*
X143702406Y-115653264*
X143702378Y-115653222*
X143428284Y-115378626*
X143069910Y-115229792*
X143069860Y-115229782*
X142681834Y-115229444*
X142681786Y-115229454*
X142341714Y-115369874*
X142341614Y-114478158*
X142341632Y-114478114*
X143141826Y-113677878*
X143301502Y-113438922*
X143301522Y-113438874*
X143357594Y-113157030*
X143357614Y-107366158*
X143357632Y-107366114*
X145554826Y-105168878*
X145714502Y-104929922*
X145714522Y-104929874*
X145770594Y-104648030*
X145770614Y-101861954*
X145770632Y-101861910*
X145860374Y-101772282*
X146009208Y-101413910*
X146009218Y-101413860*
X146009568Y-101025882*
X146009558Y-101025834*
X145861406Y-100667264*
X145861378Y-100667222*
X145587284Y-100392626*
X145228910Y-100243792*
X145228860Y-100243782*
X144840834Y-100243444*
X144840786Y-100243454*
X144482184Y-100391646*
X144482142Y-100391674*
X144207542Y-100665836*
X144058780Y-101024138*
X144058770Y-101024188*
X144058446Y-101412166*
X144058456Y-101412214*
X144206646Y-101770816*
X144206674Y-101770858*
X144297392Y-101861766*
X144297400Y-101861808*
X144297380Y-104342894*
X144297350Y-104342940*
X143510078Y-105130062*
X143510000Y-101981030*
X143442334Y-101640840*
X143442314Y-101640792*
X143249630Y-101352406*
X142326450Y-100429188*
X142326568Y-100263882*
X142326558Y-100263834*
X142178406Y-99905264*
X142178378Y-99905222*
X141904284Y-99630626*
X141545910Y-99481792*
X141545860Y-99481782*
X141157834Y-99481444*
X141157786Y-99481454*
X140799184Y-99629646*
X140799142Y-99629674*
X140524542Y-99903836*
X140375780Y-100262138*
X140375770Y-100262188*
X140375446Y-100650166*
X140375456Y-100650214*
X140519034Y-100997746*
X140529688Y-101051214*
X140529708Y-101051260*
X140722418Y-101339648*
X141731992Y-102349260*
X141732000Y-102349302*
X141731980Y-105422768*
X141731950Y-105422814*
X140722364Y-106432412*
X140529680Y-106720808*
X140529660Y-106720856*
X140462000Y-107061042*
X140461976Y-110468512*
X140375780Y-110676138*
X140375770Y-110676188*
X140375446Y-111064166*
X140375456Y-111064214*
X140462000Y-111273734*
X140461980Y-112534768*
X140461950Y-112534814*
X140117970Y-112878764*
X139910184Y-112964646*
X139910142Y-112964674*
X139635542Y-113238836*
X139486780Y-113597138*
X139486770Y-113597188*
X139486446Y-113985166*
X139486456Y-113985214*
X139573000Y-114194734*
X139573006Y-118364042*
X139640688Y-118704212*
X139640708Y-118704260*
X139833418Y-118992648*
X145072092Y-124231360*
X145072100Y-124231402*
X145072048Y-127707934*
X145072022Y-127707984*
X144973224Y-127774030*
X144691106Y-128196114*
X144408964Y-127774018*
X143955748Y-127471160*
X143955700Y-127471140*
X143421140Y-127364800*
X143421092*
X142886486Y-127471148*
X142886438Y-127471168*
X142433224Y-127774030*
X142130448Y-128227198*
X142130428Y-128227246*
X142024100Y-128761836*
X142024106Y-129505448*
X142130456Y-130040022*
X142130476Y-130040070*
X142433338Y-130493282*
X142886506Y-130796058*
X142886554Y-130796078*
X143421112Y-130902402*
X143955664Y-130796070*
X143955712Y-130796050*
X144408874Y-130493270*
X144691202Y-130071086*
X144973338Y-130493282*
X145426506Y-130796058*
X145426554Y-130796078*
X145961112Y-130902402*
X146495664Y-130796070*
X146495712Y-130796050*
X146948874Y-130493270*
X147231202Y-130071086*
X147513338Y-130493282*
X147966506Y-130796058*
X147966554Y-130796078*
X148501112Y-130902402*
X149035664Y-130796070*
X149035712Y-130796050*
X149488874Y-130493270*
X149771202Y-130071086*
X150053338Y-130493282*
X150506506Y-130796058*
X150506554Y-130796078*
X151041112Y-130902402*
X151575664Y-130796070*
X151575712Y-130796050*
X152028874Y-130493270*
X152311202Y-130071086*
X152593338Y-130493282*
X153046506Y-130796058*
X153046554Y-130796078*
X153581112Y-130902402*
X154115664Y-130796070*
X154115712Y-130796050*
X154568874Y-130493270*
X154859820Y-130058234*
X154879054Y-130123366*
X154879076Y-130123410*
X155223152Y-130549092*
X155703884Y-130810692*
X155778050Y-130825614*
X155778114Y-130825598*
X155993994Y-130703190*
X155994070Y-130703102*
X155994094Y-130703028*
X155994092Y-129260802*
X155994074Y-129260736*
X155994040Y-129260680*
X155993976Y-129260626*
X155993930Y-129260608*
X155993884Y-129260600*
X155974190Y-129260570*
X155974132Y-129260544*
X155974130Y-129006690*
X155974156Y-129006632*
X155993898Y-129006572*
X155993964Y-129006554*
X155994020Y-129006520*
X155994074Y-129006456*
X155994092Y-129006410*
X155994100Y-129006364*
X155994130Y-128986690*
X155994156Y-128986632*
X156248044Y-128986640*
X156248090Y-128986684*
X156248100Y-128986726*
X156248128Y-129006398*
X156248146Y-129006464*
X156248180Y-129006520*
X156248244Y-129006574*
X156248290Y-129006592*
X156248336Y-129006600*
X158533898Y-129006572*
X158533964Y-129006554*
X158534020Y-129006520*
X158534074Y-129006456*
X158534092Y-129006410*
X158534100Y-129006364*
X158534098Y-127564178*
X158534086Y-127564126*
X158534062Y-127564072*
X158534010Y-127564012*
X158385192Y-127479518*
X158582160Y-127440332*
X158582208Y-127440312*
X158708982Y-127355630*
X161873894Y-127355620*
X161873940Y-127355650*
X162420176Y-127901872*
X162659130Y-128061522*
X162659178Y-128061542*
X162941042Y-128117600*
X165063590Y-128117702*
X164990448Y-128227198*
X164990428Y-128227246*
X164884100Y-128761836*
X164884106Y-129505448*
X164990456Y-130040022*
X164990476Y-130040070*
X165293338Y-130493282*
X165746506Y-130796058*
X165746554Y-130796078*
X166281112Y-130902402*
X166815664Y-130796070*
X166815712Y-130796050*
X167268874Y-130493270*
X167551202Y-130071086*
X167833338Y-130493282*
X168286506Y-130796058*
X168286554Y-130796078*
X168821112Y-130902402*
X169355664Y-130796070*
X169355712Y-130796050*
X169808874Y-130493270*
X170091202Y-130071086*
X170373338Y-130493282*
X170826506Y-130796058*
X170826554Y-130796078*
X171361112Y-130902402*
X171895664Y-130796070*
X171895712Y-130796050*
X172348874Y-130493270*
X172631202Y-130071086*
X172913338Y-130493282*
X173366506Y-130796058*
X173366554Y-130796078*
X173901112Y-130902402*
X174435664Y-130796070*
X174435712Y-130796050*
X174888874Y-130493270*
X175171202Y-130071086*
X175453338Y-130493282*
X175906506Y-130796058*
X175906554Y-130796078*
X176441112Y-130902402*
X176975664Y-130796070*
X176975712Y-130796050*
X177428874Y-130493270*
X177711202Y-130071086*
X177993338Y-130493282*
X178446506Y-130796058*
X178446554Y-130796078*
X178981112Y-130902402*
X179515664Y-130796070*
X179515712Y-130796050*
X179968874Y-130493270*
X180271732Y-130040054*
X180271752Y-130040006*
X180378094Y-129505436*
X180378100Y-128761824*
X180271764Y-128227230*
X180271744Y-128227182*
X179968964Y-127774018*
X179515748Y-127471160*
X179515700Y-127471140*
X178981140Y-127364800*
X178981092*
X178462386Y-127467850*
X179444588Y-126485642*
X179637302Y-126197244*
X179637322Y-126197196*
X179704994Y-125857030*
X179705102Y-125396606*
X180254106Y-125946364*
X181074802Y-126287130*
X181074852Y-126287140*
X181963458Y-126287914*
X181963506Y-126287904*
X182784804Y-125948558*
X182784846Y-125948530*
X183338000Y-125396674*
X183337980Y-126335268*
X183337950Y-126335314*
X180998614Y-128674662*
X180850152Y-128896876*
X180850132Y-128896924*
X180798000Y-129159042*
X180797980Y-130145268*
X180797950Y-130145314*
X179929234Y-131013982*
X179929190Y-131014000*
G37*
%LPC*%
G36*
X158788106Y-129260784D02*
G01X158788122Y-129260734D01*
X158788232Y-129260632*
X158788276Y-129260620*
X158807902Y-129260588*
X158807994Y-129260548*
X158808044Y-129260496*
X158808080Y-129260408*
X158808088Y-129006798*
X158808048Y-129006706*
X158807996Y-129006656*
X158807908Y-129006620*
X158788254Y-129006586*
X158788212Y-129006562*
X158788132Y-129006468*
X158788120Y-129006424*
X158788084Y-127564180*
X158788136Y-127564064*
X159004098Y-127441600*
X159004200Y-127441576*
X159078366Y-127456526*
X159559098Y-127718152*
X159903154Y-128143846*
X159922390Y-128208766*
X159922500Y-128208858*
X159922560Y-128208864*
X159922678Y-128208808*
X160213232Y-127774022*
X160666468Y-127471150*
X161201076Y-127364798*
X161735678Y-127471128*
X162188904Y-127773958*
X162491742Y-128227160*
X162598096Y-128761784*
X162598094Y-129505444*
X162491754Y-130040012*
X162491732Y-130040056*
X162188866Y-130493278*
X161735700Y-130796062*
X161735654Y-130796078*
X161201072Y-130902402*
X160666496Y-130796060*
X160666452Y-130796038*
X160213262Y-130493206*
X159922640Y-130058408*
X159922508Y-130058354*
X159922450Y-130058366*
X159922354Y-130058456*
X159903160Y-130123350*
X159903134Y-130123392*
X159559054Y-130549086*
X159078324Y-130810690*
X159004166Y-130825624*
X159004106Y-130825604*
X158788150Y-130703140*
X158788110Y-130703036*
X158788106Y-129260784*
G37*
G36*
X156248086D02*
G01X156248102Y-129260734D01*
X156248212Y-129260632*
X156248256Y-129260620*
X158533922Y-129260608*
X158533988Y-129260638*
X158534068Y-129260732*
X158534080Y-129260776*
X158534066Y-130703108*
X158533982Y-130703212*
X158318044Y-130825622*
X158317978Y-130825626*
X158243800Y-130810660*
X157763064Y-130549016*
X157419030Y-130123318*
X157391248Y-130029378*
X157391120Y-130029286*
X157391076Y-130029288*
X157390960Y-130029380*
X157363160Y-130123350*
X157363134Y-130123392*
X157019054Y-130549086*
X156538324Y-130810690*
X156464166Y-130825624*
X156464106Y-130825604*
X156248150Y-130703140*
X156248110Y-130703036*
X156248086Y-129260784*
G37*
G36*
X133390414Y-90109150D02*
G01X133390770Y-89721184D01*
X133390792Y-89721082*
X133539550Y-89362824*
X133814188Y-89088636*
X133814230Y-89088608*
X134172808Y-88940444*
X134560816Y-88940770*
X134560918Y-88940792*
X134768514Y-89026982*
X134768564Y-89026992*
X135000990Y-89027002*
X135341174Y-89094666*
X135629646Y-89287416*
X141668398Y-95326086*
X141668492Y-95326124*
X141668564Y-95326122*
X141668650Y-95326084*
X145009592Y-91985168*
X145096550Y-91775824*
X145371188Y-91501636*
X145371230Y-91501608*
X145578960Y-91415766*
X145579002Y-91415738*
X146310392Y-90684382*
X146598770Y-90491688*
X146938966Y-90424006*
X158093266Y-90423998*
X158093314Y-90423988*
X158302808Y-90337444*
X158690816Y-90337770*
X158690918Y-90337792*
X159049216Y-90486578*
X159323364Y-90761188*
X159323392Y-90761230*
X159471556Y-91119808*
X159471212Y-91507910*
X159322366Y-91866294*
X159047752Y-92140402*
X158689168Y-92288560*
X158689122Y-92288566*
X158301090Y-92288212*
X158093486Y-92202018*
X158093436Y-92202008*
X147307260Y-92202040*
X147307170Y-92202078*
X146836324Y-92672952*
X146749366Y-92882294*
X146561488Y-93069858*
X146551556Y-93084662*
X146536708Y-93094592*
X146474752Y-93156402*
X146394606Y-93189532*
X146263204Y-93277320*
X146263162Y-93277336*
X146224152Y-93285122*
X146224088Y-93285158*
X142645324Y-96863952*
X142558366Y-97073294*
X142283746Y-97347406*
X141925168Y-97495560*
X141925122Y-97495566*
X141537090Y-97495212*
X141178746Y-97346394*
X140991142Y-97158486*
X140976372Y-97148600*
X134672602Y-90844862*
X134672536Y-90844826*
X134672474Y-90844814*
X134672402Y-90844822*
X134559168Y-90891560*
X134559122Y-90891566*
X134171090Y-90891212*
X133812746Y-90742394*
X133538622Y-90467792*
X133390420Y-90109192*
X133390414Y-90109150*
G37*
G36*
X129302208Y-103066676D02*
G01X129302794Y-102416506D01*
X129302816Y-102416404*
X129552126Y-101815992*
X130012332Y-101356560*
X130012374Y-101356532*
X130613282Y-101108240*
X131263492Y-101108794*
X131263594Y-101108816*
X131864046Y-101358154*
X132323440Y-101818330*
X132323468Y-101818372*
X132571760Y-102419282*
X132571188Y-103069586*
X132321790Y-103670126*
X131861604Y-104129482*
X131260694Y-104377766*
X131260648Y-104377772*
X130610414Y-104377188*
X130009914Y-104127818*
X129550546Y-103667648*
X129302214Y-103066718*
X129302208Y-103066676*
G37*
G36*
X124377430Y-122771576D02*
G01X124501864Y-122146060D01*
X124856142Y-121615820*
X125386424Y-121261466*
X126011916Y-121137036*
X126637400Y-121261444*
X127167676Y-121615756*
X127521994Y-122146004*
X127646426Y-122771510*
X127646424Y-125386516*
X127522006Y-126011966*
X127521984Y-126012010*
X127167638Y-126542282*
X126637422Y-126896546*
X126637376Y-126896562*
X126011912Y-127020962*
X125386452Y-126896544*
X125386408Y-126896522*
X124856172Y-126542210*
X124501876Y-126011968*
X124501860Y-126011922*
X124377452Y-125386464*
X124377430Y-122771576*
G37*
G36*
X123388106Y-127745674D02*
G01X123388122Y-127745624D01*
X123388232Y-127745522*
X123388276Y-127745510*
X124388866Y-127745494*
X125004652Y-127918490*
X125004742Y-127918538*
X125507414Y-128314020*
X125820546Y-128871818*
X125851478Y-128999594*
X125851460Y-128999702*
X125732140Y-129252920*
X125732026Y-129252968*
X123388274Y-129252966*
X123388232Y-129252942*
X123388152Y-129252848*
X123388140Y-129252804*
X123388106Y-127745674*
G37*
G36*
X120670736Y-128999638D02*
G01X120701674Y-128871876D01*
X121014768Y-128314090*
X121517516Y-127918526*
X122133312Y-127745502*
X123133962Y-127745498*
X123134028Y-127745528*
X123134108Y-127745622*
X123134120Y-127745666*
X123134106Y-129252826*
X123134082Y-129252868*
X123133988Y-129252948*
X123133944Y-129252960*
X120790148Y-129252948*
X120790056Y-129252866*
X120670736Y-128999638*
G37*
G36*
X120136904Y-121608114D02*
G01X120136966Y-121607988D01*
X120390236Y-121488648*
X120390306Y-121488638*
X120518058Y-121519564*
X121075848Y-121832680*
X121471374Y-122335394*
X121593918Y-122771520*
X121644402Y-122951232*
X121644396Y-123951846*
X121644372Y-123951888*
X121644278Y-123951968*
X121644234Y-123951980*
X120137074Y-123951986*
X120137032Y-123951962*
X120136952Y-123951868*
X120136940Y-123951824*
X120136904Y-121608114*
G37*
G36*
X120136906Y-124206184D02*
G01X120136922Y-124206134D01*
X120137032Y-124206032*
X120137076Y-124206020*
X121644232Y-124206008*
X121644298Y-124206038*
X121644378Y-124206132*
X121644390Y-124206176*
X121644398Y-125206814*
X121471362Y-125822620*
X121075804Y-126325358*
X120518014Y-126638450*
X120390260Y-126669360*
X120390218Y-126669348*
X120136980Y-126550018*
X120136932Y-126549904*
X120136906Y-124206184*
G37*
G36*
X120321684Y-116252080D02*
G01X120321690Y-116251984D01*
X121475254Y-115098366*
X121475318Y-115098332*
X121475386Y-115098334*
X121768048Y-115227498*
X121768104Y-115227550*
X122016236Y-115826546*
X122036372Y-116576232*
X121768112Y-117276442*
X121768032Y-117276510*
X121475376Y-117405676*
X121475326Y-117405668*
X121475244Y-117405616*
X120321684Y-116252080*
G37*
G36*
X118988308Y-117585432D02*
G01X118988334Y-117585312D01*
X120141878Y-116431732*
X120141962Y-116431690*
X120142034Y-116431706*
X121295618Y-117585232*
X121295654Y-117585438*
X121166470Y-117878086*
X121166386Y-117878146*
X120567382Y-118126250*
X119817768Y-118146372*
X119117568Y-117878120*
X119117500Y-117878040*
X118988308Y-117585432*
G37*
G36*
X118375410Y-122951312D02*
G01X118548432Y-122335468D01*
X118548480Y-122335378*
X118943922Y-121832738*
X119501726Y-121519586*
X119629498Y-121488640*
X119629594Y-121488646*
X119882816Y-121607934*
X119882898Y-121608036*
X119882906Y-123951846*
X119882882Y-123951888*
X119882788Y-123951968*
X119882744Y-123951980*
X118375584Y-123951986*
X118375542Y-123951962*
X118375462Y-123951868*
X118375450Y-123951824*
X118375410Y-122951312*
G37*
G36*
X118375416Y-124206184D02*
G01X118375432Y-124206134D01*
X118375542Y-124206032*
X118375586Y-124206020*
X119882762Y-124206008*
X119882828Y-124206038*
X119882908Y-124206132*
X119882920Y-124206176*
X119882876Y-126549990*
X119882794Y-126550082*
X119629582Y-126669358*
X119629526*
X119501752Y-126638422*
X118943954Y-126325288*
X118548456Y-125822584*
X118548432Y-125822536*
X118375434Y-125206740*
X118375416Y-124206184*
G37*
G36*
X120047814Y-91616672D02*
G01X120048210Y-91185270D01*
X120048232Y-91185168*
X120213646Y-90786798*
X120519024Y-90481924*
X120519066Y-90481896*
X120917786Y-90317146*
X121349230Y-90317508*
X121349332Y-90317530*
X121747742Y-90482974*
X122052576Y-90788322*
X122052604Y-90788364*
X122217354Y-91187086*
X122216974Y-91618622*
X122051470Y-92017120*
X121746112Y-92321918*
X121347390Y-92486660*
X121347344Y-92486666*
X120915878Y-92486272*
X120517420Y-92320798*
X120212610Y-92015456*
X120047820Y-91616714*
X120047814Y-91616672*
G37*
G36*
Y-96013412D02*
G01X120048210Y-95582010D01*
X120048232Y-95581908*
X120213646Y-95183538*
X120519024Y-94878664*
X120519066Y-94878636*
X120917786Y-94713886*
X121349230Y-94714248*
X121349332Y-94714270*
X121747742Y-94879714*
X122052576Y-95185062*
X122052604Y-95185104*
X122217354Y-95583826*
X122216974Y-96015362*
X122051470Y-96413860*
X121746112Y-96718658*
X121347390Y-96883400*
X121347344Y-96883406*
X120915878Y-96883012*
X120517420Y-96717538*
X120212610Y-96412196*
X120047820Y-96013454*
X120047814Y-96013412*
G37*
G36*
X120141980Y-101355248D02*
G01X120248336Y-100820616D01*
X120551132Y-100367422*
X121004368Y-100064550*
X121538976Y-99958198*
X122073578Y-100064528*
X122526804Y-100367358*
X122676448Y-100591198*
X122676590Y-100591250*
X122676646Y-100591234*
X122676736Y-100591136*
X122719612Y-100377588*
X122719652Y-100377498*
X122862038Y-100166564*
X123074864Y-100026734*
X123316966Y-99979746*
X124840992Y-99979742*
X125090592Y-100029790*
X125090682Y-100029830*
X125301650Y-100172252*
X125441446Y-100385042*
X125488436Y-100627170*
X125488434Y-102826864*
X125438352Y-103076496*
X125295856Y-103287536*
X125083116Y-103427278*
X125083068Y-103427294*
X124840962Y-103474260*
X123316982Y-103474256*
X123067324Y-103424170*
X122856318Y-103281710*
X122716546Y-103068940*
X122716530Y-103068892*
X122676566Y-102863150*
X122676464Y-102863048*
X122676410Y-102863038*
X122676280Y-102863092*
X122526766Y-103086678*
X122073608Y-103389458*
X122073562Y-103389474*
X121538972Y-103495800*
X121004396Y-103389460*
X121004352Y-103389438*
X120551162Y-103086606*
X120248348Y-102633414*
X120248332Y-102633368*
X120142002Y-102098792*
X120141980Y-101355248*
G37*
G36*
X118256656Y-106625286D02*
G01X118257328Y-105875458D01*
X118257350Y-105875356*
X118544880Y-105182904*
X119075614Y-104653064*
X119075656Y-104653036*
X119768672Y-104366688*
X120518542Y-104367328*
X120518644Y-104367350*
X121211136Y-104654906*
X121740936Y-105185614*
X121740964Y-105185656*
X122027312Y-105878670*
X122026654Y-106628634*
X121739038Y-107321214*
X121208320Y-107850976*
X120515306Y-108137318*
X120515260Y-108137324*
X119765366Y-108136654*
X119072826Y-107849064*
X118543052Y-107318366*
X118256662Y-106625328*
X118256656Y-106625286*
G37*
G36*
Y-111625286D02*
G01X118257328Y-110875458D01*
X118257350Y-110875356*
X118544880Y-110182904*
X119075614Y-109653064*
X119075656Y-109653036*
X119768672Y-109366688*
X120518542Y-109367328*
X120518644Y-109367350*
X121211136Y-109654906*
X121740936Y-110185614*
X121740964Y-110185656*
X122027312Y-110878670*
X122026654Y-111628634*
X121739038Y-112321214*
X121208320Y-112850976*
X120515306Y-113137318*
X120515260Y-113137324*
X119765366Y-113136654*
X119072826Y-112849064*
X118543052Y-112318366*
X118256662Y-111625328*
X118256656Y-111625286*
G37*
G36*
X118988312Y-114918638D02*
G01X119117500Y-114625952D01*
X119117552Y-114625896*
X119716548Y-114377764*
X120466144Y-114357612*
X120466240Y-114357632*
X121166386Y-114625848*
X121166488Y-114625934*
X121295654Y-114918582*
X121295610Y-114918784*
X120142062Y-116072296*
X120141970Y-116072302*
X120141894Y-116072258*
X118988326Y-114918726*
X118988312Y-114918638*
G37*
G36*
X118247592Y-115927880D02*
G01X118247612Y-115927774D01*
X118515850Y-115227614*
X118515936Y-115227512*
X118808566Y-115098334*
X118808622Y-115098324*
X118808700Y-115098344*
X119962276Y-116251924*
X119962300Y-116251994*
X119962264Y-116252156*
X118808710Y-117405656*
X118808656Y-117405668*
X118808580Y-117405656*
X118515914Y-117276468*
X118515854Y-117276384*
X118267752Y-116677392*
X118247592Y-115927880*
G37*
%LPD*%
G36*
X164210542Y-125120400D02*
G01X164008122Y-125120390D01*
X162953864Y-124066154*
X162714900Y-123906482*
X162714852Y-123906462*
X162433006Y-123850402*
X161849122Y-123850390*
X160286864Y-122288154*
X160047900Y-122128482*
X160047852Y-122128462*
X159766006Y-122072402*
X158801122Y-122072390*
X158115458Y-121386600*
X160476918Y-121386628*
X164210542Y-125120400*
G37*
G36*
X180718138Y-100436768D02*
G01X180675032Y-100214894D01*
X180535252Y-100002088*
X180324224Y-99859634*
X180324178Y-99859614*
X180074578Y-99809562*
X178075572*
X177833446Y-99856554*
X177772950Y-99896226*
X177520618Y-99643892*
X177520600Y-99643848*
Y-85217006*
X177464530Y-84935132*
X177464510Y-84935084*
X177304856Y-84696148*
X175526864Y-82918154*
X175287900Y-82758482*
X175287852Y-82758462*
X175006006Y-82702402*
X165862416Y-82702296*
X165982908Y-82581818*
X165982962Y-82581806*
X166281112Y-82641110*
X166815692Y-82534772*
X166815740Y-82534752*
X167268914Y-82231948*
X167551166Y-81809738*
X167833298Y-82231960*
X168286478Y-82534760*
X168286526Y-82534780*
X168821112Y-82641110*
X169355692Y-82534772*
X169355740Y-82534752*
X169808914Y-82231948*
X170091166Y-81809738*
X170373298Y-82231960*
X170826478Y-82534760*
X170826526Y-82534780*
X171361112Y-82641110*
X171895692Y-82534772*
X171895740Y-82534752*
X172348914Y-82231948*
X172631166Y-81809738*
X172913298Y-82231960*
X173366478Y-82534760*
X173366526Y-82534780*
X173901112Y-82641110*
X174435692Y-82534772*
X174435740Y-82534752*
X174888914Y-82231948*
X175171166Y-81809738*
X175453298Y-82231960*
X175906478Y-82534760*
X175906526Y-82534780*
X176441112Y-82641110*
X176975692Y-82534772*
X176975740Y-82534752*
X177428914Y-82231948*
X177711166Y-81809738*
X177993298Y-82231960*
X178446478Y-82534760*
X178446526Y-82534780*
X178981112Y-82641110*
X179515692Y-82534772*
X179515740Y-82534752*
X179968914Y-82231948*
X180271748Y-81778734*
X180271768Y-81778686*
X180378098Y-81244118*
X180378100Y-80503094*
X180271760Y-79968496*
X180271740Y-79968448*
X179968936Y-79515274*
X179515724Y-79212440*
X179515676Y-79212420*
X178981116Y-79106092*
X178981068*
X178446510Y-79212428*
X178446462Y-79212448*
X177993252Y-79515286*
X177711070Y-79937460*
X177428936Y-79515274*
X176975724Y-79212440*
X176975676Y-79212420*
X176441116Y-79106092*
X176441068*
X175906510Y-79212428*
X175906462Y-79212448*
X175453252Y-79515286*
X175171070Y-79937460*
X174888936Y-79515274*
X174435724Y-79212440*
X174435676Y-79212420*
X173901116Y-79106092*
X173901068*
X173366510Y-79212428*
X173366462Y-79212448*
X172913252Y-79515286*
X172631070Y-79937460*
X172348936Y-79515274*
X171895724Y-79212440*
X171895676Y-79212420*
X171361116Y-79106092*
X171361068*
X170826510Y-79212428*
X170826462Y-79212448*
X170373252Y-79515286*
X170091070Y-79937460*
X169808936Y-79515274*
X169355724Y-79212440*
X169355676Y-79212420*
X168821116Y-79106092*
X168821068*
X168286510Y-79212428*
X168286462Y-79212448*
X167833252Y-79515286*
X167551070Y-79937460*
X167268936Y-79515274*
X166815724Y-79212440*
X166815676Y-79212420*
X166281116Y-79106092*
X166281068*
X165746510Y-79212428*
X165746462Y-79212448*
X165293252Y-79515286*
X165011070Y-79937460*
X164728936Y-79515274*
X164275724Y-79212440*
X164275676Y-79212420*
X163741116Y-79106092*
X163741068*
X163206510Y-79212428*
X163206462Y-79212448*
X162753252Y-79515286*
X162471070Y-79937460*
X162188936Y-79515274*
X161735724Y-79212440*
X161735676Y-79212420*
X161201116Y-79106092*
X161201068*
X160666510Y-79212428*
X160666462Y-79212448*
X160213252Y-79515286*
X159910452Y-79968464*
X159910432Y-79968512*
X159804100Y-80503106*
X159804102Y-81244130*
X159910440Y-81778702*
X159910460Y-81778750*
X159933494Y-81813400*
X158495982Y-81813402*
X158390664Y-81834246*
X158427748Y-81778734*
X158427768Y-81778686*
X158534098Y-81244118*
X158534100Y-80503094*
X158427760Y-79968496*
X158427740Y-79968448*
X158124936Y-79515274*
X157671724Y-79212440*
X157671676Y-79212420*
X157137116Y-79106092*
X157137068*
X156602510Y-79212428*
X156602462Y-79212448*
X156149252Y-79515286*
X155867070Y-79937460*
X155584936Y-79515274*
X155131724Y-79212440*
X155131676Y-79212420*
X154597116Y-79106092*
X154597068*
X154062510Y-79212428*
X154062462Y-79212448*
X153609252Y-79515286*
X153327070Y-79937460*
X153044936Y-79515274*
X152591724Y-79212440*
X152591676Y-79212420*
X152057116Y-79106092*
X152057068*
X151522510Y-79212428*
X151522462Y-79212448*
X151069252Y-79515286*
X150787070Y-79937460*
X150504936Y-79515274*
X150051724Y-79212440*
X150051676Y-79212420*
X149517116Y-79106092*
X149517068*
X148982510Y-79212428*
X148982462Y-79212448*
X148529252Y-79515286*
X148247070Y-79937460*
X147964936Y-79515274*
X147511724Y-79212440*
X147511676Y-79212420*
X146977116Y-79106092*
X146977068*
X146442510Y-79212428*
X146442462Y-79212448*
X145989252Y-79515286*
X145707070Y-79937460*
X145424936Y-79515274*
X144971724Y-79212440*
X144971676Y-79212420*
X144437116Y-79106092*
X144437068*
X143902510Y-79212428*
X143902462Y-79212448*
X143449252Y-79515286*
X143158434Y-79950348*
X143139164Y-79885130*
X143139140Y-79885082*
X142795130Y-79459434*
X142314390Y-79197800*
X142240204Y-79182842*
X142240114Y-79182860*
X142024156Y-79305312*
X142024100Y-79305426*
X142024132Y-80746484*
X142024264Y-80746600*
X142044054Y-80746632*
X142044100Y-80746690*
X142044068Y-81000554*
X142044010Y-81000600*
X142024216Y-81000632*
X142024100Y-81000764*
X142024068Y-81020554*
X142024010Y-81020600*
X141770146Y-81020568*
X141770100Y-81020510*
X141770068Y-81000716*
X141769936Y-81000600*
X141750146Y-81000568*
X141750100Y-81000510*
X141750132Y-80746646*
X141750190Y-80746600*
X141769984Y-80746568*
X141770100Y-80746436*
X141770086Y-79305390*
X141770018Y-79305278*
X141554060Y-79182854*
X141553966Y-79182840*
X141479794Y-79197806*
X140999052Y-79459452*
X140655052Y-79885096*
X140655030Y-79885140*
X140636430Y-79947728*
X140347476Y-79515274*
X139894264Y-79212440*
X139894216Y-79212420*
X139359656Y-79106092*
X139359608*
X138825050Y-79212428*
X138825002Y-79212448*
X138371792Y-79515286*
X138088340Y-79939362*
X137804936Y-79515274*
X137351724Y-79212440*
X137351676Y-79212420*
X136817116Y-79106092*
X136817068*
X136282510Y-79212428*
X136282462Y-79212448*
X135829252Y-79515286*
X135547070Y-79937460*
X135264936Y-79515274*
X134811724Y-79212440*
X134811676Y-79212420*
X134277116Y-79106092*
X134277068*
X133742510Y-79212428*
X133742462Y-79212448*
X133289252Y-79515286*
X132986452Y-79968464*
X132986432Y-79968512*
X132914144Y-80331294*
X132616040Y-79609850*
X132051338Y-79044000*
X179929292Y-79044028*
X180797982Y-79912734*
X180798000Y-79912778*
X180798002Y-91059018*
X180850144Y-91321120*
X180850164Y-91321168*
X180998648Y-91543382*
X183337982Y-93882734*
X183338000Y-93882778*
X183337872Y-94771530*
X182788178Y-94220882*
X181967422Y-93880068*
X181967372Y-93880058*
X181078710Y-93879284*
X181078664Y-93879298*
X180257310Y-94218686*
X179628356Y-94846562*
X179287570Y-95667278*
X179287560Y-95667328*
X179286786Y-96555990*
X179286800Y-96556036*
X179626186Y-97377390*
X180254062Y-98006344*
X181074778Y-98347130*
X181074828Y-98347140*
X181963492Y-98347914*
X181963538Y-98347900*
X182784850Y-98008540*
X183338000Y-97456566*
X183337872Y-100209528*
X182917056Y-99928352*
X182917008Y-99928332*
X182382438Y-99822002*
X181843390*
X181308818Y-99928340*
X181308770Y-99928360*
X180855560Y-100231198*
X180718138Y-100436768*
G37*
G54D11*
X143421100Y-129133600D03*
X145961100D03*
X148501100D03*
X151041100D03*
X153581100D03*
X156121100D03*
X158661100D03*
X161201100D03*
X166281100D03*
X168821100D03*
X171361100D03*
X173901100D03*
X176441100D03*
X178981100D03*
G54D12*
Y-80873600D03*
X176441100D03*
X173901100D03*
X171361100D03*
X168821100D03*
X166281100D03*
X163741100D03*
X161201100D03*
X157137100D03*
X154597100D03*
X152057100D03*
X149517100D03*
X146977100D03*
X144437100D03*
X141897100D03*
X139359640D03*
X136817100D03*
X134277100D03*
G54D13*
X123261120Y-129379980D03*
G54D14*
X120009920Y-124079000D03*
G54D15*
X126011940D03*
G54D16*
X179075080Y-101219000D03*
G54D17*
X182112920D03*
X179075080Y-103759000D03*
X182112920D03*
X179075080Y-106299000D03*
X182112920D03*
G54D18*
X130937000Y-102743000D03*
X136017000D03*
G54D19*
X120142000Y-116252000D03*
Y-106252000D03*
Y-111252000D03*
G54D20*
X166243000Y-118999000D03*
Y-121539000D03*
X168783000D03*
X166243000Y-124079000D03*
X168783000D03*
X171323000Y-121539000D03*
X173863000D03*
X171323000Y-124079000D03*
X173863000D03*
X166243000Y-85979000D03*
X168783000D03*
X166243000Y-88519000D03*
X168783000D03*
X166243000Y-91059000D03*
X168783000Y-91122500D03*
X166243000Y-93599000D03*
X168783000D03*
X171323000Y-85979000D03*
X173863000D03*
X171323000Y-88519000D03*
X173863000D03*
X171323000Y-91122500D03*
X173863000Y-91059000D03*
X171323000Y-93599000D03*
X173863000D03*
X176403000Y-111379000D03*
Y-113919000D03*
Y-116459000D03*
Y-118999000D03*
X178943000Y-111379000D03*
X181483000D03*
X178943000Y-113919000D03*
X181483000D03*
X178943000Y-116459000D03*
X181483000D03*
X178943000Y-118999000D03*
X181483000D03*
X173863000D03*
X171323000D03*
X173863000Y-116459000D03*
X171323000D03*
X173863000Y-113919000D03*
X171323000D03*
X173863000Y-111379000D03*
X171323000D03*
X173863000Y-108839000D03*
X171323000D03*
X173863000Y-106299000D03*
X171323000D03*
X173863000Y-103759000D03*
X171323000D03*
X173863000Y-101219000D03*
X171323000D03*
X173863000Y-98679000D03*
X171323000D03*
X173863000Y-96139000D03*
X171323000D03*
X168783000Y-118999000D03*
Y-116459000D03*
X166243000D03*
X168783000Y-113919000D03*
X166243000D03*
X168783000Y-111379000D03*
X166243000D03*
X168783000Y-108839000D03*
X166243000D03*
X168783000Y-106299000D03*
X166243000D03*
X168783000Y-103759000D03*
X166243000D03*
X168783000Y-101219000D03*
X166243000D03*
X168783000Y-98679000D03*
X166243000D03*
X168783000Y-96139000D03*
X166243000D03*
G54D21*
X124079000Y-101727000D03*
G54D11*
X121539000D03*
G54D22*
X138557000Y-104648000D03*
X139827000Y-105537000D03*
X151638000Y-125603000D03*
X145034000Y-101219000D03*
X141351000Y-110871000D03*
X140462000Y-113792000D03*
X142875000Y-116205000D03*
X141732000Y-96520000D03*
X145923000Y-92329000D03*
X158496000Y-91313000D03*
X134366000Y-89916000D03*
X141351000Y-100457000D03*
X133731000Y-94234000D03*
X139573000Y-83947000D03*
X152908000Y-88646000D03*
X126377000Y-99683000D03*
X126111000Y-109728000D03*
X128651000Y-125095000D03*
X134366000Y-118491000D03*
X140462000Y-121031000D03*
X141986000Y-125222000D03*
X142875000Y-122174000D03*
X147701000Y-120777000D03*
X131826000Y-104648000D03*
X140081000Y-91567000D03*
X133477000Y-91313000D03*
X154813000Y-122809000D03*
X149225000D03*
X135382000Y-83693000D03*
X160147000Y-112903000D03*
X159258000Y-112649000D03*
X158496000Y-112903000D03*
X134747000Y-110490000D03*
X135255000Y-107950000D03*
X136271000Y-104775000D03*
X140462000Y-99568000D03*
X139954000Y-98171000D03*
X143256000Y-97028000D03*
X142494000Y-94234000D03*
X140081000Y-98933000D03*
X143637000Y-112395000D03*
X143510000Y-114681000D03*
X140081000Y-111760000D03*
X143637000Y-113411000D03*
X146812000Y-104267000D03*
Y-109347000D03*
X153670000D03*
X155448000Y-104521000D03*
X155194000Y-100330000D03*
X145796000Y-99314000D03*
X149352000Y-100711000D03*
X140462000Y-102108000D03*
X133604000Y-98298000D03*
Y-99695000D03*
Y-96901000D03*
X161163000Y-122936000D03*
X159004000Y-121285000D03*
X159639000Y-97536000D03*
X157607000Y-94488000D03*
X160909000Y-90424000D03*
X129159000Y-91567000D03*
X138049000Y-122047000D03*
X132588000Y-93726000D03*
X158496000Y-85725000D03*
X155765520Y-85471000D03*
X160147000Y-84963000D03*
X154432000Y-85471000D03*
X150622000D03*
X149479000Y-84201000D03*
X147955000Y-83439000D03*
X146812000Y-83312000D03*
X138684000Y-105791000D03*
X136398000Y-96139000D03*
X135763000Y-98679000D03*
X137541000Y-106045000D03*
X155956000Y-110363000D03*
X154305000Y-87757000D03*
X146050000Y-115062000D03*
X146812000Y-114046000D03*
X147701000Y-115062000D03*
X148463000Y-114173000D03*
X149225000Y-115062000D03*
X150114000Y-114173000D03*
X150876000Y-115062000D03*
X151638000Y-114173000D03*
X151257000Y-84074000D03*
X157734000Y-87122000D03*
X156989370Y-110492170D03*
X145161000Y-114046000D03*
X152400000Y-115062000D03*
X153289000Y-114173000D03*
X154686000Y-115062000D03*
X154940000Y-114046000D03*
X158115000Y-114554000D03*
X157353000Y-113792000D03*
X160274000Y-111760000D03*
X160401000Y-110617000D03*
Y-109601000D03*
X157607000Y-109093000D03*
X162433000Y-88900000D03*
X135382000Y-97409000D03*
X128778000Y-87249000D03*
X129159000Y-90170000D03*
X128143000Y-92710000D03*
X129032000Y-89154000D03*
X128524000Y-95250000D03*
X151765000Y-124079000D03*
X159893000Y-124841000D03*
G54D23*
X135382000Y-96393000D02*
G01Y-93853000D01*
X134239000Y-92710000D02*
G01X133223000D01*
X135382000Y-93853000D02*
G01X134239000Y-92710000D01*
X131318000Y-88773000D02*
G01Y-90805000D01*
Y-90805000D02*
G01X133223000Y-92710000D01*
X131318000Y-88773000D02*
G01Y-85090000D01*
Y-85090000D02*
G01X134277100Y-82130900D01*
Y-82130900D02*
G01Y-80873600D01*
Y-81210150D02*
G01Y-80873600D01*
X136525000Y-98933000D02*
G01Y-97536000D01*
Y-97536000D02*
G01X135382000Y-96393000D01*
X138557000Y-104648000D02*
G01Y-102743000D01*
Y-101727000D02*
G01X136525000Y-99695000D01*
Y-99695000D02*
G01Y-98933000D01*
X138557000Y-102743000D02*
G01Y-101727000D01*
X134112000Y-92329000D02*
G01X133477000D01*
X132080000Y-88900000D02*
G01Y-90932000D01*
Y-90932000D02*
G01X133477000Y-92329000D01*
X132080000Y-88900000D02*
G01Y-85471000D01*
Y-85471000D02*
G01X136677400Y-80873600D01*
Y-80873600D02*
G01X136817100D01*
X137795000Y-96139000D02*
G01X137287000Y-95631000D01*
X137795000Y-98171000D02*
G01Y-96139000D01*
X139827000Y-105537000D02*
G01Y-102489000D01*
X134620000Y-92329000D02*
G01X136017000Y-93726000D01*
Y-93726000D02*
G01Y-94361000D01*
Y-94361000D02*
G01X137287000Y-95631000D01*
X134112000Y-92329000D02*
G01X134620000D01*
X139827000Y-101600000D02*
G01X137795000Y-99568000D01*
Y-99568000D02*
G01Y-98171000D01*
X139827000Y-102489000D02*
G01Y-101600000D01*
X161544000Y-125984000D02*
G01X162179000D01*
X181991000Y-108712000D02*
G01X179578000Y-106299000D01*
X182118000Y-120777000D02*
G01X182943500Y-119951500D01*
X179578000Y-120777000D02*
G01X182118000D01*
X177927000Y-122428000D02*
G01X179578000Y-120777000D01*
X177927000Y-125603000D02*
G01Y-122428000D01*
X176657000Y-126873000D02*
G01X177927000Y-125603000D01*
X163068000Y-126873000D02*
G01X176657000D01*
X162179000Y-125984000D02*
G01X163068000Y-126873000D01*
X179578000Y-106299000D02*
G01X179324000D01*
X152019000Y-125984000D02*
G01X161544000D01*
Y-125984000D02*
G01X161798000D01*
X151638000Y-125603000D02*
G01X152019000Y-125984000D01*
X141605000Y-114173000D02*
G01X142621000Y-113157000D01*
X141605000Y-118364000D02*
G01Y-114173000D01*
X146685000Y-123444000D02*
G01X141605000Y-118364000D01*
X145034000Y-101219000D02*
G01Y-104648000D01*
Y-104648000D02*
G01X143637000Y-106045000D01*
X148501100Y-129133600D02*
G01Y-128435100D01*
Y-125260100D02*
G01X146685000Y-123444000D01*
X148501100Y-129133600D02*
G01Y-125260100D01*
X142621000Y-107061000D02*
G01X143637000Y-106045000D01*
X142621000Y-113157000D02*
G01Y-107061000D01*
X182943500Y-109664500D02*
G01X181991000Y-108712000D01*
X182943500Y-119951500D02*
G01Y-109664500D01*
X158242000Y-126619000D02*
G01X162179000D01*
G54D24*
X182245000Y-121412000D02*
G01X183451500Y-120205500D01*
X179959000Y-121412000D02*
G01X182245000D01*
X178816000Y-122555000D02*
G01X179959000Y-121412000D01*
X178816000Y-125857000D02*
G01Y-122555000D01*
X177292000Y-127381000D02*
G01X178816000Y-125857000D01*
G54D23*
X162941000Y-127381000D02*
G01X177292000D01*
X162179000Y-126619000D02*
G01X162941000Y-127381000D01*
G54D24*
X151041100Y-129133600D02*
G01Y-127342900D01*
X183642000Y-102997000D02*
G01X181864000Y-101219000D01*
G54D23*
X183642000Y-107823000D02*
G01Y-102997000D01*
G54D24*
X151765000Y-126619000D02*
G01X158242000D01*
X151041100Y-127342900D02*
G01X151765000Y-126619000D01*
X141351000Y-112903000D02*
G01X140462000Y-113792000D01*
X141351000Y-112903000D02*
G01Y-110871000D01*
X145961100Y-123863100D02*
G01X140462000Y-118364000D01*
Y-118364000D02*
G01Y-113792000D01*
X145961100Y-129133600D02*
G01Y-123863100D01*
X151041100Y-126276100D02*
G01X142875000Y-118110000D01*
Y-118110000D02*
G01Y-116205000D01*
X151041100Y-129133600D02*
G01Y-126276100D01*
X145923000Y-92329000D02*
G01Y-92456000D01*
Y-92456000D02*
G01Y-92329000D01*
Y-92329000D02*
G01Y-92456000D01*
X141732000Y-96520000D02*
G01X145923000Y-92329000D01*
X146939000Y-91313000D02*
G01X145923000Y-92329000D01*
X158496000Y-91313000D02*
G01X146939000D01*
X135001000Y-89916000D02*
G01X141605000Y-96520000D01*
X134366000Y-89916000D02*
G01X135001000D01*
X141605000Y-96520000D02*
G01X141732000D01*
X142621000Y-105791000D02*
G01Y-103124000D01*
X141351000Y-107061000D02*
G01X142621000Y-105791000D01*
X141351000Y-110871000D02*
G01Y-109220000D01*
Y-109220000D02*
G01Y-108839000D01*
Y-108839000D02*
G01Y-107061000D01*
Y-100711000D02*
G01X142621000Y-101981000D01*
Y-101981000D02*
G01Y-103124000D01*
X141351000Y-100457000D02*
G01Y-100711000D01*
G54D25*
X183451500Y-120205500D02*
G01Y-108204000D01*
G54D23*
Y-108013500D02*
G01X183642000Y-107823000D01*
X183451500Y-108204000D02*
G01Y-108013500D01*
G54D25*
X139573000Y-83947000D02*
G01X143129000D01*
X147828000Y-88646000D02*
G01X152908000D01*
X143129000Y-83947000D02*
G01X147828000Y-88646000D01*
X126377000Y-99683000D02*
G01X126365000Y-99695000D01*
X139446000Y-91567000D02*
G01X140081000D01*
X136652000Y-88773000D02*
G01X139446000Y-91567000D01*
X133731000Y-88773000D02*
G01X136652000D01*
X133477000Y-89027000D02*
G01X133731000Y-88773000D01*
X133477000Y-91313000D02*
G01Y-89027000D01*
X154813000Y-122809000D02*
G01X149225000D01*
X135636000Y-83947000D02*
G01X135382000Y-83693000D01*
X139573000Y-83947000D02*
G01X135636000D01*
X159893000Y-112649000D02*
G01X160147000Y-112903000D01*
X159258000Y-112649000D02*
G01X159893000D01*
X140081000Y-99187000D02*
G01X140462000Y-99568000D01*
X139954000Y-98171000D02*
G01Y-98806000D01*
X143256000Y-97282000D02*
G01X142367000Y-98171000D01*
Y-98171000D02*
G01X139954000D01*
X140081000Y-91567000D02*
G01Y-91821000D01*
Y-91821000D02*
G01X142494000Y-94234000D01*
X143256000Y-97028000D02*
G01Y-97282000D01*
X139954000Y-98806000D02*
G01X140081000Y-98933000D01*
Y-98933000D02*
G01Y-99187000D01*
X143637000Y-112395000D02*
G01Y-113411000D01*
X149352000Y-101727000D02*
G01X146812000Y-104267000D01*
Y-109347000D02*
G01X153670000D01*
X155448000Y-104521000D02*
G01X155194000Y-104267000D01*
Y-104267000D02*
G01Y-100330000D01*
X149352000Y-100711000D02*
G01Y-101727000D01*
G54D23*
X133604000Y-96901000D02*
G01Y-98298000D01*
X159512000Y-121285000D02*
G01X161163000Y-122936000D01*
X159004000Y-121285000D02*
G01X159512000D01*
X155194000Y-100330000D02*
G01Y-96901000D01*
Y-96901000D02*
G01X157607000Y-94488000D01*
Y-94361000D02*
G01X160909000Y-91059000D01*
Y-91059000D02*
G01Y-90424000D01*
X157607000Y-94488000D02*
G01Y-94361000D01*
G54D24*
X131318000Y-93726000D02*
G01X132588000D01*
X129159000Y-91567000D02*
G01X131318000Y-93726000D01*
X138049000Y-122047000D02*
G01X135763000Y-119761000D01*
Y-114173000D02*
G01X130429000Y-108839000D01*
X135763000Y-119761000D02*
G01Y-114173000D01*
X132588000Y-93726000D02*
G01Y-97028000D01*
Y-97028000D02*
G01X129159000Y-100457000D01*
X128270000Y-106680000D02*
G01Y-101346000D01*
Y-101346000D02*
G01X129159000Y-100457000D01*
X130429000Y-108839000D02*
G01X128270000Y-106680000D01*
G54D23*
X156464000Y-85471000D02*
G01X155765520D01*
X156718000Y-85725000D02*
G01X156464000Y-85471000D01*
X158496000Y-85725000D02*
G01X156718000D01*
X154432000Y-85471000D02*
G01X155067000Y-84836000D01*
Y-84836000D02*
G01X155702000D01*
X160020000D02*
G01X160147000Y-84963000D01*
X155702000Y-84836000D02*
G01X160020000D01*
X181864000Y-103759000D02*
G01X181483000D01*
X175641000Y-102616000D02*
G01Y-101346000D01*
X178054000Y-105029000D02*
G01X175641000Y-102616000D01*
X159766000Y-85852000D02*
G01X159385000D01*
X153924000Y-86487000D02*
G01X153416000Y-85979000D01*
X158750000Y-86487000D02*
G01X153924000D01*
X159385000Y-85852000D02*
G01X158750000Y-86487000D01*
X160401000Y-85852000D02*
G01X159766000D01*
X181483000Y-103759000D02*
G01X180213000Y-105029000D01*
Y-105029000D02*
G01X178181000D01*
X175641000Y-101346000D02*
G01Y-85598000D01*
Y-85598000D02*
G01X174371000Y-84328000D01*
Y-84328000D02*
G01X163195000D01*
Y-84328000D02*
G01X161671000Y-85852000D01*
Y-85852000D02*
G01X160401000D01*
X178181000Y-105029000D02*
G01X178054000D01*
X152908000Y-85471000D02*
G01X153416000Y-85979000D01*
X150622000Y-85471000D02*
G01X152908000D01*
X152781000Y-83439000D02*
G01X150622000D01*
X179324000Y-101219000D02*
G01X178054000D01*
X175006000Y-83439000D02*
G01X162306000D01*
X176784000Y-85217000D02*
G01X175006000Y-83439000D01*
X176784000Y-99949000D02*
G01Y-85217000D01*
X178054000Y-101219000D02*
G01X176784000Y-99949000D01*
X162306000Y-83439000D02*
G01X162052000D01*
X150241000D02*
G01X149479000Y-84201000D01*
X150622000Y-83439000D02*
G01X150241000D01*
X152781000D02*
G01X162052000D01*
X166281100Y-80873600D02*
G01Y-81241900D01*
X158115000Y-82931000D02*
G01X158369000Y-82677000D01*
X148717000Y-82931000D02*
G01X158115000D01*
X148209000Y-83439000D02*
G01X148717000Y-82931000D01*
X166281100Y-81241900D02*
G01X164973000Y-82550000D01*
Y-82550000D02*
G01X158496000D01*
Y-82550000D02*
G01X158369000Y-82677000D01*
X147955000Y-83439000D02*
G01X148209000D01*
X147764500Y-82359500D02*
G01X146812000Y-83312000D01*
X153447750Y-82359500D02*
G01X147764500D01*
X154597100Y-81210150D02*
G01X153447750Y-82359500D01*
X154597100Y-80873600D02*
G01Y-81210150D01*
X138684000Y-105791000D02*
G01X139192000Y-105283000D01*
X137287000Y-97536000D02*
G01Y-97028000D01*
Y-98425000D02*
G01Y-97536000D01*
X139192000Y-105283000D02*
G01Y-105029000D01*
Y-105029000D02*
G01Y-104394000D01*
Y-104394000D02*
G01Y-103886000D01*
X137287000Y-97028000D02*
G01Y-97536000D01*
X136398000Y-96139000D02*
G01X137287000Y-97028000D01*
X139192000Y-101600000D02*
G01X137287000Y-99695000D01*
Y-99695000D02*
G01Y-98425000D01*
X139192000Y-103886000D02*
G01Y-101600000D01*
X135763000Y-99949000D02*
G01Y-98679000D01*
X137414000Y-101600000D02*
G01X135763000Y-99949000D01*
X137541000Y-104140000D02*
G01X137922000Y-103759000D01*
Y-103759000D02*
G01Y-102108000D01*
Y-102108000D02*
G01X137414000Y-101600000D01*
X137541000Y-106045000D02*
G01Y-104140000D01*
X158369000Y-87757000D02*
G01X162687000D01*
Y-87757000D02*
G01X163195000Y-88265000D01*
X156972000Y-106172000D02*
G01Y-97155000D01*
X163195000Y-88900000D02*
G01Y-88265000D01*
X155956000Y-110363000D02*
G01Y-107950000D01*
X156972000Y-106934000D02*
G01Y-106172000D01*
X155956000Y-107950000D02*
G01X156972000Y-106934000D01*
X163195000Y-90932000D02*
G01Y-88900000D01*
X156972000Y-97155000D02*
G01X163195000Y-90932000D01*
X154305000Y-87757000D02*
G01X158242000D01*
Y-87757000D02*
G01X158369000D01*
X177419002Y-119633998D02*
G01Y-117475000D01*
X176403000Y-120650000D02*
G01X177419002Y-119633998D01*
X176403000Y-124714000D02*
G01Y-120650000D01*
X175260000Y-125857000D02*
G01X176403000Y-124714000D01*
X163703000Y-125857000D02*
G01X175260000D01*
X162687000Y-124841000D02*
G01X163703000Y-125857000D01*
X150495000Y-121158000D02*
G01X155448000D01*
X146050000Y-116713000D02*
G01X150495000Y-121158000D01*
X177419002Y-117475000D02*
G01X176403000Y-116459000D01*
X146050000Y-115062000D02*
G01Y-116713000D01*
X156845000Y-121158000D02*
G01X158496000Y-122809000D01*
X155448000Y-121158000D02*
G01X156845000D01*
X159766000Y-122809000D02*
G01X161544000Y-124587000D01*
Y-124587000D02*
G01X162433000D01*
Y-124587000D02*
G01X162687000Y-124841000D01*
X158496000Y-122809000D02*
G01X159766000D01*
X175387000Y-120015000D02*
G01X176403000Y-118999000D01*
X175387000Y-124968000D02*
G01Y-120015000D01*
X175133000Y-125222000D02*
G01X175387000Y-124968000D01*
X165354000Y-125222000D02*
G01X175133000D01*
X160782000Y-120650000D02*
G01X165354000Y-125222000D01*
X151003000Y-120650000D02*
G01X160782000D01*
X146812000Y-116459000D02*
G01X151003000Y-120650000D01*
X146812000Y-114046000D02*
G01Y-116459000D01*
X162971614Y-120807614D02*
G01X166243000Y-124079000D01*
X147701000Y-116713000D02*
G01X150749000Y-119761000D01*
X147701000Y-115062000D02*
G01Y-116713000D01*
X151130000Y-120142000D02*
G01X162306000D01*
Y-120142000D02*
G01X162971614Y-120807614D01*
X150749000Y-119761000D02*
G01X151130000Y-120142000D01*
X166243000Y-121539000D02*
G01X164338000Y-119634000D01*
Y-119634000D02*
G01X151511000D01*
X148463000Y-116586000D02*
G01Y-114173000D01*
X151511000Y-119634000D02*
G01X148463000Y-116586000D01*
X149225000Y-115951000D02*
G01Y-115062000D01*
X152273000Y-118999000D02*
G01X149225000Y-115951000D01*
X166243000Y-118999000D02*
G01X152273000D01*
X152146000Y-117856000D02*
G01X150114000Y-115824000D01*
Y-115824000D02*
G01Y-114173000D01*
X152654000Y-118364000D02*
G01X163322000D01*
Y-118364000D02*
G01X165227000Y-116459000D01*
Y-116459000D02*
G01X166243000D01*
X152146000Y-117856000D02*
G01X152654000Y-118364000D01*
X150876000Y-115690616D02*
G01X152530192Y-117344808D01*
X150876000Y-115062000D02*
G01Y-115690616D01*
X166243000Y-114173000D02*
G01Y-113919000D01*
X152530192Y-117351192D02*
G01X153035000Y-117856000D01*
Y-117856000D02*
G01X162560000D01*
Y-117856000D02*
G01X166243000Y-114173000D01*
X152530192Y-117344808D02*
G01Y-117351192D01*
X166243000Y-111379000D02*
G01X165481000D01*
Y-111379000D02*
G01X164973000Y-111887000D01*
Y-111887000D02*
G01Y-114046000D01*
X151638000Y-115316000D02*
G01Y-114173000D01*
X164973000Y-114681000D02*
G01X162433000Y-117221000D01*
Y-117221000D02*
G01X153162000D01*
Y-117221000D02*
G01X151638000Y-115697000D01*
Y-115697000D02*
G01Y-115316000D01*
X164973000Y-114046000D02*
G01Y-114681000D01*
X144437100Y-82715100D02*
G01Y-80873600D01*
X145923000Y-84201000D02*
G01X145521640Y-83799640D01*
Y-83799640D02*
G01X144437100Y-82715100D01*
X174625000Y-83820000D02*
G01X163195000D01*
X176149000Y-85344000D02*
G01X174625000Y-83820000D01*
X176149000Y-99568000D02*
G01Y-85344000D01*
X162560000Y-83947000D02*
G01X162687000Y-83820000D01*
Y-83820000D02*
G01X163195000D01*
X151257000Y-84074000D02*
G01X152146000D01*
X176149000Y-101346000D02*
G01Y-99568000D01*
X178562000Y-103759000D02*
G01X176149000Y-101346000D01*
X179324000Y-103759000D02*
G01X178562000D01*
X150876000Y-84074000D02*
G01X149606000Y-85344000D01*
Y-85344000D02*
G01X147066000D01*
Y-85344000D02*
G01X145923000Y-84201000D01*
X151257000Y-84074000D02*
G01X150876000D01*
X162433000D02*
G01X162560000Y-83947000D01*
X152146000Y-84074000D02*
G01X162433000D01*
X163766500Y-91376500D02*
G01Y-87947500D01*
X162941000Y-87122000D02*
G01X162306000D01*
X163766500Y-87947500D02*
G01X162941000Y-87122000D01*
X158623000D02*
G01X162306000D01*
X157734000D02*
G01X158623000D01*
X156989370Y-110492170D02*
G01Y-108221370D01*
X157734000Y-107476740D02*
G01Y-106680000D01*
X156989370Y-108221370D02*
G01X157734000Y-107476740D01*
Y-97409000D02*
G01X163766500Y-91376500D01*
X157734000Y-106680000D02*
G01Y-97409000D01*
X177774612Y-115290610D02*
G01X176403000Y-113919000D01*
X177165000Y-120904000D02*
G01X177774612Y-120294388D01*
X175895000Y-126365000D02*
G01X177165000Y-125095000D01*
X163449000Y-126365000D02*
G01X175895000D01*
X162179000Y-125095000D02*
G01X163449000Y-126365000D01*
X177774612Y-120294388D02*
G01Y-115290610D01*
X150114000Y-121666000D02*
G01X153035000D01*
X145161000Y-116713000D02*
G01X150114000Y-121666000D01*
X177165000Y-125095000D02*
G01Y-120904000D01*
X145161000Y-114046000D02*
G01Y-116713000D01*
X156464000Y-121666000D02*
G01X157988000Y-123190000D01*
X153035000Y-121666000D02*
G01X156464000D01*
X158369000Y-123571000D02*
G01X159893000D01*
Y-123571000D02*
G01X161417000Y-125095000D01*
Y-125095000D02*
G01X162179000D01*
X157988000Y-123190000D02*
G01X158369000Y-123571000D01*
X152400000Y-115062000D02*
G01X154051000Y-116713000D01*
Y-116713000D02*
G01X162179000D01*
Y-116713000D02*
G01X164465000Y-114427000D01*
X164846000Y-110236000D02*
G01X165481002Y-109600998D01*
Y-109600998D02*
G01X166243000Y-108839000D01*
X164465000Y-110617000D02*
G01X164846000Y-110236000D01*
X164465000Y-114427000D02*
G01Y-110617000D01*
X163893500Y-114109500D02*
G01X161798000Y-116205000D01*
X166243000Y-106299000D02*
G01X164719000Y-107823000D01*
X161798000Y-116205000D02*
G01X154692384D01*
Y-116205000D02*
G01X153289000Y-114801616D01*
Y-114801616D02*
G01Y-114173000D01*
X163893500Y-108648500D02*
G01X164719000Y-107823000D01*
X163893500Y-114109500D02*
G01Y-108648500D01*
X163449000Y-113538000D02*
G01X161290000Y-115697000D01*
X166243000Y-103759000D02*
G01X164084000Y-105918000D01*
X155491800Y-115062000D02*
G01X156126800Y-115697000D01*
X154686000Y-115062000D02*
G01X155491800D01*
X161290000Y-115697000D02*
G01X156126800D01*
X163449000Y-106553000D02*
G01X164084000Y-105918000D01*
X163449000Y-113538000D02*
G01Y-106553000D01*
X163004500Y-108077000D02*
G01Y-104457500D01*
Y-104457500D02*
G01X163576000Y-103886000D01*
X166243000Y-101219000D02*
G01X163576000Y-103886000D01*
X163004500Y-112966500D02*
G01X160655000Y-115316000D01*
Y-115316000D02*
G01X156838618D01*
Y-115316000D02*
G01X155568618Y-114046000D01*
Y-114046000D02*
G01X154940000D01*
X163004500Y-112966500D02*
G01Y-108077000D01*
X162560000Y-108331000D02*
G01Y-103124000D01*
X160528000Y-114554000D02*
G01X162560000Y-112522000D01*
X158115000Y-114554000D02*
G01X160528000D01*
X162560000Y-112522000D02*
G01Y-108331000D01*
Y-102362000D02*
G01X166243000Y-98679000D01*
X162560000Y-103124000D02*
G01Y-102362000D01*
X161988500Y-108077000D02*
G01Y-101727000D01*
X160528000Y-113792000D02*
G01X161988500Y-112331500D01*
X157353000Y-113792000D02*
G01X160528000D01*
X161988500Y-112331500D02*
G01Y-108077000D01*
Y-100393500D02*
G01X166243000Y-96139000D01*
X161988500Y-101727000D02*
G01Y-100393500D01*
X161544000Y-109220000D02*
G01Y-97536000D01*
Y-97536000D02*
G01X162052000Y-97028000D01*
X161544000Y-110490000D02*
G01Y-110109000D01*
X160274000Y-111760000D02*
G01X161544000Y-110490000D01*
Y-110109000D02*
G01Y-109220000D01*
X165481000Y-93599000D02*
G01X162052000Y-97028000D01*
X166243000Y-93599000D02*
G01X165481000D01*
X162750500Y-94932500D02*
G01X163957000Y-93726000D01*
X165608000Y-91694000D02*
G01X166243000Y-91059000D01*
X165608000Y-92075000D02*
G01Y-91694000D01*
X165100000Y-92583000D02*
G01X165608000Y-92075000D01*
X163957000Y-93726000D02*
G01X165100000Y-92583000D01*
X161036000Y-109220000D02*
G01Y-96647000D01*
Y-96647000D02*
G01X161671000Y-96012000D01*
X161036000Y-109474000D02*
G01Y-109220000D01*
X160401000Y-110617000D02*
G01X160337500Y-110553500D01*
Y-110553500D02*
G01X160464500D01*
Y-110553500D02*
G01X161036000Y-109982000D01*
Y-109982000D02*
G01Y-109474000D01*
X161671000Y-96012000D02*
G01X162750500Y-94932500D01*
X161290000Y-95631000D02*
G01X162687000Y-94234000D01*
X164973000Y-89662000D02*
G01X166116000Y-88519000D01*
X164973000Y-91186000D02*
G01Y-89662000D01*
Y-91948000D02*
G01Y-91186000D01*
X164338000Y-92583000D02*
G01X164973000Y-91948000D01*
X162687000Y-94234000D02*
G01X164338000Y-92583000D01*
X166116000Y-88519000D02*
G01X166243000D01*
X160401000Y-108585000D02*
G01Y-96520000D01*
Y-96520000D02*
G01X160655000Y-96266000D01*
Y-96266000D02*
G01X161290000Y-95631000D01*
X160401000Y-109601000D02*
G01Y-108585000D01*
X164282144Y-91638142D02*
G01Y-87939856D01*
Y-87939856D02*
G01X164973000Y-87249000D01*
X165481002Y-86740998D02*
G01X166243000Y-85979000D01*
X164973000Y-87249000D02*
G01X165481002Y-86740998D01*
X159258000Y-96647000D02*
G01X160147000Y-95758000D01*
X160162286D02*
G01X164282144Y-91638142D01*
X160147000Y-95758000D02*
G01X160162286D01*
X157607000Y-109093000D02*
G01X158496000Y-108204000D01*
Y-108204000D02*
G01Y-97409000D01*
Y-97409000D02*
G01X159258000Y-96647000D01*
X162433000Y-88900000D02*
G01X162179000D01*
X151892000Y-86360000D02*
G01X150114000D01*
X153924000Y-88392000D02*
G01X151892000Y-86360000D01*
X161671000Y-88392000D02*
G01X153924000D01*
X162179000Y-88900000D02*
G01X161671000Y-88392000D01*
X150114000Y-86360000D02*
G01X146812000D01*
X139359640Y-80873600D02*
G01Y-81210150D01*
X141207490Y-83058000D02*
G01X143510000D01*
X145288000Y-84836000D02*
G01X146812000Y-86360000D01*
X143510000Y-83058000D02*
G01X145288000Y-84836000D01*
X139359640Y-81210150D02*
G01X141207490Y-83058000D01*
X133096000Y-93218000D02*
G01X133985000D01*
X134620000Y-93853000D02*
G01Y-94361000D01*
X133985000Y-93218000D02*
G01X134620000Y-93853000D01*
X135382000Y-97409000D02*
G01X134620000Y-96647000D01*
Y-96647000D02*
G01Y-95250000D01*
Y-95250000D02*
G01Y-94361000D01*
X128778000Y-87630000D02*
G01Y-87249000D01*
X130302000Y-89154000D02*
G01X128778000Y-87630000D01*
X130302000Y-90424000D02*
G01Y-89154000D01*
X133096000Y-93218000D02*
G01X130302000Y-90424000D01*
X128270000Y-91821000D02*
G01Y-91059000D01*
Y-91059000D02*
G01X129159000Y-90170000D01*
X128270000Y-92583000D02*
G01Y-91821000D01*
Y-91821000D02*
G01Y-91313000D01*
X128143000Y-92710000D02*
G01X128270000Y-92583000D01*
X127508000D02*
G01Y-90043000D01*
X128397000Y-89154000D02*
G01X129032000D01*
X127508000Y-90043000D02*
G01X128397000Y-89154000D01*
X128524000Y-95250000D02*
G01Y-94996000D01*
X127508000Y-93980000D02*
G01Y-92583000D01*
X128524000Y-94996000D02*
G01X127508000Y-93980000D01*
G54D24*
X152273000Y-124079000D02*
G01X153035000Y-124841000D01*
Y-124841000D02*
G01X159893000D01*
X151765000Y-124079000D02*
G01X152273000D01*
G54D10*
X128828372Y-79606528D02*
G01X128487560Y-80427294D01*
X128486784Y-81316006*
X128826162Y-82137366*
X129454028Y-82766328*
X130274794Y-83107140*
X131163508Y-83107916*
X131984866Y-82768538*
X132613830Y-82140672*
X132914436Y-81416730*
X132986440Y-81778720*
X133227218Y-82139070*
X130797146Y-84569144*
X130637470Y-84808114*
X130581400Y-85090000*
Y-88391690*
X129718124Y-87528414*
X129753230Y-87443870*
X129753570Y-87055832*
X129605386Y-86697202*
X129331242Y-86422578*
X128972870Y-86273770*
X128584832Y-86273430*
X128226202Y-86421614*
X127951578Y-86695758*
X127802770Y-87054130*
X127802432Y-87442168*
X127950614Y-87800798*
X128170270Y-88020838*
X128257146Y-88150854*
X128456532Y-88350242*
X128387330Y-88419322*
X128115116Y-88473470*
X127898640Y-88618114*
X127876146Y-88633144*
X126987146Y-89522144*
X126827470Y-89761114*
X126771400Y-90043000*
Y-93980000*
X126827470Y-94261884*
X126987146Y-94500854*
X127548764Y-95062474*
X127548432Y-95443168*
X127696614Y-95801798*
X127970760Y-96076422*
X128329130Y-96225230*
X128717168Y-96225568*
X129075798Y-96077386*
X129350422Y-95803240*
X129499230Y-95444870*
X129499570Y-95056832*
X129351386Y-94698202*
X129077240Y-94423578*
X128933674Y-94363964*
X128255208Y-93685498*
X128336168Y-93685568*
X128694798Y-93537386*
X128969422Y-93263240*
X129118230Y-92904870*
X129118336Y-92783572*
X130689382Y-94354618*
X130977794Y-94547328*
X131318000Y-94615000*
X131699000*
Y-96659764*
X127641382Y-100717382*
X127448672Y-101005794*
X127381000Y-101346000*
Y-106680000*
X127448672Y-107020206*
X127579420Y-107215884*
X127641382Y-107308618*
X134874000Y-114541236*
Y-119761000*
X134941672Y-120101206*
X135045198Y-120256144*
X135134382Y-120389618*
X137135746Y-122390982*
X137221614Y-122598798*
X137495760Y-122873422*
X137854130Y-123022230*
X138242168Y-123022568*
X138600798Y-122874386*
X138875422Y-122600240*
X139024230Y-122241870*
X139024570Y-121853832*
X138876386Y-121495202*
X138602242Y-121220578*
X138392880Y-121133644*
X136652000Y-119392764*
Y-114173000*
X136584330Y-113832794*
X136391618Y-113544382*
X129159000Y-106311764*
Y-103066694*
X129302226*
X129550538Y-103667654*
X130009928Y-104127846*
X130610454Y-104377206*
X131260694Y-104377774*
X131861656Y-104129462*
X132321846Y-103670072*
X132571206Y-103069546*
X132571774Y-102419306*
X132323462Y-101818344*
X131864072Y-101358154*
X131263546Y-101108794*
X130613306Y-101108226*
X130012346Y-101356538*
X129552154Y-101815926*
X129302794Y-102416452*
X129302226Y-103066694*
X129159000*
Y-101714236*
X133216618Y-97656618*
X133409330Y-97368206*
X133477000Y-97028000*
Y-94128536*
X133549224Y-93954600*
X133679890*
X133883400Y-94158110*
Y-96647000*
X133939470Y-96928884*
X134099146Y-97167854*
X134406542Y-97475252*
X134406432Y-97602168*
X134554614Y-97960798*
X134828760Y-98235422*
X134881884Y-98257480*
X134787770Y-98484130*
X134787432Y-98872168*
X134935614Y-99230798*
X135026400Y-99321742*
Y-99949000*
X135082470Y-100230884*
X135242146Y-100469854*
X135880680Y-101108390*
X135693306Y-101108226*
X135092346Y-101356538*
X134632154Y-101815926*
X134382794Y-102416452*
X134382226Y-103066694*
X134630538Y-103667654*
X135089928Y-104127846*
X135690454Y-104377206*
X136340694Y-104377774*
X136804400Y-104186174*
Y-105402094*
X136714578Y-105491758*
X136565770Y-105850130*
X136565432Y-106238168*
X136713614Y-106596798*
X136987760Y-106871422*
X137346130Y-107020230*
X137734168Y-107020568*
X138092798Y-106872386*
X138284330Y-106681188*
X138489130Y-106766230*
X138877168Y-106766568*
X139235798Y-106618386*
X139427330Y-106427188*
X139632130Y-106512230*
X140020168Y-106512568*
X140378798Y-106364386*
X140653422Y-106090240*
X140802230Y-105731870*
X140802570Y-105343832*
X140654386Y-104985202*
X140563600Y-104894256*
Y-101600000*
X140507530Y-101318114*
X140347856Y-101079144*
X138531600Y-99262890*
Y-96139000*
X138475530Y-95857114*
X138315856Y-95618144*
X136753600Y-94055890*
Y-93726000*
X136697530Y-93444114*
X136537856Y-93205144*
X135140856Y-91808144*
X134901886Y-91648470*
X134620000Y-91592400*
X133782110*
X132816600Y-90626890*
Y-90109168*
X133390432*
X133538614Y-90467798*
X133812760Y-90742422*
X134171130Y-90891230*
X134559168Y-90891568*
X134672504Y-90844740*
X140976382Y-97148618*
X140991152Y-97158486*
X141178760Y-97346422*
X141537130Y-97495230*
X141925168Y-97495568*
X142283798Y-97347386*
X142558422Y-97073240*
X142645356Y-96863880*
X146224136Y-93285100*
X146263206Y-93277328*
X146394644Y-93189504*
X146474798Y-93156386*
X146536718Y-93094574*
X146551618Y-93084618*
X146561488Y-93069848*
X146749422Y-92882240*
X146836356Y-92672880*
X147307236Y-92202000*
X158093464*
X158301130Y-92288230*
X158689168Y-92288568*
X159047798Y-92140386*
X159322422Y-91866240*
X159471230Y-91507870*
X159471570Y-91119832*
X159323386Y-90761202*
X159049242Y-90486578*
X158690870Y-90337770*
X158302832Y-90337430*
X158093320Y-90424000*
X146939000*
X146598794Y-90491670*
X146388074Y-90632470*
X146310382Y-90684382*
X145579018Y-91415746*
X145371202Y-91501614*
X145096578Y-91775758*
X145009644Y-91985120*
X141668500Y-95326264*
X135629618Y-89287382*
X135498138Y-89199530*
X135341206Y-89094670*
X135001000Y-89027000*
X134768536*
X134560870Y-88940770*
X134172832Y-88940430*
X133814202Y-89088614*
X133539578Y-89362758*
X133390770Y-89721130*
X133390432Y-90109168*
X132816600*
Y-85776110*
X136147882Y-82444828*
X136282492Y-82534772*
X136817100Y-82641112*
X137351710Y-82534772*
X137804928Y-82231940*
X138088370Y-81807740*
X138371812Y-82231940*
X138825032Y-82534772*
X139359640Y-82641112*
X139684312Y-82576530*
X140686636Y-83578854*
X140925606Y-83738530*
X141207490Y-83794600*
X141207496*
X143204890*
X146291146Y-86880854*
X146530116Y-87040530*
X146812000Y-87096600*
X151586890*
X153403146Y-88912854*
X153642116Y-89072530*
X153924000Y-89128600*
X161365890*
X161546838Y-89309546*
X161605614Y-89451798*
X161879760Y-89726422*
X162238130Y-89875230*
X162458400Y-89875422*
Y-90626890*
X156451146Y-96634144*
X156291470Y-96873114*
X156235400Y-97155000*
Y-106628890*
X155435146Y-107429144*
X155275470Y-107668114*
X155219400Y-107950000*
Y-109720094*
X155129578Y-109809758*
X154980770Y-110168130*
X154980432Y-110556168*
X155128614Y-110914798*
X155402760Y-111189422*
X155761130Y-111338230*
X156149168Y-111338568*
X156366448Y-111248790*
X156436130Y-111318592*
X156794500Y-111467400*
X157182538Y-111467740*
X157541168Y-111319556*
X157815792Y-111045412*
X157964600Y-110687040*
X157964940Y-110299002*
X157859582Y-110044020*
X158158798Y-109920386*
X158433422Y-109646240*
X158582230Y-109287870*
X158582342Y-109159368*
X159016856Y-108724854*
X159079882Y-108630530*
X159176530Y-108485884*
X159232600Y-108204000*
Y-97714110*
X159664400Y-97282310*
Y-108958094*
X159574578Y-109047758*
X159425770Y-109406130*
X159425432Y-109794168*
X159555654Y-110109332*
X159425770Y-110422130*
X159425432Y-110810168*
X159547914Y-111106598*
X159447578Y-111206758*
X159298770Y-111565130*
X159298432Y-111953168*
X159446614Y-112311798*
X159720760Y-112586422*
X160079130Y-112735230*
X160467168Y-112735568*
X160595920Y-112682370*
X160222890Y-113055400*
X157995906*
X157906242Y-112965578*
X157547870Y-112816770*
X157159832Y-112816430*
X156801202Y-112964614*
X156526578Y-113238758*
X156377770Y-113597130*
X156377582Y-113813254*
X156089472Y-113525144*
X155850502Y-113365470*
X155586448Y-113312946*
X155493242Y-113219578*
X155134870Y-113070770*
X154746832Y-113070430*
X154388202Y-113218614*
X154113578Y-113492758*
X154076738Y-113581482*
X153842242Y-113346578*
X153483870Y-113197770*
X153095832Y-113197430*
X152737202Y-113345614*
X152463264Y-113619074*
X152191242Y-113346578*
X151832870Y-113197770*
X151444832Y-113197430*
X151086202Y-113345614*
X150875874Y-113555574*
X150667242Y-113346578*
X150308870Y-113197770*
X149920832Y-113197430*
X149562202Y-113345614*
X149288264Y-113619074*
X149016242Y-113346578*
X148657870Y-113197770*
X148269832Y-113197430*
X147911202Y-113345614*
X147675296Y-113581108*
X147639386Y-113494202*
X147365242Y-113219578*
X147006870Y-113070770*
X146618832Y-113070430*
X146260202Y-113218614*
X145986264Y-113492074*
X145714242Y-113219578*
X145355870Y-113070770*
X144967832Y-113070430*
X144609202Y-113218614*
X144334578Y-113492758*
X144185770Y-113851130*
X144185432Y-114239168*
X144333614Y-114597798*
X144424400Y-114688742*
Y-116713000*
X144480470Y-116994884*
X144640146Y-117233854*
X149593146Y-122186854*
X149832116Y-122346530*
X150114000Y-122402600*
X156158890*
X157708290Y-123952000*
X153403236*
X152901618Y-123450382*
X152790790Y-123376328*
X152613206Y-123257670*
X152273000Y-123190000*
X152167536*
X151959870Y-123103770*
X151571832Y-123103430*
X151213202Y-123251614*
X150938578Y-123525758*
X150789770Y-123884130*
X150789432Y-124272168*
X150937614Y-124630798*
X151084186Y-124777626*
X150941900Y-124919664*
X143764000Y-117741764*
Y-116607536*
X143850230Y-116399870*
X143850570Y-116011832*
X143702386Y-115653202*
X143428242Y-115378578*
X143069870Y-115229770*
X142681832Y-115229430*
X142341600Y-115370012*
Y-114478110*
X143141856Y-113677854*
X143301530Y-113438884*
X143357600Y-113157000*
Y-107366110*
X145554856Y-105168854*
X145714530Y-104929884*
X145770600Y-104648000*
Y-101861906*
X145860422Y-101772240*
X146009230Y-101413870*
X146009570Y-101025832*
X145861386Y-100667202*
X145587242Y-100392578*
X145228870Y-100243770*
X144840832Y-100243430*
X144482202Y-100391614*
X144207578Y-100665758*
X144058770Y-101024130*
X144058432Y-101412168*
X144206614Y-101770798*
X144297400Y-101861742*
Y-104342890*
X143510000Y-105130290*
Y-101981000*
X143442330Y-101640794*
X143249618Y-101352382*
X142326426Y-100429188*
X142326570Y-100263832*
X142178386Y-99905202*
X141904242Y-99630578*
X141545870Y-99481770*
X141157832Y-99481430*
X140799202Y-99629614*
X140524578Y-99903758*
X140375770Y-100262130*
X140375432Y-100650168*
X140519028Y-100997698*
X140529672Y-101051206*
X140633198Y-101206144*
X140722382Y-101339618*
X141732000Y-102349236*
Y-105422764*
X140722382Y-106432382*
X140529672Y-106720794*
X140462000Y-107061000*
Y-110468464*
X140375770Y-110676130*
X140375432Y-111064168*
X140462000Y-111273680*
Y-112534764*
X140118018Y-112878746*
X139910202Y-112964614*
X139635578Y-113238758*
X139486770Y-113597130*
X139486432Y-113985168*
X139573000Y-114194680*
Y-118364000*
X139640672Y-118704206*
X139807224Y-118953470*
X139833382Y-118992618*
X145072100Y-124231336*
Y-127707930*
X144973272Y-127773964*
X144691100Y-128196264*
X144408928Y-127773964*
X143955710Y-127471132*
X143421100Y-127364792*
X142886492Y-127471132*
X142433272Y-127773964*
X142130440Y-128227184*
X142024100Y-128761794*
Y-129505406*
X142130440Y-130040016*
X142433272Y-130493234*
X142886492Y-130796066*
X143421100Y-130902408*
X143955710Y-130796066*
X144408928Y-130493234*
X144691100Y-130070936*
X144973272Y-130493234*
X145426492Y-130796066*
X145961100Y-130902408*
X146495710Y-130796066*
X146948928Y-130493234*
X147231100Y-130070936*
X147513272Y-130493234*
X147966492Y-130796066*
X148501100Y-130902408*
X149035710Y-130796066*
X149488928Y-130493234*
X149771100Y-130070936*
X150053272Y-130493234*
X150506492Y-130796066*
X151041100Y-130902408*
X151575710Y-130796066*
X152028928Y-130493234*
X152311100Y-130070936*
X152593272Y-130493234*
X153046492Y-130796066*
X153581100Y-130902408*
X154115710Y-130796066*
X154568928Y-130493234*
X154859748Y-130057994*
X154879042Y-130123360*
X155223074Y-130549050*
X155703824Y-130810680*
X155778030Y-130825640*
X155994100Y-130703140*
Y-129260600*
X156248100*
Y-130703140*
X156464170Y-130825640*
X156538378Y-130810680*
X157019126Y-130549050*
X157363160Y-130123360*
X157391100Y-130028696*
X157419042Y-130123360*
X157763074Y-130549050*
X158243824Y-130810680*
X158318030Y-130825640*
X158534100Y-130703140*
Y-129260600*
X156248100*
X155994100*
X155974100*
Y-129006600*
X155994100*
Y-128986600*
X156248100*
Y-129006600*
X158534100*
Y-127564060*
X158788100*
Y-129006600*
X158808100*
Y-129260600*
X158788100*
Y-130703140*
X159004170Y-130825640*
X159078378Y-130810680*
X159559126Y-130549050*
X159903160Y-130123360*
X159922454Y-130057994*
X160213272Y-130493234*
X160666492Y-130796066*
X161201100Y-130902408*
X161735710Y-130796066*
X162188928Y-130493234*
X162491760Y-130040016*
X162598100Y-129505406*
Y-128761794*
X162491760Y-128227184*
X162188928Y-127773964*
X161735710Y-127471132*
X161201100Y-127364792*
X160666492Y-127471132*
X160213272Y-127773964*
X159922454Y-128209206*
X159903160Y-128143840*
X159559126Y-127718150*
X159078378Y-127456520*
X159004170Y-127441560*
X158788100Y-127564060*
X158534100*
X158385036Y-127479548*
X158582206Y-127440328*
X158709012Y-127355600*
X161873890*
X162420146Y-127901854*
X162659116Y-128061530*
X162941000Y-128117600*
X165063662*
X164990440Y-128227184*
X164884100Y-128761794*
Y-129505406*
X164990440Y-130040016*
X165293272Y-130493234*
X165746492Y-130796066*
X166281100Y-130902408*
X166815710Y-130796066*
X167268928Y-130493234*
X167551100Y-130070936*
X167833272Y-130493234*
X168286492Y-130796066*
X168821100Y-130902408*
X169355710Y-130796066*
X169808928Y-130493234*
X170091100Y-130070936*
X170373272Y-130493234*
X170826492Y-130796066*
X171361100Y-130902408*
X171895710Y-130796066*
X172348928Y-130493234*
X172631100Y-130070936*
X172913272Y-130493234*
X173366492Y-130796066*
X173901100Y-130902408*
X174435710Y-130796066*
X174888928Y-130493234*
X175171100Y-130070936*
X175453272Y-130493234*
X175906492Y-130796066*
X176441100Y-130902408*
X176975710Y-130796066*
X177428928Y-130493234*
X177711100Y-130070936*
X177993272Y-130493234*
X178446492Y-130796066*
X178981100Y-130902408*
X179515710Y-130796066*
X179968928Y-130493234*
X180271760Y-130040016*
X180378100Y-129505406*
Y-128761794*
X180271760Y-128227184*
X179968928Y-127773964*
X179515710Y-127471132*
X178981100Y-127364792*
X178462236Y-127468000*
X179444618Y-126485618*
X179637330Y-126197206*
X179705000Y-125857000*
Y-125396342*
X180254028Y-125946328*
X181074794Y-126287140*
X181963508Y-126287916*
X182784866Y-125948538*
X183338000Y-125396368*
Y-126335264*
X180998632Y-128674632*
X180850144Y-128896862*
X180798000Y-129159000*
Y-130145264*
X179929264Y-131014000*
X130729430*
X131343830Y-130400672*
X131684642Y-129579906*
X131685418Y-128691192*
X131346038Y-127869834*
X130718172Y-127240870*
X129897406Y-126900058*
X129008694Y-126899282*
X128187334Y-127238662*
X127558372Y-127866528*
X127217560Y-128687294*
X127216784Y-129576006*
X127556162Y-130397366*
X128171720Y-131014000*
X124390554*
X125004706Y-130841450*
X125507442Y-130445936*
X125820554Y-129888138*
X125851500Y-129760334*
X125732146Y-129506980*
X123388120*
Y-129526980*
X123134120*
Y-129506980*
X120790096*
X120670742Y-129760334*
X120701688Y-129888138*
X121014798Y-130445936*
X121517536Y-130841450*
X122131688Y-131014000*
X116869736*
X116128000Y-130272264*
Y-128999626*
X120670742*
X120790096Y-129252980*
X123134120*
Y-127745490*
X123388120*
Y-129252980*
X125732146*
X125851500Y-128999626*
X125820554Y-128871822*
X125507442Y-128314024*
X125004706Y-127918508*
X124388880Y-127745490*
X123388120*
X123134120*
X122133360*
X121517536Y-127918508*
X121014798Y-128314024*
X120701688Y-128871822*
X120670742Y-128999626*
X116128000*
Y-124206000*
X118375430*
Y-125206760*
X118548450Y-125822584*
X118943964Y-126325322*
X119501762Y-126638432*
X119629566Y-126669378*
X119882920Y-126550024*
Y-124206000*
X120136920*
Y-126550024*
X120390274Y-126669378*
X120518080Y-126638432*
X121075876Y-126325322*
X121471392Y-125822584*
X121644410Y-125206760*
Y-124206000*
X120136920*
X119882920*
X118375430*
X116128000*
Y-122951240*
X118375430*
Y-123952000*
X119882920*
Y-121607974*
X120136920*
Y-123952000*
X121644410*
Y-122951240*
X121593918Y-122771520*
X124377450*
Y-125386478*
X124501868Y-126011970*
X124856182Y-126542238*
X125386448Y-126896550*
X126011940Y-127020968*
X126637432Y-126896550*
X127167700Y-126542238*
X127522012Y-126011970*
X127646430Y-125386478*
Y-122771520*
X127522012Y-122146028*
X127167700Y-121615762*
X126637432Y-121261448*
X126011940Y-121137030*
X125386448Y-121261448*
X124856182Y-121615762*
X124501868Y-122146028*
X124377450Y-122771520*
X121593918*
X121471392Y-122335414*
X121075876Y-121832678*
X120518080Y-121519566*
X120390274Y-121488620*
X120136920Y-121607974*
X119882920*
X119629566Y-121488620*
X119501762Y-121519566*
X118943964Y-121832678*
X118548450Y-122335414*
X118375430Y-122951240*
X116128000*
Y-117585320*
X118988286*
X119117534Y-117878122*
X119817806Y-118146388*
X120567436Y-118126250*
X121166468Y-117878122*
X121295716Y-117585320*
X120142000Y-116431604*
X118988286Y-117585320*
X116128000*
Y-115927806*
X118247612*
X118267750Y-116677434*
X118515878Y-117276466*
X118808680Y-117405714*
X119962396Y-116252000*
X120321606*
X121475320Y-117405714*
X121768124Y-117276466*
X122036388Y-116576194*
X122016250Y-115826564*
X121768124Y-115227532*
X121475320Y-115098284*
X120321606Y-116252000*
X119962396*
X118808680Y-115098284*
X118515878Y-115227532*
X118247612Y-115927806*
X116128000*
Y-114918680*
X118988286*
X120142000Y-116072394*
X121295716Y-114918680*
X121166468Y-114625876*
X120466194Y-114357612*
X119716566Y-114377750*
X119117534Y-114625876*
X118988286Y-114918680*
X116128000*
Y-111625304*
X118256674*
X118543044Y-112318372*
X119072840Y-112849092*
X119765406Y-113136672*
X120515306Y-113137326*
X121208372Y-112850956*
X121739094Y-112321160*
X122026672Y-111628594*
X122027326Y-110878694*
X121740958Y-110185628*
X121211162Y-109654906*
X120518596Y-109367328*
X119768696Y-109366674*
X119075628Y-109653042*
X118544908Y-110182838*
X118257328Y-110875404*
X118256674Y-111625304*
X116128000*
Y-106625304*
X118256674*
X118543044Y-107318372*
X119072840Y-107849092*
X119765406Y-108136672*
X120515306Y-108137326*
X121208372Y-107850956*
X121739094Y-107321160*
X122026672Y-106628594*
X122027326Y-105878694*
X121740958Y-105185628*
X121211162Y-104654906*
X120518596Y-104367328*
X119768696Y-104366674*
X119075628Y-104653042*
X118544908Y-105182838*
X118257328Y-105875404*
X118256674Y-106625304*
X116128000*
Y-101355192*
X120142000*
Y-102098806*
X120248340Y-102633416*
X120551172Y-103086634*
X121004392Y-103389466*
X121539000Y-103495806*
X122073610Y-103389466*
X122526828Y-103086634*
X122676508Y-102862624*
X122716538Y-103068942*
X122856328Y-103281746*
X123067360Y-103424196*
X123317000Y-103474260*
X124841000*
X125083124Y-103427282*
X125295928Y-103287492*
X125438378Y-103076460*
X125488440Y-102826820*
Y-100627180*
X125441464Y-100385056*
X125301674Y-100172252*
X125090640Y-100029802*
X124841000Y-99979740*
X123317000*
X123074878Y-100026716*
X122862074Y-100166506*
X122719624Y-100377540*
X122676688Y-100591644*
X122526828Y-100367364*
X122073610Y-100064532*
X121539000Y-99958192*
X121004392Y-100064532*
X120551172Y-100367364*
X120248340Y-100820584*
X120142000Y-101355192*
X116128000*
Y-96013430*
X120047832*
X120212602Y-96412202*
X120517434Y-96717566*
X120915918Y-96883030*
X121347390Y-96883408*
X121746164Y-96718638*
X122051526Y-96413806*
X122216992Y-96015322*
X122217368Y-95583850*
X122052598Y-95185076*
X121747768Y-94879714*
X121349284Y-94714248*
X120917810Y-94713872*
X120519038Y-94878642*
X120213674Y-95183472*
X120048210Y-95581956*
X120047832Y-96013430*
X116128000*
Y-91616690*
X120047832*
X120212602Y-92015462*
X120517434Y-92320826*
X120915918Y-92486290*
X121347390Y-92486668*
X121746164Y-92321898*
X122051526Y-92017066*
X122216992Y-91618582*
X122217368Y-91187110*
X122052598Y-90788336*
X121747768Y-90482974*
X121349284Y-90317508*
X120917810Y-90317132*
X120519038Y-90481902*
X120213674Y-90786732*
X120048210Y-91185216*
X120047832Y-91616690*
X116128000*
Y-79658736*
X116742736Y-79044000*
X129391882*
X128828372Y-79606528*
X164210690Y-125120400D02*
G01X164008110D01*
X162953856Y-124066144*
X162714886Y-123906470*
X162433000Y-123850400*
X161849110*
X160286856Y-122288144*
X160047886Y-122128470*
X159766000Y-122072400*
X158801110*
X158115310Y-121386600*
X160476890*
X164210690Y-125120400*
X180798000Y-79912736D02*
G01Y-91059000D01*
X180850144Y-91321138*
X180998632Y-91543368*
X183338000Y-93882736*
Y-94771660*
X182788172Y-94220870*
X181967406Y-93880058*
X181078694Y-93879282*
X180257334Y-94218662*
X179628372Y-94846528*
X179287560Y-95667294*
X179286784Y-96556006*
X179626162Y-97377366*
X180254028Y-98006328*
X181074794Y-98347140*
X181963508Y-98347916*
X182784866Y-98008538*
X183338000Y-97456368*
Y-100209616*
X182917042Y-99928340*
X182382432Y-99822000*
X181843408*
X181308800Y-99928340*
X180855580Y-100231172*
X180718112Y-100436906*
X180675034Y-100214876*
X180535244Y-100002072*
X180324210Y-99859622*
X180074570Y-99809560*
X178075590*
X177833468Y-99856536*
X177772980Y-99896270*
X177520600Y-99643890*
Y-85217000*
X177464530Y-84935114*
X177304856Y-84696144*
X175526856Y-82918144*
X175287886Y-82758470*
X175006000Y-82702400*
X165862310*
X165982912Y-82581798*
X166281100Y-82641112*
X166815710Y-82534772*
X167268928Y-82231940*
X167551100Y-81809640*
X167833272Y-82231940*
X168286492Y-82534772*
X168821100Y-82641112*
X169355710Y-82534772*
X169808928Y-82231940*
X170091100Y-81809640*
X170373272Y-82231940*
X170826492Y-82534772*
X171361100Y-82641112*
X171895710Y-82534772*
X172348928Y-82231940*
X172631100Y-81809640*
X172913272Y-82231940*
X173366492Y-82534772*
X173901100Y-82641112*
X174435710Y-82534772*
X174888928Y-82231940*
X175171100Y-81809640*
X175453272Y-82231940*
X175906492Y-82534772*
X176441100Y-82641112*
X176975710Y-82534772*
X177428928Y-82231940*
X177711100Y-81809640*
X177993272Y-82231940*
X178446492Y-82534772*
X178981100Y-82641112*
X179515710Y-82534772*
X179968928Y-82231940*
X180271760Y-81778720*
X180378100Y-81244112*
Y-80503088*
X180271760Y-79968478*
X179968928Y-79515260*
X179515710Y-79212428*
X178981100Y-79106088*
X178446492Y-79212428*
X177993272Y-79515260*
X177711100Y-79937558*
X177428928Y-79515260*
X176975710Y-79212428*
X176441100Y-79106088*
X175906492Y-79212428*
X175453272Y-79515260*
X175171100Y-79937558*
X174888928Y-79515260*
X174435710Y-79212428*
X173901100Y-79106088*
X173366492Y-79212428*
X172913272Y-79515260*
X172631100Y-79937558*
X172348928Y-79515260*
X171895710Y-79212428*
X171361100Y-79106088*
X170826492Y-79212428*
X170373272Y-79515260*
X170091100Y-79937558*
X169808928Y-79515260*
X169355710Y-79212428*
X168821100Y-79106088*
X168286492Y-79212428*
X167833272Y-79515260*
X167551100Y-79937558*
X167268928Y-79515260*
X166815710Y-79212428*
X166281100Y-79106088*
X165746492Y-79212428*
X165293272Y-79515260*
X165011100Y-79937558*
X164728928Y-79515260*
X164275710Y-79212428*
X163741100Y-79106088*
X163206492Y-79212428*
X162753272Y-79515260*
X162471100Y-79937558*
X162188928Y-79515260*
X161735710Y-79212428*
X161201100Y-79106088*
X160666492Y-79212428*
X160213272Y-79515260*
X159910440Y-79968478*
X159804100Y-80503088*
Y-81244112*
X159910440Y-81778720*
X159933612Y-81813400*
X158496000*
X158390578Y-81834370*
X158427760Y-81778720*
X158534100Y-81244112*
Y-80503088*
X158427760Y-79968478*
X158124928Y-79515260*
X157671710Y-79212428*
X157137100Y-79106088*
X156602492Y-79212428*
X156149272Y-79515260*
X155867100Y-79937558*
X155584928Y-79515260*
X155131710Y-79212428*
X154597100Y-79106088*
X154062492Y-79212428*
X153609272Y-79515260*
X153327100Y-79937558*
X153044928Y-79515260*
X152591710Y-79212428*
X152057100Y-79106088*
X151522492Y-79212428*
X151069272Y-79515260*
X150787100Y-79937558*
X150504928Y-79515260*
X150051710Y-79212428*
X149517100Y-79106088*
X148982492Y-79212428*
X148529272Y-79515260*
X148247100Y-79937558*
X147964928Y-79515260*
X147511710Y-79212428*
X146977100Y-79106088*
X146442492Y-79212428*
X145989272Y-79515260*
X145707100Y-79937558*
X145424928Y-79515260*
X144971710Y-79212428*
X144437100Y-79106088*
X143902492Y-79212428*
X143449272Y-79515260*
X143158458Y-79950492*
X143139160Y-79885108*
X142795126Y-79459420*
X142314378Y-79197790*
X142240170Y-79182830*
X142024100Y-79305330*
Y-80746600*
X142044100*
Y-81000600*
X142024100*
Y-81020600*
X141770100*
Y-81000600*
X141750100*
Y-80746600*
X141770100*
Y-79305330*
X141554030Y-79182830*
X141479824Y-79197790*
X140999074Y-79459420*
X140655042Y-79885108*
X140636520Y-79947856*
X140347468Y-79515260*
X139894250Y-79212428*
X139359640Y-79106088*
X138825032Y-79212428*
X138371812Y-79515260*
X138088370Y-79939460*
X137804928Y-79515260*
X137351710Y-79212428*
X136817100Y-79106088*
X136282492Y-79212428*
X135829272Y-79515260*
X135547100Y-79937558*
X135264928Y-79515260*
X134811710Y-79212428*
X134277100Y-79106088*
X133742492Y-79212428*
X133289272Y-79515260*
X132986440Y-79968478*
X132914230Y-80331510*
X132616038Y-79609834*
X132051190Y-79044000*
X179929264*
X180798000Y-79912736*
M02*
