G04 #@! TF.FileFunction,Soldermask,Bot*
%FSLAX46Y46*%
G04 Gerber Fmt 4.6, Leading zero omitted, Abs format (unit mm)*
G04 Created by KiCad (PCBNEW (2015-02-03 BZR 5404)-product) date 01/09/2015 18:35:12*
%MOMM*%
G01*
G04 APERTURE LIST*
%ADD10C,0.254000*%
%ADD11O,1.524000X2.199640*%
%ADD12C,3.197860*%
%ADD13O,1.524000X2.197100*%
%ADD14O,4.000500X1.998980*%
%ADD15O,1.998980X4.000500*%
%ADD16O,1.998980X4.500880*%
%ADD17R,1.998980X1.524000*%
%ADD18O,1.998980X1.524000*%
%ADD19C,1.998980*%
%ADD20C,2.500000*%
%ADD21C,1.524000*%
%ADD22C,0.899160*%
%ADD23R,1.524000X2.199640*%
G04 APERTURE END LIST*
D10*
D11*
X143421100Y-129133600D03*
X145961100Y-129133600D03*
X148501100Y-129133600D03*
X151041100Y-129133600D03*
X153581100Y-129133600D03*
X156121100Y-129133600D03*
X158661100Y-129133600D03*
X161201100Y-129133600D03*
X166281100Y-129133600D03*
X168821100Y-129133600D03*
X171361100Y-129133600D03*
X173901100Y-129133600D03*
X176441100Y-129133600D03*
X178981100Y-129133600D03*
D12*
X129451100Y-129133600D03*
X181521100Y-124053600D03*
D13*
X178981100Y-80873600D03*
X176441100Y-80873600D03*
X173901100Y-80873600D03*
X171361100Y-80873600D03*
X168821100Y-80873600D03*
X166281100Y-80873600D03*
X163741100Y-80873600D03*
X161201100Y-80873600D03*
X157137100Y-80873600D03*
X154597100Y-80873600D03*
X152057100Y-80873600D03*
X149517100Y-80873600D03*
X146977100Y-80873600D03*
X144437100Y-80873600D03*
X141897100Y-80873600D03*
X139359640Y-80873600D03*
D12*
X130721100Y-80873600D03*
D13*
X136817100Y-80873600D03*
X134277100Y-80873600D03*
D12*
X181521100Y-96113600D03*
D14*
X123261120Y-129379980D03*
D15*
X120009920Y-124079000D03*
D16*
X126011940Y-124079000D03*
D17*
X179075080Y-101219000D03*
D18*
X182112920Y-101219000D03*
X179075080Y-103759000D03*
X182112920Y-103759000D03*
X179075080Y-106299000D03*
X182112920Y-106299000D03*
D19*
X130937000Y-102743000D03*
X136017000Y-102743000D03*
D20*
X120142000Y-116252000D03*
X120142000Y-106252000D03*
X120142000Y-111252000D03*
D21*
X166243000Y-118999000D03*
X166243000Y-121539000D03*
X168783000Y-121539000D03*
X166243000Y-124079000D03*
X168783000Y-124079000D03*
X171323000Y-121539000D03*
X173863000Y-121539000D03*
X171323000Y-124079000D03*
X173863000Y-124079000D03*
X166243000Y-85979000D03*
X168783000Y-85979000D03*
X166243000Y-88519000D03*
X168783000Y-88519000D03*
X166243000Y-91059000D03*
X168783000Y-91122500D03*
X166243000Y-93599000D03*
X168783000Y-93599000D03*
X171323000Y-85979000D03*
X173863000Y-85979000D03*
X171323000Y-88519000D03*
X173863000Y-88519000D03*
X171323000Y-91122500D03*
X173863000Y-91059000D03*
X171323000Y-93599000D03*
X173863000Y-93599000D03*
X176403000Y-111379000D03*
X176403000Y-113919000D03*
X176403000Y-116459000D03*
X176403000Y-118999000D03*
X178943000Y-111379000D03*
X181483000Y-111379000D03*
X178943000Y-113919000D03*
X181483000Y-113919000D03*
X178943000Y-116459000D03*
X181483000Y-116459000D03*
X178943000Y-118999000D03*
X181483000Y-118999000D03*
X173863000Y-118999000D03*
X171323000Y-118999000D03*
X173863000Y-116459000D03*
X171323000Y-116459000D03*
X173863000Y-113919000D03*
X171323000Y-113919000D03*
X173863000Y-111379000D03*
X171323000Y-111379000D03*
X173863000Y-108839000D03*
X171323000Y-108839000D03*
X173863000Y-106299000D03*
X171323000Y-106299000D03*
X173863000Y-103759000D03*
X171323000Y-103759000D03*
X173863000Y-101219000D03*
X171323000Y-101219000D03*
X173863000Y-98679000D03*
X171323000Y-98679000D03*
X173863000Y-96139000D03*
X171323000Y-96139000D03*
X168783000Y-118999000D03*
X168783000Y-116459000D03*
X166243000Y-116459000D03*
X168783000Y-113919000D03*
X166243000Y-113919000D03*
X168783000Y-111379000D03*
X166243000Y-111379000D03*
X168783000Y-108839000D03*
X166243000Y-108839000D03*
X168783000Y-106299000D03*
X166243000Y-106299000D03*
X168783000Y-103759000D03*
X166243000Y-103759000D03*
X168783000Y-101219000D03*
X166243000Y-101219000D03*
X168783000Y-98679000D03*
X166243000Y-98679000D03*
X168783000Y-96139000D03*
X166243000Y-96139000D03*
D22*
X121132600Y-91401900D03*
X121132600Y-95798640D03*
D23*
X124079000Y-101727000D03*
D11*
X121539000Y-101727000D03*
M02*
