<?xml version="1.0" standalone="no"?>
 <!DOCTYPE svg PUBLIC "-//W3C//DTD SVG 1.1//EN" 
 "http://www.w3.org/Graphics/SVG/1.1/DTD/svg11.dtd"> 
<svg xmlns="http://www.w3.org/2000/svg" version="1.1" 
    width="29.7002cm" height="21.0007cm" viewBox="0 0 116930 82680 ">
<title>SVG Picture created as canduino-NPTH-drl_map.svg date 2015/09/01 18:37:56 </title>
  <desc>Picture generated by PCBNEW </desc>
<g style="fill:#000000; fill-opacity:1;stroke:#000000; stroke-opacity:1;
stroke-linecap:round; stroke-linejoin:round; "
 transform="translate(0 0) scale(1 1)">
</g>
<g style="fill:#000000; fill-opacity:0.0; 
stroke:#000000; stroke-width:39.3701; stroke-opacity:1; 
stroke-linecap:round; stroke-linejoin:round;">
<path d="M45450 31250
L45450 31300
" />
<path d="M45850 30850
L45450 31250
" />
<path d="M70950 30850
L45850 30850
" />
<path d="M71450 31350
L70950 30850
" />
<path d="M71450 35850
L71450 31350
" />
<path d="M72450 36850
L71450 35850
" />
<path d="M72450 49850
L72450 36850
" />
<path d="M71450 50850
L72450 49850
" />
<path d="M71450 51350
L71450 50850
" />
<path d="M70950 51850
L71450 51350
" />
<path d="M45900 51850
L70950 51850
" />
<path d="M45450 51400
L45900 51850
" />
<path d="M45450 31300
L45450 51400
" />
</g>
<g style="fill:#000000; fill-opacity:0.0; 
stroke:#000000; stroke-width:78.7402; stroke-opacity:1; 
stroke-linecap:round; stroke-linejoin:round;">
<path d="M47513 35808
L47867 36162
" />
<path d="M47867 35808
L47513 36162
" />
<path d="M47513 37539
L47867 37893
" />
<path d="M47867 37539
L47513 37893
" />
<circle cx="50965" cy="50840" r="629.5" /> 
<circle cx="51465" cy="31840" r="629.5" /> 
<circle cx="71465" cy="37840" r="629.5" /> 
<circle cx="71465" cy="48840" r="629.5" /> 
</g>
<g style="fill:#000000; fill-opacity:0.0; 
stroke:#000000; stroke-width:118.11; stroke-opacity:1; 
stroke-linecap:round; stroke-linejoin:round;">
<path d="M46498 53703
L46498 52522
L46780 52522
L46948 52578
L47061 52690
L47117 52803
L47173 53028
L47173 53197
L47117 53421
L47061 53534
L46948 53646
L46780 53703
L46498 53703
" />
<path d="M47680 53703
L47680 52915
" />
<path d="M47680 53140
L47736 53028
L47792 52972
L47905 52915
L48017 52915
" />
<path d="M48411 53703
L48411 52915
" />
<path d="M48411 52522
L48354 52578
L48411 52634
L48467 52578
L48411 52522
L48411 52634
" />
<path d="M49142 53703
L49029 53646
L48973 53534
L48973 52522
" />
<path d="M49761 53703
L49648 53646
L49592 53534
L49592 52522
" />
<path d="M51110 53703
L51110 52522
L51504 53365
L51898 52522
L51898 53703
" />
<path d="M52966 53703
L52966 53084
L52910 52972
L52798 52915
L52573 52915
L52460 52972
" />
<path d="M52966 53646
L52854 53703
L52573 53703
L52460 53646
L52404 53534
L52404 53421
L52460 53309
L52573 53253
L52854 53253
L52966 53197
" />
<path d="M53529 52915
L53529 54096
" />
<path d="M53529 52972
L53641 52915
L53866 52915
L53979 52972
L54035 53028
L54091 53140
L54091 53478
L54035 53590
L53979 53646
L53866 53703
L53641 53703
L53529 53646
" />
<path d="M54597 53590
L54654 53646
L54597 53703
L54541 53646
L54597 53590
L54597 53703
" />
<path d="M54597 52972
L54654 53028
L54597 53084
L54541 53028
L54597 52972
L54597 53084
" />
<path d="M45076 55472
L45430 55826
" />
<path d="M45430 55472
L45076 55826
" />
<path d="M46723 55002
L46836 55002
L46948 55058
L47005 55114
L47061 55227
L47117 55452
L47117 55733
L47061 55958
L47005 56071
L46948 56127
L46836 56183
L46723 56183
L46611 56127
L46555 56071
L46498 55958
L46442 55733
L46442 55452
L46498 55227
L46555 55114
L46611 55058
L46723 55002
" />
<path d="M47623 56071
L47680 56127
L47623 56183
L47567 56127
L47623 56071
L47623 56183
" />
<path d="M48242 56183
L48467 56183
L48579 56127
L48636 56071
L48748 55902
L48804 55677
L48804 55227
L48748 55114
L48692 55058
L48579 55002
L48354 55002
L48242 55058
L48186 55114
L48129 55227
L48129 55508
L48186 55621
L48242 55677
L48354 55733
L48579 55733
L48692 55677
L48748 55621
L48804 55508
" />
<path d="M49536 55002
L49648 55002
L49761 55058
L49817 55114
L49873 55227
L49929 55452
L49929 55733
L49873 55958
L49817 56071
L49761 56127
L49648 56183
L49536 56183
L49423 56127
L49367 56071
L49311 55958
L49254 55733
L49254 55452
L49311 55227
L49367 55114
L49423 55058
L49536 55002
" />
<path d="M50435 56183
L50435 55396
" />
<path d="M50435 55508
L50492 55452
L50604 55396
L50773 55396
L50885 55452
L50942 55564
L50942 56183
" />
<path d="M50942 55564
L50998 55452
L51110 55396
L51279 55396
L51392 55452
L51448 55564
L51448 56183
" />
<path d="M52010 56183
L52010 55396
" />
<path d="M52010 55508
L52066 55452
L52179 55396
L52348 55396
L52460 55452
L52516 55564
L52516 56183
" />
<path d="M52516 55564
L52573 55452
L52685 55396
L52854 55396
L52966 55452
L53023 55564
L53023 56183
" />
<path d="M55329 54946
L54316 56464
" />
<path d="M56847 55002
L56960 55002
L57072 55058
L57128 55114
L57185 55227
L57241 55452
L57241 55733
L57185 55958
L57128 56071
L57072 56127
L56960 56183
L56847 56183
L56735 56127
L56678 56071
L56622 55958
L56566 55733
L56566 55452
L56622 55227
L56678 55114
L56735 55058
L56847 55002
" />
<path d="M57747 56071
L57803 56127
L57747 56183
L57691 56127
L57747 56071
L57747 56183
" />
<path d="M58534 55002
L58647 55002
L58759 55058
L58816 55114
L58872 55227
L58928 55452
L58928 55733
L58872 55958
L58816 56071
L58759 56127
L58647 56183
L58534 56183
L58422 56127
L58366 56071
L58309 55958
L58253 55733
L58253 55452
L58309 55227
L58366 55114
L58422 55058
L58534 55002
" />
<path d="M59322 55002
L60053 55002
L59659 55452
L59828 55452
L59941 55508
L59997 55564
L60053 55677
L60053 55958
L59997 56071
L59941 56127
L59828 56183
L59491 56183
L59378 56127
L59322 56071
" />
<path d="M61122 55002
L60559 55002
L60503 55564
L60559 55508
L60672 55452
L60953 55452
L61065 55508
L61122 55564
L61178 55677
L61178 55958
L61122 56071
L61065 56127
L60953 56183
L60672 56183
L60559 56127
L60503 56071
" />
<path d="M61628 55002
L61628 55227
" />
<path d="M62078 55002
L62078 55227
" />
<path d="M63821 56633
L63765 56577
L63653 56408
L63596 56296
L63540 56127
L63484 55846
L63484 55621
L63540 55339
L63596 55171
L63653 55058
L63765 54889
L63821 54833
" />
<path d="M64215 55114
L64271 55058
L64384 55002
L64665 55002
L64777 55058
L64834 55114
L64890 55227
L64890 55339
L64834 55508
L64159 56183
L64890 56183
" />
<path d="M66296 56183
L66296 55002
" />
<path d="M66802 56183
L66802 55564
L66746 55452
L66633 55396
L66465 55396
L66352 55452
L66296 55508
" />
<path d="M67533 56183
L67421 56127
L67365 56071
L67308 55958
L67308 55621
L67365 55508
L67421 55452
L67533 55396
L67702 55396
L67815 55452
L67871 55508
L67927 55621
L67927 55958
L67871 56071
L67815 56127
L67702 56183
L67533 56183
" />
<path d="M68602 56183
L68489 56127
L68433 56014
L68433 55002
" />
<path d="M69502 56127
L69389 56183
L69164 56183
L69052 56127
L68996 56014
L68996 55564
L69052 55452
L69164 55396
L69389 55396
L69502 55452
L69558 55564
L69558 55677
L68996 55789
" />
<path d="M70008 56127
L70120 56183
L70345 56183
L70458 56127
L70514 56014
L70514 55958
L70458 55846
L70345 55789
L70177 55789
L70064 55733
L70008 55621
L70008 55564
L70064 55452
L70177 55396
L70345 55396
L70458 55452
" />
<path d="M70908 56633
L70964 56577
L71077 56408
L71133 56296
L71189 56127
L71245 55846
L71245 55621
L71189 55339
L71133 55171
L71077 55058
L70964 54889
L70908 54833
" />
<circle cx="44800.8" cy="57208.3" r="629.5" /> 
<path d="M46386 56561
L47117 56561
L46723 57011
L46892 57011
L47005 57067
L47061 57123
L47117 57236
L47117 57517
L47061 57630
L47005 57686
L46892 57742
L46555 57742
L46442 57686
L46386 57630
" />
<path d="M47623 57630
L47680 57686
L47623 57742
L47567 57686
L47623 57630
L47623 57742
" />
<path d="M48129 56673
L48186 56617
L48298 56561
L48579 56561
L48692 56617
L48748 56673
L48804 56786
L48804 56898
L48748 57067
L48073 57742
L48804 57742
" />
<path d="M49536 56561
L49648 56561
L49761 56617
L49817 56673
L49873 56786
L49929 57011
L49929 57292
L49873 57517
L49817 57630
L49761 57686
L49648 57742
L49536 57742
L49423 57686
L49367 57630
L49311 57517
L49254 57292
L49254 57011
L49311 56786
L49367 56673
L49423 56617
L49536 56561
" />
<path d="M50435 57742
L50435 56955
" />
<path d="M50435 57067
L50492 57011
L50604 56955
L50773 56955
L50885 57011
L50942 57123
L50942 57742
" />
<path d="M50942 57123
L50998 57011
L51110 56955
L51279 56955
L51392 57011
L51448 57123
L51448 57742
" />
<path d="M52010 57742
L52010 56955
" />
<path d="M52010 57067
L52066 57011
L52179 56955
L52348 56955
L52460 57011
L52516 57123
L52516 57742
" />
<path d="M52516 57123
L52573 57011
L52685 56955
L52854 56955
L52966 57011
L53023 57123
L53023 57742
" />
<path d="M55329 56505
L54316 58023
" />
<path d="M56847 56561
L56960 56561
L57072 56617
L57128 56673
L57185 56786
L57241 57011
L57241 57292
L57185 57517
L57128 57630
L57072 57686
L56960 57742
L56847 57742
L56735 57686
L56678 57630
L56622 57517
L56566 57292
L56566 57011
L56622 56786
L56678 56673
L56735 56617
L56847 56561
" />
<path d="M57747 57630
L57803 57686
L57747 57742
L57691 57686
L57747 57630
L57747 57742
" />
<path d="M58928 57742
L58253 57742
" />
<path d="M58591 57742
L58591 56561
L58478 56730
L58366 56842
L58253 56898
" />
<path d="M59378 56673
L59434 56617
L59547 56561
L59828 56561
L59941 56617
L59997 56673
L60053 56786
L60053 56898
L59997 57067
L59322 57742
L60053 57742
" />
<path d="M61065 56561
L60840 56561
L60728 56617
L60672 56673
L60559 56842
L60503 57067
L60503 57517
L60559 57630
L60615 57686
L60728 57742
L60953 57742
L61065 57686
L61122 57630
L61178 57517
L61178 57236
L61122 57123
L61065 57067
L60953 57011
L60728 57011
L60615 57067
L60559 57123
L60503 57236
" />
<path d="M61628 56561
L61628 56786
" />
<path d="M62078 56561
L62078 56786
" />
<path d="M63821 58192
L63765 58136
L63653 57967
L63596 57855
L63540 57686
L63484 57405
L63484 57180
L63540 56898
L63596 56730
L63653 56617
L63765 56448
L63821 56392
" />
<path d="M64777 56955
L64777 57742
" />
<path d="M64496 56505
L64215 57348
L64946 57348
" />
<path d="M66296 57742
L66296 56561
" />
<path d="M66802 57742
L66802 57123
L66746 57011
L66633 56955
L66465 56955
L66352 57011
L66296 57067
" />
<path d="M67533 57742
L67421 57686
L67365 57630
L67308 57517
L67308 57180
L67365 57067
L67421 57011
L67533 56955
L67702 56955
L67815 57011
L67871 57067
L67927 57180
L67927 57517
L67871 57630
L67815 57686
L67702 57742
L67533 57742
" />
<path d="M68602 57742
L68489 57686
L68433 57573
L68433 56561
" />
<path d="M69502 57686
L69389 57742
L69164 57742
L69052 57686
L68996 57573
L68996 57123
L69052 57011
L69164 56955
L69389 56955
L69502 57011
L69558 57123
L69558 57236
L68996 57348
" />
<path d="M70008 57686
L70120 57742
L70345 57742
L70458 57686
L70514 57573
L70514 57517
L70458 57405
L70345 57348
L70177 57348
L70064 57292
L70008 57180
L70008 57123
L70064 57011
L70177 56955
L70345 56955
L70458 57011
" />
<path d="M70908 58192
L70964 58136
L71077 57967
L71133 57855
L71189 57686
L71245 57405
L71245 57180
L71189 56898
L71133 56730
L71077 56617
L70964 56448
L70908 56392
" />
</g> 
</svg>
