M48
;DRILL file {kicad (2015-02-03 BZR 5404)-product} date 01/09/2015 18:37:54
;FORMAT={-:-/ absolute / metric / decimal}
FMAT,2
METRIC,TZ
T1C0.330
T2C0.800
T3C0.998
T4C1.001
T5C1.300
%
G90
G05
M71
T1
X126.111Y-109.728
X126.377Y-99.683
X128.143Y-92.71
X128.524Y-95.25
X128.651Y-125.095
X128.778Y-87.249
X129.032Y-89.154
X129.159Y-90.17
X129.159Y-91.567
X131.826Y-104.648
X132.588Y-93.726
X133.477Y-91.313
X133.604Y-96.901
X133.604Y-98.298
X133.604Y-99.695
X133.731Y-94.234
X134.366Y-89.916
X134.366Y-118.491
X134.747Y-110.49
X135.255Y-107.95
X135.382Y-83.693
X135.382Y-97.409
X135.763Y-98.679
X136.271Y-104.775
X136.398Y-96.139
X137.541Y-106.045
X138.049Y-122.047
X138.557Y-104.648
X138.684Y-105.791
X139.573Y-83.947
X139.827Y-105.537
X139.954Y-98.171
X140.081Y-91.567
X140.081Y-98.933
X140.081Y-111.76
X140.462Y-99.568
X140.462Y-102.108
X140.462Y-113.792
X140.462Y-121.031
X141.351Y-100.457
X141.351Y-110.871
X141.732Y-96.52
X141.986Y-125.222
X142.494Y-94.234
X142.875Y-116.205
X142.875Y-122.174
X143.256Y-97.028
X143.51Y-114.681
X143.637Y-112.395
X143.637Y-113.411
X145.034Y-101.219
X145.161Y-114.046
X145.796Y-99.314
X145.923Y-92.329
X146.05Y-115.062
X146.812Y-83.312
X146.812Y-104.267
X146.812Y-109.347
X146.812Y-114.046
X147.701Y-115.062
X147.701Y-120.777
X147.955Y-83.439
X148.463Y-114.173
X149.225Y-115.062
X149.225Y-122.809
X149.352Y-100.711
X149.479Y-84.201
X150.114Y-114.173
X150.622Y-85.471
X150.876Y-115.062
X151.257Y-84.074
X151.638Y-114.173
X151.638Y-125.603
X151.765Y-124.079
X152.4Y-115.062
X152.908Y-88.646
X153.289Y-114.173
X153.67Y-109.347
X154.305Y-87.757
X154.432Y-85.471
X154.686Y-115.062
X154.813Y-122.809
X154.94Y-114.046
X155.194Y-100.33
X155.448Y-104.521
X155.766Y-85.471
X155.956Y-110.363
X156.989Y-110.492
X157.353Y-113.792
X157.607Y-94.488
X157.607Y-109.093
X157.734Y-87.122
X158.115Y-114.554
X158.496Y-85.725
X158.496Y-91.313
X158.496Y-112.903
X159.004Y-121.285
X159.258Y-112.649
X159.639Y-97.536
X159.893Y-124.841
X160.147Y-84.963
X160.147Y-112.903
X160.274Y-111.76
X160.401Y-109.601
X160.401Y-110.617
X160.909Y-90.424
X161.163Y-122.936
X162.433Y-88.9
T2
X130.937Y-102.743
X136.017Y-102.743
T3
X134.277Y-80.874
X136.817Y-80.874
X139.36Y-80.874
X141.897Y-80.874
X144.437Y-80.874
X146.977Y-80.874
X149.517Y-80.874
X152.057Y-80.874
X154.597Y-80.874
X157.137Y-80.874
X161.201Y-80.874
X163.741Y-80.874
X166.281Y-80.874
X168.821Y-80.874
X171.361Y-80.874
X173.901Y-80.874
X176.441Y-80.874
X178.981Y-80.874
T4
X121.539Y-101.727
X124.079Y-101.727
X143.421Y-129.134
X145.961Y-129.134
X148.501Y-129.134
X151.041Y-129.134
X153.581Y-129.134
X156.121Y-129.134
X158.661Y-129.134
X161.201Y-129.134
X166.243Y-85.979
X166.243Y-88.519
X166.243Y-91.059
X166.243Y-93.599
X166.243Y-96.139
X166.243Y-98.679
X166.243Y-101.219
X166.243Y-103.759
X166.243Y-106.299
X166.243Y-108.839
X166.243Y-111.379
X166.243Y-113.919
X166.243Y-116.459
X166.243Y-118.999
X166.243Y-121.539
X166.243Y-124.079
X166.281Y-129.134
X168.783Y-85.979
X168.783Y-88.519
X168.783Y-91.123
X168.783Y-93.599
X168.783Y-96.139
X168.783Y-98.679
X168.783Y-101.219
X168.783Y-103.759
X168.783Y-106.299
X168.783Y-108.839
X168.783Y-111.379
X168.783Y-113.919
X168.783Y-116.459
X168.783Y-118.999
X168.783Y-121.539
X168.783Y-124.079
X168.821Y-129.134
X171.323Y-85.979
X171.323Y-88.519
X171.323Y-91.123
X171.323Y-93.599
X171.323Y-96.139
X171.323Y-98.679
X171.323Y-101.219
X171.323Y-103.759
X171.323Y-106.299
X171.323Y-108.839
X171.323Y-111.379
X171.323Y-113.919
X171.323Y-116.459
X171.323Y-118.999
X171.323Y-121.539
X171.323Y-124.079
X171.361Y-129.134
X173.863Y-85.979
X173.863Y-88.519
X173.863Y-91.059
X173.863Y-93.599
X173.863Y-96.139
X173.863Y-98.679
X173.863Y-101.219
X173.863Y-103.759
X173.863Y-106.299
X173.863Y-108.839
X173.863Y-111.379
X173.863Y-113.919
X173.863Y-116.459
X173.863Y-118.999
X173.863Y-121.539
X173.863Y-124.079
X173.901Y-129.134
X176.403Y-111.379
X176.403Y-113.919
X176.403Y-116.459
X176.403Y-118.999
X176.441Y-129.134
X178.943Y-111.379
X178.943Y-113.919
X178.943Y-116.459
X178.943Y-118.999
X178.981Y-129.134
X179.324Y-101.219
X179.324Y-103.759
X179.324Y-106.299
X181.483Y-111.379
X181.483Y-113.919
X181.483Y-116.459
X181.483Y-118.999
X181.864Y-101.219
X181.864Y-103.759
X181.864Y-106.299
T5
X120.142Y-106.252
X120.142Y-111.252
X120.142Y-116.252
T4
X120.01Y-123.08G85X120.01Y-125.078
G05
X124.261Y-129.38G85X122.262Y-129.38
G05
X126.012Y-122.829G85X126.012Y-125.329
G05
T0
M30
