G04 CAM350 V9.5.1 (Build 211) Date:  Tue May 10 22:49:43 2016 *
G04 Database: (Untitled) *
G04 Layer 2: canduino-B_Mask *
%FSLAX46Y46*%
%MOMM*%
%SFA1.000B1.000*%

%MIA0B0*%
%IPPOS*%
%ADD11O,1.52400X2.19964*%
%ADD12O,1.52400X2.19710*%
%ADD13O,4.00050X1.99898*%
%ADD14O,1.99898X4.00050*%
%ADD15O,1.99898X4.50088*%
%ADD16R,1.99898X1.52400*%
%ADD17O,1.99898X1.52400*%
%ADD18C,1.99898*%
%ADD19C,2.50000*%
%ADD71C,3.19786*%
%ADD20C,1.52400*%
%ADD21R,1.52400X2.19964*%
%ADD26C,0.89916*%
%LNcanduino-B_Mask*%
%LPD*%
G54D11*
X143421100Y-129133600D03*
X145961100D03*
X148501100D03*
X151041100D03*
X153581100D03*
X156121100D03*
X158661100D03*
X161201100D03*
X166281100D03*
X168821100D03*
X171361100D03*
X173901100D03*
X176441100D03*
X178981100D03*
G54D71*
X129451100D03*
X181521100Y-124053600D03*
G54D12*
X178981100Y-80873600D03*
X176441100D03*
X173901100D03*
X171361100D03*
X168821100D03*
X166281100D03*
X163741100D03*
X161201100D03*
X157137100D03*
X154597100D03*
X152057100D03*
X149517100D03*
X146977100D03*
X144437100D03*
X141897100D03*
X139359640D03*
G54D71*
X130721100D03*
G54D12*
X136817100D03*
X134277100D03*
G54D71*
X181521100Y-96113600D03*
G54D13*
X123261120Y-129379980D03*
G54D14*
X120009920Y-124079000D03*
G54D15*
X126011940D03*
G54D16*
X179075080Y-101219000D03*
G54D17*
X182112920D03*
X179075080Y-103759000D03*
X182112920D03*
X179075080Y-106299000D03*
X182112920D03*
G54D18*
X130937000Y-102743000D03*
X136017000D03*
G54D19*
X120142000Y-116252000D03*
Y-106252000D03*
Y-111252000D03*
G54D20*
X166243000Y-118999000D03*
Y-121539000D03*
X168783000D03*
X166243000Y-124079000D03*
X168783000D03*
X171323000Y-121539000D03*
X173863000D03*
X171323000Y-124079000D03*
X173863000D03*
X166243000Y-85979000D03*
X168783000D03*
X166243000Y-88519000D03*
X168783000D03*
X166243000Y-91059000D03*
X168783000Y-91122500D03*
X166243000Y-93599000D03*
X168783000D03*
X171323000Y-85979000D03*
X173863000D03*
X171323000Y-88519000D03*
X173863000D03*
X171323000Y-91122500D03*
X173863000Y-91059000D03*
X171323000Y-93599000D03*
X173863000D03*
X176403000Y-111379000D03*
Y-113919000D03*
Y-116459000D03*
Y-118999000D03*
X178943000Y-111379000D03*
X181483000D03*
X178943000Y-113919000D03*
X181483000D03*
X178943000Y-116459000D03*
X181483000D03*
X178943000Y-118999000D03*
X181483000D03*
X173863000D03*
X171323000D03*
X173863000Y-116459000D03*
X171323000D03*
X173863000Y-113919000D03*
X171323000D03*
X173863000Y-111379000D03*
X171323000D03*
X173863000Y-108839000D03*
X171323000D03*
X173863000Y-106299000D03*
X171323000D03*
X173863000Y-103759000D03*
X171323000D03*
X173863000Y-101219000D03*
X171323000D03*
X173863000Y-98679000D03*
X171323000D03*
X173863000Y-96139000D03*
X171323000D03*
X168783000Y-118999000D03*
Y-116459000D03*
X166243000D03*
X168783000Y-113919000D03*
X166243000D03*
X168783000Y-111379000D03*
X166243000D03*
X168783000Y-108839000D03*
X166243000D03*
X168783000Y-106299000D03*
X166243000D03*
X168783000Y-103759000D03*
X166243000D03*
X168783000Y-101219000D03*
X166243000D03*
X168783000Y-98679000D03*
X166243000D03*
X168783000Y-96139000D03*
X166243000D03*
G54D26*
X121132600Y-91401900D03*
Y-95798640D03*
G54D21*
X124079000Y-101727000D03*
G54D11*
X121539000D03*
M02*
